<svg width="30" height="30" viewBox="0 0 30 30" fill="none" xmlns="http://www.w3.org/2000/svg">
<mask id="mask0_7426_4514" style="mask-type:alpha" maskUnits="userSpaceOnUse" x="0" y="0" width="30" height="30">
<rect width="30" height="30" fill="#D9D9D9"/>
</mask>
<g mask="url(#mask0_7426_4514)">
<path d="M14.0619 6.51448V1.89917H15.9369V6.51448H14.0619ZM21.6531 9.66354L20.3672 8.37761L23.5906 5.04823L24.92 6.39667L21.6531 9.66354ZM23.485 15.9376V14.0626H28.1003V15.9376H23.485ZM14.0619 28.101V23.4976H15.9369V28.101H14.0619ZM8.36969 9.61323L5.0475 6.40886L6.40813 5.09136L9.675 8.34636L8.36969 9.61323ZM23.5716 24.952L20.3672 21.6226L21.6341 20.3679L24.9081 23.5529L23.5716 24.952ZM1.89844 15.9376V14.0626H6.51375V15.9376H1.89844ZM6.39594 24.952L5.09063 23.5914L8.31437 20.3679L8.99219 21.0073L9.68219 21.666L6.39594 24.952ZM15.0022 21.8751C13.0932 21.8751 11.4697 21.207 10.1316 19.8707C8.79344 18.5345 8.12438 16.9119 8.12438 15.0029C8.12438 13.094 8.7925 11.4704 10.1288 10.1323C11.465 8.79417 13.0876 8.12511 14.9966 8.12511C16.9055 8.12511 18.5291 8.79323 19.8672 10.1295C21.2053 11.4657 21.8744 13.0883 21.8744 14.9973C21.8744 16.9063 21.2063 18.5298 19.87 19.8679C18.5338 21.206 16.9111 21.8751 15.0022 21.8751ZM14.9994 20.0001C16.3744 20.0001 17.5515 19.5105 18.5306 18.5314C19.5098 17.5522 19.9994 16.3751 19.9994 15.0001C19.9994 13.6251 19.5098 12.448 18.5306 11.4689C17.5515 10.4897 16.3744 10.0001 14.9994 10.0001C13.6244 10.0001 12.4473 10.4897 11.4681 11.4689C10.489 12.448 9.99938 13.6251 9.99938 15.0001C9.99938 16.3751 10.489 17.5522 11.4681 18.5314C12.4473 19.5105 13.6244 20.0001 14.9994 20.0001Z" fill="#039255"/>
</g>
</svg>
