<svg width="30" height="30" viewBox="0 0 30 30" fill="none" xmlns="http://www.w3.org/2000/svg">
<mask id="mask0_7426_4520" style="mask-type:alpha" maskUnits="userSpaceOnUse" x="0" y="0" width="30" height="30">
<rect width="30" height="30" fill="#D9D9D9"/>
</mask>
<g mask="url(#mask0_7426_4520)">
<path d="M2.01953 16.8749V14.9999H6.39453V16.8749H2.01953ZM8.25016 10.5046L5.13234 7.40616L6.46891 6.08897L9.55547 9.18741L8.25016 10.5046ZM7.49797 23.2449C7.13401 23.2449 6.82703 23.1193 6.57703 22.868C6.32703 22.6168 6.20203 22.3091 6.20203 21.9449C6.20203 21.581 6.32776 21.274 6.57922 21.024C6.83047 20.774 7.13818 20.649 7.50234 20.649C7.8663 20.649 8.17328 20.7746 8.42328 21.0258C8.67328 21.2773 8.79828 21.585 8.79828 21.949C8.79828 22.3131 8.67255 22.6202 8.42109 22.8702C8.16984 23.12 7.86214 23.2449 7.49797 23.2449ZM9.37516 16.8749V15.9374C9.37516 14.3766 9.92245 13.0489 11.017 11.9543C12.1116 10.8597 13.4393 10.3124 15.0002 10.3124C16.561 10.3124 17.8887 10.8597 18.9833 11.9543C20.0779 13.0489 20.6252 14.3766 20.6252 15.9374V16.8749H18.7502V15.9374C18.7502 14.8957 18.3856 14.0103 17.6564 13.2812C16.9272 12.552 16.0418 12.1874 15.0002 12.1874C13.9585 12.1874 13.0731 12.552 12.3439 13.2812C11.6147 14.0103 11.2502 14.8957 11.2502 15.9374V16.8749H9.37516ZM11.248 28.2449C10.884 28.2449 10.577 28.1193 10.327 27.868C10.077 27.6168 9.95203 27.3091 9.95203 26.9449C9.95203 26.581 10.0778 26.274 10.3292 26.024C10.5805 25.774 10.8882 25.649 11.2523 25.649C11.6163 25.649 11.9233 25.7746 12.1733 26.0259C12.4233 26.2773 12.5483 26.585 12.5483 26.949C12.5483 27.3131 12.4226 27.6202 12.1711 27.8702C11.9198 28.12 11.6121 28.2449 11.248 28.2449ZM14.998 23.2449C14.634 23.2449 14.327 23.1193 14.077 22.868C13.827 22.6168 13.702 22.3091 13.702 21.9449C13.702 21.581 13.8278 21.274 14.0792 21.024C14.3305 20.774 14.6382 20.649 15.0023 20.649C15.3663 20.649 15.6733 20.7746 15.9233 21.0258C16.1733 21.2773 16.2983 21.585 16.2983 21.949C16.2983 22.3131 16.1726 22.6202 15.9211 22.8702C15.6698 23.12 15.3621 23.2449 14.998 23.2449ZM14.0627 7.33179V2.95679H15.9377V7.33179H14.0627ZM18.748 28.2449C18.384 28.2449 18.077 28.1193 17.827 27.868C17.577 27.6168 17.452 27.3091 17.452 26.9449C17.452 26.581 17.5778 26.274 17.8292 26.024C18.0805 25.774 18.3882 25.649 18.7523 25.649C19.1163 25.649 19.4233 25.7746 19.6733 26.0259C19.9233 26.2773 20.0483 26.585 20.0483 26.949C20.0483 27.3131 19.9226 27.6202 19.6711 27.8702C19.4198 28.12 19.1121 28.2449 18.748 28.2449ZM21.7502 10.5046L20.4136 9.18741L23.5314 6.08897L24.8367 7.40616L21.7502 10.5046ZM22.498 23.2449C22.134 23.2449 21.827 23.1193 21.577 22.868C21.327 22.6168 21.202 22.3091 21.202 21.9449C21.202 21.581 21.3278 21.274 21.5792 21.024C21.8305 20.774 22.1382 20.649 22.5023 20.649C22.8663 20.649 23.1733 20.7746 23.4233 21.0258C23.6733 21.2773 23.7983 21.585 23.7983 21.949C23.7983 22.3131 23.6726 22.6202 23.4211 22.8702C23.1698 23.12 22.8621 23.2449 22.498 23.2449ZM23.6058 16.8749V14.9999H27.9808V16.8749H23.6058Z" fill="#0180C9"/>
</g>
</svg>
