<svg width="30" height="30" viewBox="0 0 30 30" fill="none" xmlns="http://www.w3.org/2000/svg">
<mask id="mask0_8590_230" style="mask-type:alpha" maskUnits="userSpaceOnUse" x="0" y="0" width="30" height="30">
<rect width="30" height="30" fill="#D9D9D9"/>
</mask>
<g mask="url(#mask0_8590_230)">
<path d="M18.5697 9.74752L15.2644 6.44221L18.5697 3.13721L21.875 6.44221L18.5697 9.74752ZM24.8197 13.4975L22.7644 11.4422L24.8197 9.38721L26.875 11.4422L24.8197 13.4975ZM15.0938 26.875C13.4319 26.875 11.8734 26.5597 10.4184 25.9291C8.96323 25.2985 7.69396 24.4415 6.61062 23.3581C5.52729 22.2748 4.67031 21.0055 4.03969 19.5503C3.40906 18.0953 3.09375 16.5369 3.09375 14.875C3.09375 12.1379 3.92833 9.70002 5.5975 7.56127C7.26646 5.42273 9.42469 4.02012 12.0722 3.35346C11.8414 5.35991 12.048 7.30544 12.6922 9.19002C13.3366 11.0746 14.3743 12.7324 15.8053 14.1635C17.2364 15.5945 18.8942 16.6322 20.7787 17.2766C22.6633 17.9207 24.6089 18.1274 26.6153 17.8966C25.9616 20.5441 24.5621 22.7023 22.4169 24.3713C20.2719 26.0404 17.8308 26.875 15.0938 26.875ZM15.0938 25C16.9271 25 18.625 24.5417 20.1875 23.625C21.75 22.7084 22.9792 21.4479 23.875 19.8438C22.0833 19.6771 20.3854 19.222 18.7812 18.4785C17.1771 17.7349 15.7396 16.7277 14.4688 15.4569C13.1979 14.1861 12.1875 12.7505 11.4375 11.1503C10.6875 9.55012 10.2396 7.85419 10.0938 6.06252C8.48958 6.95835 7.23438 8.19273 6.32812 9.76564C5.42188 11.3386 4.96875 13.0417 4.96875 14.875C4.96875 17.6875 5.95312 20.0781 7.92188 22.0469C9.89062 24.0156 12.2812 25 15.0938 25Z" fill="white" fill-opacity="0.4"/>
</g>
</svg>
