<svg width="30" height="30" viewBox="0 0 30 30" fill="none" xmlns="http://www.w3.org/2000/svg">
<mask id="mask0_7426_4517" style="mask-type:alpha" maskUnits="userSpaceOnUse" x="0" y="0" width="30" height="30">
<rect width="30" height="30" fill="#D9D9D9"/>
</mask>
<g mask="url(#mask0_7426_4517)">
<path d="M22.6972 12.4329L21.3797 11.0769L23.8028 8.69256L25.12 10.0097L22.6972 12.4329ZM2.8125 24.6876V22.8126H27.1875V24.6876H2.8125ZM14.0625 8.89443V5.52881H15.9375V8.89443H14.0625ZM7.30281 12.3941L4.91844 9.97131L6.23562 8.65381L8.65875 11.0769L7.30281 12.3941ZM9.28125 17.5001H20.7188C20.2396 16.3751 19.4876 15.4688 18.4628 14.7813C17.438 14.0938 16.2838 13.7501 15 13.7501C13.7162 13.7501 12.562 14.0938 11.5372 14.7813C10.5124 15.4688 9.76042 16.3751 9.28125 17.5001ZM6.94719 19.3751C7.09135 17.2501 7.93427 15.4688 9.47594 14.0313C11.0176 12.5938 12.859 11.8751 15 11.8751C17.141 11.8751 18.9824 12.5938 20.5241 14.0313C22.0657 15.4688 22.9086 17.2501 23.0528 19.3751H6.94719Z" fill="#D41200"/>
</g>
</svg>
