<svg width="113" height="67" viewBox="0 0 113 67" fill="none" xmlns="http://www.w3.org/2000/svg">
<g filter="url(#filter0_di_7702_3503)">
<path fill-rule="evenodd" clip-rule="evenodd" d="M20.8094 22.505C20.8566 24.439 20.3986 26.3517 19.4807 28.0536C19.1569 28.6351 18.7193 29.1452 18.1942 29.5532C17.6691 29.9613 17.0672 30.2589 16.4245 30.4284C15.7966 30.568 15.1472 30.581 14.5142 30.4667C13.8811 30.3524 13.2771 30.113 12.7373 29.7625C11.6422 28.9679 10.834 27.8386 10.4341 26.5444C9.85667 24.7098 9.6607 22.7761 9.85831 20.8626C9.96024 19.092 10.5464 17.3835 11.5525 15.9244C11.9295 15.4206 12.4045 14.9986 12.9488 14.6839C13.4931 14.3692 14.0954 14.1683 14.7193 14.0934C15.8059 13.941 16.9113 14.1768 17.8419 14.7592C18.8146 15.442 19.5563 16.406 19.9679 17.5224C20.5831 19.1203 20.8694 20.8265 20.8094 22.5383V22.505ZM29.3355 18.8651C29.7438 21.0657 29.7438 23.3229 29.3355 25.5234C28.9363 27.772 27.9765 29.8829 26.5452 31.6601C24.9143 33.6142 22.7584 35.0585 20.3333 35.8216C18.1298 36.5311 15.8039 36.7767 13.5013 36.5429C10.7362 36.3143 8.09704 35.2849 5.90529 33.5799C3.77422 31.8413 2.25338 29.4656 1.56473 26.7996C1.26475 25.6569 1.09024 24.4847 1.0443 23.304C1.0443 15.5508 1.0443 7.7828 1.0443 0H9.9026C9.9026 2.95184 9.9026 5.90368 9.9026 8.87771C12.7294 7.91363 15.7526 7.67704 18.6945 8.1897C21.3795 8.63236 23.8624 9.89591 25.8033 11.8074C27.6971 13.7237 28.9606 16.1749 29.4241 18.8319L29.3355 18.8651ZM58.4129 0.0554891H66.928C66.928 6.63609 66.928 13.2056 66.928 19.7862C67.0713 19.672 67.1884 19.5282 67.2712 19.3645C69.6298 15.769 72.0104 12.1847 74.3689 8.57809H85.4418C81.869 12.8764 78.2814 17.1673 74.679 21.4508C74.6015 21.5285 74.5461 21.6394 74.679 21.7171C78.6763 26.4667 82.6958 31.1941 86.6709 35.9436H75.8417C75.7948 35.9496 75.7472 35.9424 75.7041 35.9228C75.6611 35.9032 75.6244 35.872 75.598 35.8327C72.7191 31.638 69.8512 27.4321 66.9501 23.2485C66.9501 27.4765 66.9501 31.6934 66.9501 35.9214C65.7542 35.9769 64.5473 35.9214 63.3514 35.9214H58.4461L58.4129 0.0554891ZM56.6302 25.0351H38.98C39.0817 26.2926 39.665 27.4618 40.6077 28.2977C42.0696 29.472 43.8729 30.138 45.7455 30.1953C48.6343 30.3337 51.5247 29.958 54.2827 29.0856C54.6481 31.0165 55.0357 32.9363 55.39 34.8672C52.1312 36.0697 48.6745 36.642 45.203 36.554C43.1105 36.5317 41.0368 36.1565 39.0686 35.4443C37.6497 34.9462 36.3329 34.1942 35.182 33.2248C33.931 32.1523 32.923 30.8243 32.2255 29.3297C31.283 27.2391 30.8141 24.9653 30.8525 22.6715C30.8313 20.4051 31.2722 18.1582 32.148 16.0687C33.1125 13.7468 34.7134 11.7461 36.7654 10.2981C38.7019 8.96991 40.9574 8.18451 43.2984 8.02323C45.2223 7.83622 47.1641 8.03234 49.012 8.60028C50.5418 9.10089 51.9361 9.94763 53.0869 11.0749C54.1535 12.1357 55.0035 13.3946 55.5893 14.7814C56.8885 18.0339 57.2492 21.587 56.6302 25.0351ZM38.9136 19.1759H48.9788C49.0297 17.6812 48.5468 16.2174 47.6169 15.0477C47.1949 14.5904 46.6801 14.2291 46.1071 13.9879C45.5341 13.7467 44.9162 13.6313 44.295 13.6495C43.0793 13.595 41.8895 14.0123 40.9731 14.8147C39.8016 15.977 39.0929 17.5276 38.98 19.1759H38.9136ZM111.596 20.1968C112.035 23.7575 111.284 27.3638 109.459 30.4506C107.787 33.0308 105.263 34.9398 102.328 35.8438C100.144 36.5386 97.8424 36.7803 95.5625 36.554C93.2014 36.3633 90.9217 35.6018 88.9187 34.3345C87.0044 33.0804 85.472 31.3219 84.4896 29.2521C83.1233 26.1464 82.7369 22.6964 83.3823 19.3645C83.8182 16.6074 85.0946 14.0529 87.0363 12.0515C88.8257 10.2317 91.0958 8.96134 93.5804 8.38944C94.4983 8.1769 95.4312 8.03591 96.3708 7.96774C98.6777 7.78501 100.997 8.0874 103.181 8.85551C105.886 9.83683 108.178 11.7114 109.68 14.1711C110.768 16.0018 111.434 18.0529 111.629 20.1746L111.596 20.1968ZM102.738 24.0253C103.001 21.9254 102.786 19.7928 102.107 17.7887C101.697 16.5806 100.923 15.5297 99.892 14.7814C98.9629 14.1539 97.8335 13.8966 96.7251 14.0601C95.7393 14.1592 94.8133 14.5803 94.0898 15.2586C93.1801 16.1788 92.5371 17.3295 92.2295 18.5877C91.8154 20.195 91.6695 21.8598 91.7977 23.5148C91.8789 24.8851 92.213 26.2284 92.7832 27.4765C93.2672 28.5283 94.0639 29.4043 95.0642 29.9845C96.032 30.4843 97.1368 30.652 98.2089 30.4617C99.3867 30.2205 100.426 29.5327 101.11 28.5418C101.997 27.2178 102.538 25.6913 102.682 24.103L102.738 24.0253ZM26.1687 50.9692C53.5261 47.1222 80.8946 43.2677 108.274 39.4059C108.274 42.2801 108.274 45.1543 108.274 48.0284C100.457 49.1381 92.6614 50.2479 84.855 51.3576C56.9292 55.2638 28.9775 59.181 1 63.1094C1 60.2464 1 57.3796 1 54.5092C9.41539 53.355 17.8308 52.1455 26.2573 50.9692H26.1687Z" fill="white"/>
</g>
<defs>
<filter id="filter0_di_7702_3503" x="0" y="0" width="112.719" height="66.1094" filterUnits="userSpaceOnUse" color-interpolation-filters="sRGB">
<feFlood flood-opacity="0" result="BackgroundImageFix"/>
<feColorMatrix in="SourceAlpha" type="matrix" values="0 0 0 0 0 0 0 0 0 0 0 0 0 0 0 0 0 0 127 0" result="hardAlpha"/>
<feOffset dy="2"/>
<feGaussianBlur stdDeviation="0.5"/>
<feComposite in2="hardAlpha" operator="out"/>
<feColorMatrix type="matrix" values="0 0 0 0 0 0 0 0 0 0 0 0 0 0 0 0 0 0 0.05 0"/>
<feBlend mode="normal" in2="BackgroundImageFix" result="effect1_dropShadow_7702_3503"/>
<feBlend mode="normal" in="SourceGraphic" in2="effect1_dropShadow_7702_3503" result="shape"/>
<feColorMatrix in="SourceAlpha" type="matrix" values="0 0 0 0 0 0 0 0 0 0 0 0 0 0 0 0 0 0 127 0" result="hardAlpha"/>
<feOffset dy="1"/>
<feGaussianBlur stdDeviation="0.5"/>
<feComposite in2="hardAlpha" operator="arithmetic" k2="-1" k3="1"/>
<feColorMatrix type="matrix" values="0 0 0 0 0 0 0 0 0 0 0 0 0 0 0 0 0 0 0.25 0"/>
<feBlend mode="normal" in2="shape" result="effect2_innerShadow_7702_3503"/>
</filter>
</defs>
</svg>
