<svg width="253" height="351" viewBox="0 0 253 351" fill="none" xmlns="http://www.w3.org/2000/svg">
<path d="M11.3975 24.5317L11.321 22.349C11.2806 21.1977 11.278 19.0725 14.8758 18.9463C15.8592 18.9117 16.5474 19.0197 17.1389 19.107L17.1742 20.1144C16.6796 20.0477 15.9669 19.9286 15.0195 19.9618C12.4531 20.0519 12.4609 21.3004 12.4962 22.3078L12.5728 24.4904C12.6061 25.4378 12.6883 26.7558 15.1468 26.6695C16.1542 26.6342 16.8807 26.4646 17.3934 26.3625L17.4283 27.3579C16.8445 27.4865 16.166 27.6544 15.1826 27.6889C11.5848 27.8151 11.4379 25.6829 11.3975 24.5317ZM24.0848 23.4861L24.1345 24.9013C24.1656 25.7887 24.1492 27.3743 21.3909 27.471C18.6326 27.5678 18.5051 25.9873 18.474 25.0999L18.4243 23.6847C18.3932 22.7973 18.4096 21.2117 21.1679 21.115C23.9262 21.0182 24.0541 22.6107 24.0848 23.4861ZM22.9832 24.9417L22.9335 23.5265C22.853 22.2566 22.2338 22.0622 21.2024 22.0984C20.0391 22.1392 19.5348 22.4811 19.5756 23.6443L19.6253 25.0595C19.669 26.3067 20.349 26.523 21.3564 26.4877C22.5077 26.4473 23.0244 26.1169 22.9832 24.9417ZM27.737 24.7388L27.677 24.7409L26.1782 27.195L24.835 27.2421L27.0132 23.9597L24.8114 21.0952L26.1546 21.0481L27.6343 23.1815L27.6703 23.1802L28.9969 20.9483L30.34 20.9012L28.3444 23.913L30.7474 27.0347L29.4042 27.0818L27.737 24.7388ZM34.2982 21.6389C33.9144 21.6523 33.1143 21.7765 32.7467 21.9094L32.8872 25.915C33.2388 26.0107 33.8166 26.0505 34.4522 26.0282C35.5435 25.9899 35.9895 25.6981 35.947 24.4868L35.8974 23.0717C35.8591 21.9804 35.5334 21.5955 34.2982 21.6389ZM34.2277 20.6567C35.8467 20.5999 36.9788 21.0405 37.0487 23.0313L37.0983 24.4464C37.164 26.3173 36.2975 26.948 34.4867 27.0116C33.7071 27.0389 33.2476 26.947 32.9209 26.8744L33.0076 29.3449L31.8563 29.3853L31.5571 20.8585L32.4566 20.8269L32.5498 21.0878C33.0682 20.8055 33.9998 20.6647 34.2277 20.6567ZM42.0944 23.0464L42.0851 22.7825C42.0413 21.5353 41.2204 21.408 40.285 21.4408C39.6493 21.4631 39.0291 21.581 38.6603 21.6779C38.6599 21.6659 38.6262 20.7065 38.6262 20.7065C39.055 20.6074 39.7468 20.4751 40.4663 20.4499C43.1047 20.3573 43.1954 21.9151 43.2364 22.7421L43.3715 26.5918L42.472 26.6233L42.3788 26.3624C41.671 26.7235 40.9767 26.7839 40.581 26.7977C38.89 26.8571 38.2639 26.1226 38.2294 25.1392L38.2205 24.8873C38.1818 23.784 38.9502 23.0966 40.2454 23.0512C40.8091 23.0314 41.4575 23.0327 42.0944 23.0464ZM42.1789 25.4569L42.1268 23.9698C41.5139 23.9553 40.9858 23.9618 40.5181 23.9782C39.6546 24.0085 39.3554 24.3792 39.376 24.9669C39.3929 25.4466 39.6826 25.8327 40.69 25.7973C40.9898 25.7868 41.6245 25.7405 42.1789 25.4569ZM48.9396 26.3964L48.8479 23.782L46.0896 23.8788L46.1813 26.4932L45.03 26.5336L44.8146 20.3934L45.9659 20.353L46.0546 22.8834L48.813 22.7866L48.7242 20.2562L49.8755 20.2158L50.0909 26.356L48.9396 26.3964ZM53.4892 23.1269L55.0362 23.0726L54.9643 21.0218L53.4172 21.0761C52.8776 21.0951 52.5592 21.2623 52.5883 22.0898C52.6169 22.9053 52.9495 23.1458 53.4892 23.1269ZM51.4275 26.3091L52.9438 24.0105C52.0295 23.9586 51.4763 23.5937 51.425 22.1306C51.364 20.3917 52.1595 20.1357 53.3827 20.0927L56.0811 19.9981L56.2965 26.1383L55.1452 26.1787L55.0674 23.96L54.1439 23.9924L52.8067 26.2607L51.4275 26.3091ZM58.7894 22.3766L61.7755 22.2718C61.7833 22.1514 61.7795 22.0435 61.7757 21.9356C61.7421 20.9762 61.323 20.6667 60.3396 20.7012C59.2482 20.7395 58.806 21.1392 58.7894 22.3766ZM62.8967 23.085L58.7953 23.2289C58.8516 24.8359 59.4631 25.1506 60.7702 25.1048C61.4059 25.0825 62.1237 25.0093 62.5161 24.8994C62.5161 24.8994 62.5485 25.8229 62.5489 25.8349C62.1321 25.9335 61.4883 26.0642 60.8047 26.0882C58.2863 26.1765 57.7092 25.1281 57.636 23.0414C57.5417 20.3551 58.567 19.8028 60.3059 19.7418C61.841 19.6879 62.8433 20.1931 62.9136 22.1958C62.9228 22.4597 62.9213 22.7599 62.8967 23.085ZM65.948 25.7996L65.767 20.6428L63.6203 20.7181L63.5858 19.7347L69.0305 19.5437L69.065 20.5271L66.9183 20.6024L67.0992 25.7593L65.948 25.7996ZM76.5614 21.8371L76.5522 21.5732C76.5084 20.326 75.6875 20.1987 74.752 20.2315C74.1164 20.2538 73.4962 20.3716 73.1273 20.4686C73.1269 20.4566 73.0933 19.4972 73.0933 19.4972C73.5221 19.3981 74.2138 19.2658 74.9334 19.2405C77.5718 19.148 77.6624 20.7058 77.7035 21.5328L77.8385 25.3825L76.9391 25.414L76.8459 25.1531C76.1381 25.5142 75.4438 25.5745 75.048 25.5884C73.3571 25.6478 72.7309 24.9133 72.6964 23.9299L72.6876 23.678C72.6489 22.5747 73.4173 21.8873 74.7125 21.8419C75.2761 21.8221 75.9246 21.8234 76.5614 21.8371ZM76.646 24.2476L76.5938 22.7605C75.981 22.746 75.4529 22.7525 74.9851 22.7689C74.1217 22.7992 73.8225 23.1699 73.8431 23.7576C73.8599 24.2373 74.1497 24.6233 75.157 24.588C75.4569 24.5775 76.0916 24.5312 76.646 24.2476ZM83.4067 25.1871L83.3149 22.5727L80.5566 22.6695L80.6484 25.2839L79.4971 25.3243L79.2816 19.184L80.4329 19.1436L80.5217 21.6741L83.28 21.5773L83.1912 19.0469L84.3425 19.0065L84.558 25.1467L83.4067 25.1871ZM87.8134 25.0325L87.6325 19.8756L85.4858 19.951L85.4513 18.9676L90.8959 18.7765L90.9304 19.7599L88.7838 19.8353L88.9647 24.9921L87.8134 25.0325ZM93.3002 22.9308L95.802 18.6044L96.9653 18.5636L97.1808 24.7038L96.0295 24.7442L95.8793 20.4628L93.3071 24.8397L92.2158 24.878L92.0004 18.7378L93.1517 18.6974L93.3002 22.9308ZM104.192 20.6755L104.241 22.0906C104.273 22.9781 104.256 24.5636 101.498 24.6604C98.7396 24.7572 98.6121 23.1767 98.5809 22.2892L98.5313 20.8741C98.5001 19.9866 98.5166 18.4011 101.275 18.3043C104.033 18.2075 104.161 19.8 104.192 20.6755ZM103.09 22.131L103.041 20.7159C102.96 19.4459 102.341 19.2515 101.309 19.2877C100.146 19.3285 99.6418 19.6704 99.6826 20.8337L99.7322 22.2488C99.776 23.4961 100.456 23.7124 101.463 23.677C102.615 23.6366 103.131 23.3063 103.09 22.131ZM107.775 21.8105L106.91 22.8255L106.964 24.3605L105.813 24.4009L105.597 18.2607L106.749 18.2203L106.864 21.5183L107.837 20.1513L109.219 18.1336L110.622 18.0844L108.506 21.0765L111.03 24.2179L109.579 24.2688L107.775 21.8105ZM116.116 18.9603C115.741 18.8894 115.006 18.8192 114.37 18.8415C113.435 18.8743 112.625 19.0588 112.669 20.306L112.723 21.8651C112.806 23.195 113.588 23.2396 114.536 23.2064C115.171 23.1841 115.864 23.0757 116.256 22.9659C116.256 22.9659 116.29 23.9253 116.29 23.9373C115.861 24.0364 115.122 24.1704 114.366 24.1969C111.704 24.2903 111.602 22.7449 111.572 21.9055L111.517 20.3464C111.488 19.5069 111.482 17.9582 114.144 17.8648C114.9 17.8383 115.647 17.9201 116.082 17.9889C116.082 17.9889 116.115 18.9483 116.116 18.9603ZM118.785 22.0366L121.286 17.7103L122.45 17.6694L122.665 23.8097L121.514 23.8501L121.364 19.5687L118.791 23.9456L117.7 23.9839L117.485 17.8436L118.636 17.8032L118.785 22.0366ZM123.795 24.9948L123.718 22.7881L124.413 22.7637C125.087 22.1157 125.332 20.8823 125.333 19.8857L125.252 17.5711L129.425 17.4247L129.606 22.5815L130.362 22.555L130.439 24.7617L129.42 24.7974L129.377 23.5742L124.772 23.7358L124.815 24.959L123.795 24.9948ZM128.309 18.4485L126.438 18.5141L126.485 19.8573C126.492 20.7576 126.303 21.8569 125.829 22.7141L128.455 22.6219L128.309 18.4485ZM135.049 19.785L135.04 19.5211C134.996 18.2739 134.175 18.1466 133.239 18.1794C132.604 18.2017 131.984 18.3195 131.615 18.4165C131.614 18.4045 131.581 17.4451 131.581 17.4451C132.009 17.346 132.701 17.2137 133.421 17.1884C136.059 17.0959 136.15 18.6537 136.191 19.4807L136.326 23.3304L135.427 23.3619L135.333 23.101C134.626 23.4621 133.931 23.5224 133.535 23.5363C131.845 23.5957 131.218 22.8612 131.184 21.8778L131.175 21.6259C131.136 20.5226 131.905 19.8352 133.2 19.7898C133.764 19.77 134.412 19.7713 135.049 19.785ZM135.133 22.1955L135.081 20.7084C134.468 20.6939 133.94 20.7004 133.473 20.7168C132.609 20.7471 132.31 21.1178 132.331 21.7055C132.347 22.1852 132.637 22.5712 133.644 22.5359C133.944 22.5254 134.579 22.4791 135.133 22.1955ZM141.894 23.135L141.802 20.5206L139.044 20.6174L139.136 23.2318L137.985 23.2722L137.769 17.1319L138.92 17.0915L139.009 19.622L141.767 19.5252L141.679 16.9948L142.83 16.9544L143.045 23.0946L141.894 23.135ZM146.301 22.9804L146.12 17.8236L143.973 17.8989L143.939 16.9155L149.383 16.7244L149.418 17.7078L147.271 17.7832L147.452 22.94L146.301 22.9804ZM156.449 22.6243L156.233 16.4841L157.385 16.4437L157.6 22.5839L156.449 22.6243ZM151.655 18.4219L153.118 18.3705C155.408 18.2901 155.528 19.6548 155.556 20.4343L155.558 20.4943C155.585 21.2858 155.561 22.6555 153.271 22.7358L150.656 22.8276L150.441 16.6873L151.592 16.6469L151.655 18.4219ZM151.773 21.8038L153.236 21.7524C154.412 21.7112 154.421 20.9664 154.406 20.5347L154.404 20.4747C154.389 20.055 154.327 19.3127 153.152 19.3539L151.689 19.4052L151.773 21.8038ZM159.566 23.6196L158.571 23.6546L159.549 21.0747L160.868 21.0284L159.566 23.6196ZM14.1404 41.1057L13.2754 42.1206L13.3293 43.6557L12.178 43.6961L11.9626 37.5558L13.1139 37.5155L13.2296 40.8134L14.2022 39.4465L15.5843 37.4288L16.9875 37.3795L14.8711 40.3716L17.3948 43.513L15.9437 43.5639L14.1404 41.1057ZM23.5216 39.5157L23.5712 40.9309C23.6023 41.8183 23.5859 43.4039 20.8276 43.5007C18.0693 43.5974 17.9418 42.0169 17.9107 41.1295L17.861 39.7143C17.8299 38.8269 17.8463 37.2413 20.6046 37.1446C23.3629 37.0478 23.4908 38.6403 23.5216 39.5157ZM22.4199 40.9713L22.3703 39.5561C22.2897 38.2862 21.6705 38.0918 20.6391 38.128C19.4758 38.1688 18.9715 38.5107 19.0123 39.674L19.062 41.0891C19.1057 42.3363 19.7857 42.5526 20.7931 42.5173C21.9444 42.4769 22.4612 42.1465 22.4199 40.9713ZM26.6429 43.1886L26.462 38.0317L24.3153 38.107L24.2808 37.1237L29.7254 36.9326L29.7599 37.916L27.6132 37.9913L27.7942 43.1482L26.6429 43.1886ZM36.3106 39.067L36.3602 40.4822C36.3914 41.3696 36.3749 42.9552 33.6166 43.0519C30.8583 43.1487 30.7308 41.5682 30.6997 40.6808L30.65 39.2656C30.6189 38.3782 30.6353 36.7926 33.3936 36.6959C36.1519 36.5991 36.2798 38.1916 36.3106 39.067ZM35.2089 40.5226L35.1593 39.1074C35.0787 37.8375 34.4595 37.6431 33.4281 37.6792C32.2648 37.7201 31.7605 38.062 31.8013 39.2252L31.851 40.6404C31.8948 41.8876 32.5748 42.1039 33.5821 42.0685C34.7334 42.0282 35.2502 41.6978 35.2089 40.5226ZM40.4573 37.4326C40.0735 37.4461 39.2734 37.5702 38.9058 37.7032L39.0464 41.7087C39.398 41.8045 39.9757 41.8442 40.6113 41.8219C41.7026 41.7836 42.1487 41.4918 42.1062 40.2806L42.0565 38.8654C42.0182 37.7741 41.6925 37.3893 40.4573 37.4326ZM40.3868 36.4505C42.0058 36.3937 43.138 36.8343 43.2078 38.825L43.2575 40.2402C43.3231 42.111 42.4567 42.7418 40.6458 42.8053C39.8663 42.8327 39.4068 42.7407 39.08 42.6681L39.1667 45.1386L38.0154 45.179L37.7163 36.6523L38.6157 36.6207L38.7089 36.8816C39.2273 36.5992 40.159 36.4585 40.3868 36.4505ZM50.6339 42.3468L50.4185 36.2066L51.5698 36.1662L51.7852 42.3064L50.6339 42.3468ZM45.8396 38.1443L47.3027 38.093C49.5933 38.0126 49.7132 39.3773 49.7406 40.1568L49.7427 40.2167C49.7705 41.0083 49.7465 42.3779 47.4559 42.4583L44.8415 42.55L44.6261 36.4098L45.7774 36.3694L45.8396 38.1443ZM45.9583 41.5262L47.4214 41.4749C48.5967 41.4337 48.6066 40.6889 48.5914 40.2571L48.5893 40.1972C48.5746 39.7774 48.5125 39.0352 47.3372 39.0764L45.8741 39.1277L45.9583 41.5262ZM54.2793 38.5446L57.2655 38.4399C57.2732 38.3195 57.2695 38.2116 57.2657 38.1037C57.232 37.1442 56.8129 36.8348 55.8295 36.8693C54.7382 36.9075 54.2959 37.3073 54.2793 38.5446ZM58.3867 39.2531L54.2852 39.397C54.3416 41.004 54.953 41.3187 56.2602 41.2729C56.8958 41.2506 57.6137 41.1773 58.0061 41.0675C58.0061 41.0675 58.0385 41.9909 58.0389 42.0029C57.6221 42.1016 56.9783 42.2323 56.2947 42.2563C53.7762 42.3446 53.1991 41.2962 53.1259 39.2095C53.0316 36.5231 54.0569 35.9709 55.7958 35.9098C57.3309 35.856 58.3332 36.3611 58.4035 38.3639C58.4128 38.6278 58.4113 38.928 58.3867 39.2531ZM62.1782 44.4513L62.1437 43.4679C62.551 43.4416 62.9927 43.3661 63.3975 43.2678C64.0627 43.0644 64.3388 42.7185 64.5902 42.0132L61.8628 35.805L63.182 35.7588L65.0973 40.7227L65.1212 40.7218L66.6719 35.6363L67.9911 35.59L65.8959 41.5832C65.4328 43.1003 65.2157 43.7564 63.7185 44.2051C63.207 44.3432 62.6695 44.4221 62.1782 44.4513ZM72.8987 41.6977L72.8175 39.3831C72.8167 39.3591 72.8125 39.2392 72.7997 39.2156C72.6149 39.4263 71.8049 39.6108 71.3612 39.6263C69.4543 39.6932 68.7998 39.1759 68.7342 37.305L68.6731 35.5661L69.8244 35.5257L69.8833 37.2047C69.9216 38.296 70.1514 38.6842 71.3866 38.6408C71.7704 38.6274 72.4146 38.5087 72.7822 38.3757L72.6787 35.4256L73.83 35.3852L74.05 41.6573L72.8987 41.6977ZM79.1603 37.7557L79.151 37.4919C79.1073 36.2446 78.2863 36.1174 77.3509 36.1502C76.7153 36.1725 76.095 36.2903 75.7262 36.3873C75.7258 36.3753 75.6921 35.4159 75.6921 35.4159C76.1209 35.3168 76.8127 35.1845 77.5322 35.1592C80.1706 35.0666 80.2613 36.6244 80.3023 37.4515L80.4374 41.3011L79.5379 41.3327L79.4447 41.0718C78.737 41.4328 78.0426 41.4932 77.6469 41.5071C75.9559 41.5664 75.3298 40.8319 75.2953 39.8485L75.2865 39.5967C75.2477 38.4934 76.0161 37.806 77.3113 37.7606C77.875 37.7408 78.5234 37.742 79.1603 37.7557ZM79.2449 40.1662L79.1927 38.6791C78.5798 38.6646 78.0517 38.6712 77.584 38.6876C76.7205 38.7179 76.4213 39.0886 76.4419 39.6762C76.4588 40.1559 76.7485 40.542 77.7559 40.5067C78.0557 40.4961 78.6905 40.4498 79.2449 40.1662ZM86.3672 36.0139C85.9925 35.943 85.2576 35.8728 84.622 35.8951C83.6865 35.9279 82.8765 36.1124 82.9203 37.3596L82.975 38.9187C83.0577 40.2486 83.8397 40.2932 84.7871 40.26C85.4227 40.2377 86.1153 40.1293 86.5077 40.0195C86.5077 40.0195 86.5414 40.9789 86.5418 40.9909C86.113 41.09 85.3733 41.224 84.6177 41.2505C81.9554 41.3439 81.8531 39.7985 81.8237 38.9591L81.769 37.4C81.7395 36.5605 81.7332 35.0118 84.3956 34.9184C85.1511 34.8919 85.8984 34.9737 86.3331 35.0425C86.3331 35.0425 86.3668 36.0019 86.3672 36.0139ZM89.4987 40.9832L89.3178 35.8264L87.1711 35.9017L87.1366 34.9183L92.5813 34.7273L92.6158 35.7106L90.4691 35.786L90.65 40.9428L89.4987 40.9832ZM96.7794 40.7277L93.9012 40.8287L93.6857 34.6885L96.432 34.5921C97.3914 34.5585 98.2595 34.6601 98.3117 36.1472L98.3172 36.3031C98.3357 36.8308 98.0973 37.2234 97.8171 37.4493C98.2555 37.6261 98.6305 38.0452 98.654 38.7168L98.6633 38.9806C98.6696 40.5293 97.6668 40.6966 96.7794 40.7277ZM95.0179 39.8049L96.7449 39.7443C97.1047 39.7317 97.4979 39.6459 97.5112 38.997L97.5027 38.7572C97.4783 38.0616 97.0077 37.9941 96.6479 38.0067L94.9569 38.066L95.0179 39.8049ZM94.8715 35.6315L94.9241 37.1306L96.5191 37.0746C96.8549 37.0628 97.1865 36.9311 97.1659 36.3435L97.1604 36.1876C97.1402 35.6119 96.8263 35.5629 96.4665 35.5755L94.8715 35.6315ZM99.5146 43.1413L99.4801 42.1579C99.8874 42.1316 100.329 42.0561 100.734 41.9578C101.399 41.7544 101.675 41.4085 101.927 40.7032L99.1992 34.4951L100.518 34.4488L102.434 39.4127L102.458 39.4118L104.008 34.3263L105.327 34.28L103.232 40.2732C102.769 41.7904 102.552 42.4464 101.055 42.8952C100.543 43.0332 100.006 43.1121 99.5146 43.1413ZM109.24 37.685L109.239 37.673L107.644 37.7289L107.736 40.3433L106.585 40.3837L106.369 34.2435L107.521 34.2031L107.609 36.7335L109.204 36.6776L109.198 36.4977C109.167 35.6222 109.184 34.0367 111.726 33.9475C114.281 33.8578 114.408 35.4383 114.439 36.3138L114.489 37.7529C114.52 38.6284 114.504 40.2139 111.949 40.3036C109.407 40.3928 109.279 38.8123 109.249 37.9368L109.24 37.685ZM110.349 36.4573L110.4 37.8964C110.418 38.4241 110.488 39.3702 111.915 39.3202C113.354 39.2697 113.357 38.321 113.338 37.7933L113.288 36.3542C113.269 35.8265 113.2 34.8804 111.761 34.9309C110.334 34.9809 110.331 35.9296 110.349 36.4573ZM117.56 39.9986L117.379 34.8418L115.232 34.9171L115.197 33.9337L120.642 33.7427L120.677 34.7261L118.53 34.8014L118.711 39.9582L117.56 39.9986ZM15.6173 59.5852L12.739 59.6862L12.5236 53.546L15.2699 53.4497C16.2293 53.416 17.0974 53.5176 17.1496 55.0047L17.1551 55.1606C17.1736 55.6883 16.9352 56.0809 16.655 56.3068C17.0934 56.4836 17.4683 56.9027 17.4919 57.5743L17.5012 57.8381C17.5075 59.3868 16.5047 59.5541 15.6173 59.5852ZM13.8558 58.6624L15.5828 58.6019C15.9425 58.5892 16.3358 58.5034 16.349 57.8545L16.3406 57.6147C16.3162 56.9191 15.8456 56.8516 15.4858 56.8642L13.7948 56.9235L13.8558 58.6624ZM13.7094 54.489L13.762 55.9881L15.357 55.9321C15.6928 55.9203 16.0244 55.7886 16.0038 55.201L15.9983 55.0451C15.9781 54.4694 15.6642 54.4204 15.3044 54.433L13.7094 54.489ZM26.0156 56.5428L26.1094 59.2171L25.0061 59.2558L24.9123 56.5815C24.5289 56.6069 23.8213 56.6318 23.4645 56.7283C23.0134 56.8762 22.8821 57.2411 22.7872 57.6166L22.4637 59.345L21.3124 59.3854L21.5638 57.9958C21.7485 57.1007 21.7559 56.284 23.325 55.8327L21.2408 53.2402L22.62 53.1918L24.4721 55.6723L24.8799 55.658L24.7907 53.1156L25.894 53.0769L25.9832 55.6193L26.3909 55.605L28.0646 53.0007L29.4438 52.9523L27.5464 55.6846C29.1433 56.0248 29.2079 56.839 29.4549 57.7189L29.8031 59.0875L28.6518 59.1279L28.2079 57.4264C28.0869 57.0584 27.9304 56.7037 27.47 56.5878C27.1073 56.5165 26.3998 56.5413 26.0156 56.5428ZM32.1051 57.0976L34.607 52.7712L35.7703 52.7304L35.9857 58.8706L34.8344 58.911L34.6842 54.6296L32.1121 59.0065L31.0208 59.0448L30.8053 52.9046L31.9566 52.8642L32.1051 57.0976ZM39.5551 55.9957L38.1759 56.0441L38.1439 55.1326L39.5591 55.083C40.1467 55.0624 40.4339 54.6921 40.4213 54.3323C40.3918 53.4928 39.7417 53.4436 38.8662 53.4743C38.7103 53.4797 37.992 53.541 37.3135 53.7089L37.2807 52.7734C37.8037 52.623 38.6411 52.5336 38.833 52.5269C40.44 52.4705 41.512 52.5649 41.5726 54.2919C41.589 54.7596 41.3643 55.1997 40.9071 55.516C41.5536 55.8055 41.7987 56.2892 41.8189 56.8648C41.8791 58.5798 40.7825 58.8104 39.1995 58.8659C38.8517 58.8781 38.0457 58.8343 37.2603 58.6938L37.2262 57.7224C38.0848 57.8964 38.8536 57.9054 39.1654 57.8945C40.0289 57.8642 40.6975 57.7567 40.6676 56.9052C40.65 56.4015 40.3346 55.9683 39.5551 55.9957ZM47.2158 58.4766L47.124 55.8622L44.3657 55.959L44.4575 58.5734L43.3062 58.6138L43.0907 52.4735L44.242 52.4331L44.3308 54.9636L47.0891 54.8668L47.0003 52.3364L48.1516 52.296L48.3671 58.4362L47.2158 58.4766ZM50.8701 54.6741L53.8563 54.5693C53.8641 54.449 53.8603 54.341 53.8565 54.2331C53.8228 53.2737 53.4037 52.9642 52.4203 52.9987C51.329 53.037 50.8867 53.4368 50.8701 54.6741ZM54.9775 55.3825L50.876 55.5264C50.9324 57.1334 51.5438 57.4482 52.851 57.4023C53.4866 57.38 54.2045 57.3068 54.5969 57.197C54.5969 57.197 54.6293 58.1204 54.6297 58.1324C54.2129 58.2311 53.5691 58.3617 52.8855 58.3857C50.3671 58.4741 49.7899 57.4257 49.7167 55.339C49.6225 52.6526 50.6477 52.1003 52.3867 52.0393C53.9217 51.9854 54.924 52.4906 54.9943 54.4934C55.0036 54.7572 55.0021 55.0575 54.9775 55.3825ZM55.8427 59.3986L55.7653 57.192L56.4608 57.1676C57.1345 56.5196 57.3794 55.2862 57.3805 54.2896L57.2993 51.975L61.4727 51.8286L61.6536 56.9854L62.4092 56.9589L62.4866 59.1655L61.4672 59.2013L61.4243 57.9781L56.8191 58.1396L56.8621 59.3629L55.8427 59.3986ZM60.3559 52.8524L58.4851 52.918L58.5322 54.2612C58.5398 55.1615 58.3502 56.2608 57.876 57.1179L60.5023 57.0258L60.3559 52.8524ZM64.4789 54.1966L67.4651 54.0918C67.4729 53.9715 67.4691 53.8636 67.4653 53.7556C67.4316 52.7962 67.0125 52.4867 66.0291 52.5212C64.9378 52.5595 64.4956 52.9593 64.4789 54.1966ZM68.5863 54.905L64.4848 55.0489C64.5412 56.656 65.1526 56.9707 66.4598 56.9248C67.0954 56.9025 67.8133 56.8293 68.2057 56.7195C68.2057 56.7195 68.2381 57.6429 68.2385 57.6549C67.8217 57.7536 67.1779 57.8843 66.4943 57.9082C63.9759 57.9966 63.3987 56.9482 63.3255 54.8615C63.2313 52.1751 64.2565 51.6228 65.9955 51.5618C67.5305 51.508 68.5329 52.0131 68.6031 54.0159C68.6124 54.2797 68.6109 54.58 68.5863 54.905ZM71.7804 54.5048L73.3274 54.4505L73.2555 52.3998L71.7084 52.4541C71.1688 52.473 70.8504 52.6403 70.8795 53.4677C70.9081 54.2832 71.2407 54.5237 71.7804 54.5048ZM69.7187 57.687L71.235 55.3885C70.3206 55.3365 69.7675 54.9717 69.7162 53.5086C69.6552 51.7696 70.4507 51.5136 71.6739 51.4707L74.3723 51.376L74.5877 57.5162L73.4364 57.5566L73.3586 55.338L72.4351 55.3704L71.0979 57.6386L69.7187 57.687ZM77.8329 57.4023L77.652 52.2455L75.5053 52.3208L75.4708 51.3374L80.9155 51.1464L80.95 52.1298L78.8033 52.2051L78.9842 57.3619L77.8329 57.4023ZM83.03 53.5457L86.0162 53.441C86.024 53.3206 86.0202 53.2127 86.0164 53.1047C85.9827 52.1453 85.5636 51.8358 84.5802 51.8703C83.4889 51.9086 83.0466 52.3084 83.03 53.5457ZM87.1374 54.2541L83.0359 54.3981C83.0923 56.0051 83.7037 56.3198 85.0109 56.274C85.6465 56.2517 86.3644 56.1784 86.7568 56.0686C86.7568 56.0686 86.7892 56.992 86.7896 57.004C86.3728 57.1027 85.729 57.2334 85.0454 57.2574C82.527 57.3457 81.9498 56.2973 81.8766 54.2106C81.7824 51.5242 82.8076 50.972 84.5466 50.9109C86.0816 50.8571 87.0839 51.3622 87.1542 53.365C87.1635 53.6289 87.162 53.9291 87.1374 54.2541ZM93.6202 56.8484L92.4689 56.8888L92.288 51.732L90.1892 51.8056L89.8783 54.5782C89.7693 55.5787 89.3319 56.4586 88.647 57.131L87.8856 56.3052C88.3849 55.8194 88.6504 55.1737 88.7331 54.4503L89.1354 50.858L93.4047 50.7082L93.6202 56.8484ZM96.327 52.3828L97.7901 52.3314C100.081 52.2511 100.201 53.6157 100.228 54.3952L100.23 54.4552C100.258 55.2467 100.234 56.6164 97.9432 56.6967L95.3288 56.7885L95.1134 50.6483L96.2647 50.6079L96.327 52.3828ZM96.4456 55.7647L97.9087 55.7134C99.084 55.6721 99.0939 54.9273 99.0788 54.4956L99.0767 54.4356C99.0619 54.0159 98.9999 53.2736 97.8246 53.3148L96.3615 53.3662L96.4456 55.7647ZM105.504 56.4315L105.412 53.8171L102.654 53.9139L102.746 56.5282L101.595 56.5686L101.379 50.4284L102.53 50.388L102.619 52.9185L105.377 52.8217L105.289 50.2912L106.44 50.2509L106.655 56.3911L105.504 56.4315ZM113.676 52.3624L113.726 53.7776C113.757 54.665 113.74 56.2506 110.982 56.3473C108.224 56.4441 108.096 54.8636 108.065 53.9762L108.015 52.561C107.984 51.6736 108.001 50.088 110.759 49.9912C113.517 49.8945 113.645 51.487 113.676 52.3624ZM112.574 53.8179L112.525 52.4028C112.444 51.1329 111.825 50.9385 110.793 50.9746C109.63 51.0155 109.126 51.3574 109.167 52.5206L109.216 53.9358C109.26 55.183 109.94 55.3993 110.947 55.3639C112.099 55.3235 112.615 54.9932 112.574 53.8179ZM119.568 50.8589C119.194 50.788 118.459 50.7177 117.823 50.74C116.888 50.7728 116.078 50.9573 116.121 52.2046L116.176 53.7636C116.259 55.0935 117.041 55.1381 117.988 55.1049C118.624 55.0826 119.316 54.9742 119.709 54.8644C119.709 54.8644 119.743 55.8238 119.743 55.8358C119.314 55.9349 118.574 56.0689 117.819 56.0955C115.156 56.1889 115.054 54.6435 115.025 53.804L114.97 52.245C114.941 51.4055 114.934 49.8568 117.597 49.7633C118.352 49.7368 119.1 49.8187 119.534 49.8875C119.534 49.8875 119.568 50.8469 119.568 50.8589ZM122.7 55.8281L122.519 50.6713L120.372 50.7466L120.338 49.7632L125.782 49.5722L125.817 50.5556L123.67 50.6309L123.851 55.7877L122.7 55.8281ZM128.187 53.7265L130.688 49.4001L131.852 49.3593L132.067 55.4995L130.916 55.5399L130.766 51.2585L128.194 55.6354L127.102 55.6737L126.887 49.5335L128.038 49.4931L128.187 53.7265ZM15.2624 73.086L14.3975 74.1009L14.4514 75.636L13.3001 75.6764L13.0846 69.5362L14.2359 69.4958L14.3516 72.7937L15.3243 71.4268L16.7064 69.4091L18.1095 69.3599L15.9932 72.3519L18.5169 75.4934L17.0658 75.5443L15.2624 73.086ZM24.5795 75.2806L23.4282 75.321L23.2473 70.1642L21.1486 70.2378L20.8376 73.0105C20.7286 74.0109 20.2912 74.8908 19.6064 75.5632L18.8449 74.7374C19.3442 74.2516 19.6097 73.6059 19.6924 72.8825L20.0947 69.2902L24.3641 69.1404L24.5795 75.2806ZM27.0829 71.5185L30.069 71.4138C30.0768 71.2934 30.073 71.1855 30.0692 71.0776C30.0356 70.1182 29.6165 69.8087 28.6331 69.8432C27.5417 69.8815 27.0995 70.2812 27.0829 71.5185ZM31.1902 72.227L27.0887 72.3709C27.1451 73.9779 27.7565 74.2926 29.0637 74.2468C29.6993 74.2245 30.4172 74.1513 30.8096 74.0414C30.8096 74.0414 30.842 74.9649 30.8424 74.9768C30.4256 75.0755 29.7818 75.2062 29.0982 75.2302C26.5798 75.3185 26.0027 74.2701 25.9295 72.1834C25.8352 69.4971 26.8605 68.9448 28.5994 68.8838C30.1345 68.8299 31.1368 69.3351 31.207 71.3378C31.2163 71.6017 31.2148 71.9019 31.1902 72.227ZM34.2414 74.9416L34.0605 69.7848L31.9138 69.8601L31.8793 68.8767L37.324 68.6857L37.3585 69.6691L35.2118 69.7444L35.3927 74.9012L34.2414 74.9416ZM43.9091 70.8201L43.9588 72.2352C43.9899 73.1227 43.9735 74.7082 41.2152 74.805C38.4569 74.9018 38.3294 73.3213 38.2982 72.4338L38.2486 71.0187C38.2175 70.1313 38.2339 68.5457 40.9922 68.4489C43.7505 68.3522 43.8784 69.9447 43.9091 70.8201ZM42.8075 72.2756L42.7578 70.8605C42.6772 69.5906 42.058 69.3961 41.0267 69.4323C39.8634 69.4731 39.3591 69.815 39.3999 70.9783L39.4495 72.3935C39.4933 73.6407 40.1733 73.857 41.1807 73.8216C42.332 73.7812 42.8487 73.4509 42.8075 72.2756ZM47.4926 71.9552L46.6277 72.9701L46.6815 74.5052L45.5302 74.5456L45.3148 68.4053L46.4661 68.3649L46.5818 71.6629L47.5545 70.296L48.9366 68.2783L50.3397 68.229L48.2233 71.2211L50.747 74.3625L49.2959 74.4134L47.4926 71.9552ZM59.8719 70.26L59.9216 71.6752C59.9527 72.5626 59.9363 74.1482 57.178 74.245C54.4197 74.3417 54.2922 72.7612 54.2611 71.8738L54.2114 70.4586C54.1803 69.5712 54.1967 67.9856 56.955 67.8889C59.7133 67.7921 59.8412 69.3846 59.8719 70.26ZM58.7703 71.7156L58.7207 70.3004C58.6401 69.0305 58.0209 68.8361 56.9895 68.8723C55.8262 68.9131 55.3219 69.255 55.3627 70.4183L55.4124 71.8334C55.4561 73.0806 56.1361 73.2969 57.1435 73.2616C58.2948 73.2212 58.8115 72.8908 58.7703 71.7156ZM64.0187 68.6256C63.6349 68.6391 62.8348 68.7632 62.4672 68.8962L62.6078 72.9017C62.9593 72.9975 63.5371 73.0372 64.1727 73.0149C65.264 72.9766 65.7101 72.6848 65.6676 71.4736L65.6179 70.0584C65.5796 68.9671 65.2539 68.5823 64.0187 68.6256ZM63.9482 67.6435C65.5672 67.5867 66.6994 68.0273 66.7692 70.018L66.8189 71.4332C66.8845 73.304 66.0181 73.9348 64.2072 73.9983C63.4277 74.0257 62.9682 73.9337 62.6414 73.8611L62.7281 76.3316L61.5768 76.372L61.2776 67.8453L62.1771 67.8137L62.2703 68.0746C62.7887 67.7922 63.7203 67.6515 63.9482 67.6435ZM72.2395 68.4453L69.3732 68.5458L69.5542 73.7027L68.4029 73.7431L68.1875 67.6028L72.205 67.4619L72.2395 68.4453ZM76.8392 69.8568L76.8299 69.593C76.7861 68.3458 75.9652 68.2185 75.0297 68.2513C74.3941 68.2736 73.7739 68.3914 73.4051 68.4884C73.4046 68.4764 73.371 67.517 73.371 67.517C73.7998 67.4179 74.4915 67.2856 75.2111 67.2603C77.8495 67.1678 77.9402 68.7255 77.9812 69.5526L78.1163 73.4022L77.2168 73.4338L77.1236 73.1729C76.4158 73.534 75.7215 73.5943 75.3258 73.6082C73.6348 73.6675 73.0087 72.9331 72.9742 71.9497L72.9653 71.6978C72.9266 70.5945 73.695 69.9071 74.9902 69.8617C75.5538 69.8419 76.2023 69.8432 76.8392 69.8568ZM76.9237 72.2674L76.8716 70.7803C76.2587 70.7658 75.7306 70.7723 75.2629 70.7887C74.3994 70.819 74.1002 71.1897 74.1208 71.7773C74.1377 72.257 74.4274 72.6431 75.4347 72.6078C75.7346 72.5973 76.3693 72.551 76.9237 72.2674ZM83.6844 73.2069L83.5927 70.5925L80.8344 70.6893L80.9261 73.3037L79.7748 73.3441L79.5594 67.2038L80.7107 67.1634L80.7994 69.6939L83.5577 69.5971L83.469 67.0667L84.6202 67.0263L84.8357 73.1665L83.6844 73.2069ZM87.6285 71.1593L90.1303 66.8329L91.2936 66.7921L91.509 72.9323L90.3577 72.9727L90.2075 68.6914L87.6354 73.0683L86.5441 73.1065L86.3286 66.9663L87.4799 66.9259L87.6285 71.1593ZM95.0784 70.0574L93.6992 70.1058L93.6672 69.1944L95.0824 69.1447C95.67 69.1241 95.9572 68.7538 95.9446 68.394C95.9151 67.5545 95.265 67.5053 94.3895 67.536C94.2336 67.5415 93.5153 67.6027 92.8368 67.7706L92.804 66.8352C93.327 66.6848 94.1644 66.5953 94.3563 66.5886C95.9633 66.5322 97.0353 66.6267 97.0959 68.3536C97.1123 68.8213 96.8876 69.2615 96.4304 69.5777C97.0769 69.8672 97.322 70.3509 97.3422 70.9266C97.4024 72.6415 96.3058 72.8721 94.7228 72.9277C94.375 72.9399 93.569 72.8961 92.7836 72.7555L92.7495 71.7841C93.6081 71.9581 94.3769 71.9672 94.6887 71.9563C95.5522 71.926 96.2208 71.8184 96.1909 70.967C96.1733 70.4633 95.8579 70.0301 95.0784 70.0574ZM101.765 71.816L99.9637 68.3851L99.7769 72.6423L98.6376 72.6822L98.9019 66.5252L100.149 66.4814L102.167 70.277L103.915 66.3493L105.162 66.3055L105.857 72.4289L104.718 72.4689L104.233 68.2353L102.689 71.7836L101.765 71.816ZM110.779 68.666L110.77 68.4022C110.726 67.155 109.905 67.0277 108.97 67.0605C108.334 67.0828 107.714 67.2006 107.345 67.2976C107.345 67.2856 107.311 66.3262 107.311 66.3262C107.74 66.2271 108.432 66.0948 109.151 66.0695C111.79 65.9769 111.88 67.5347 111.921 68.3618L112.056 72.2114L111.157 72.243L111.064 71.9821C110.356 72.3431 109.662 72.4035 109.266 72.4174C107.575 72.4767 106.949 71.7422 106.914 70.7588L106.905 70.507C106.867 69.4037 107.635 68.7163 108.93 68.6709C109.494 68.6511 110.142 68.6523 110.779 68.666ZM110.864 71.0765L110.812 69.5895C110.199 69.5749 109.671 69.5815 109.203 69.5979C108.339 69.6282 108.04 69.9989 108.061 70.5865C108.078 71.0662 108.367 71.4523 109.375 71.417C109.675 71.4064 110.309 71.3602 110.864 71.0765Z" fill="#041C32"/>
<path d="M123.575 170.083L123.63 167.9C123.659 166.748 123.785 164.627 127.384 164.717C128.367 164.742 129.048 164.891 129.633 165.014L129.608 166.022C129.118 165.925 128.414 165.763 127.466 165.74C124.899 165.675 124.831 166.922 124.806 167.929L124.751 170.113C124.727 171.06 124.73 172.381 127.189 172.443C128.197 172.468 128.932 172.343 129.45 172.272L129.425 173.267C128.835 173.36 128.147 173.487 127.163 173.462C123.565 173.372 123.546 171.235 123.575 170.083ZM136.303 169.803L136.267 171.219C136.245 172.107 136.133 173.688 133.374 173.619C130.615 173.549 130.582 171.964 130.605 171.076L130.64 169.661C130.663 168.773 130.775 167.191 133.534 167.261C136.293 167.33 136.325 168.928 136.303 169.803ZM135.115 171.19L135.151 169.774C135.147 168.502 134.541 168.271 133.509 168.245C132.345 168.215 131.821 168.526 131.792 169.69L131.756 171.105C131.725 172.353 132.391 172.61 133.398 172.635C134.55 172.664 135.086 172.366 135.115 171.19ZM139.873 171.274L139.813 171.272L138.169 173.632L136.825 173.598L139.197 170.452L137.172 167.461L138.515 167.494L139.864 169.713L139.9 169.714L141.359 167.566L142.702 167.6L140.529 170.486L142.739 173.747L141.396 173.713L139.873 171.274ZM146.609 168.574C146.225 168.565 145.419 168.641 145.044 168.751L144.943 172.758C145.288 172.875 145.862 172.949 146.498 172.965C147.59 172.993 148.053 172.728 148.083 171.517L148.119 170.101C148.146 169.009 147.844 168.606 146.609 168.574ZM146.597 167.59C148.217 167.631 149.32 168.139 149.27 170.13L149.235 171.546C149.188 173.417 148.285 173.994 146.473 173.949C145.694 173.929 145.24 173.81 144.919 173.718L144.856 176.189L143.705 176.16L143.92 167.63L144.819 167.653L144.897 167.919C145.431 167.669 146.37 167.584 146.597 167.59ZM154.306 170.449L154.313 170.185C154.344 168.937 153.532 168.761 152.597 168.737C151.961 168.721 151.335 168.802 150.961 168.876C150.961 168.864 150.985 167.904 150.985 167.904C151.419 167.831 152.117 167.741 152.837 167.759C155.476 167.825 155.473 169.386 155.464 170.214L155.367 174.065L154.468 174.042L154.39 173.776C153.662 174.094 152.965 174.112 152.569 174.102C150.878 174.06 150.297 173.289 150.322 172.305L150.328 172.053C150.356 170.95 151.164 170.31 152.46 170.342C153.024 170.357 153.671 170.397 154.306 170.449ZM154.245 172.86L154.283 171.373C153.672 171.321 153.144 171.296 152.676 171.284C151.813 171.262 151.492 171.614 151.477 172.202C151.465 172.682 151.731 173.085 152.738 173.11C153.038 173.118 153.675 173.11 154.245 172.86ZM160.937 174.205L161.003 171.59L158.244 171.52L158.178 174.136L157.026 174.107L157.181 167.964L158.333 167.993L158.269 170.525L161.028 170.594L161.092 168.063L162.243 168.092L162.089 174.234L160.937 174.205ZM165.675 171.215L167.223 171.254L167.274 169.203L165.727 169.164C165.187 169.15 164.859 169.298 164.838 170.126C164.818 170.942 165.135 171.202 165.675 171.215ZM163.426 174.268L165.078 172.065C164.168 171.958 163.638 171.56 163.675 170.097C163.719 168.357 164.528 168.149 165.752 168.18L168.451 168.248L168.296 174.39L167.145 174.361L167.2 172.142L166.277 172.119L164.805 174.302L163.426 174.268ZM171.011 170.786L173.998 170.861C174.013 170.741 174.016 170.633 174.019 170.525C174.043 169.565 173.643 169.231 172.659 169.207C171.568 169.179 171.102 169.551 171.011 170.786ZM175.068 171.74L170.966 171.637C170.925 173.244 171.516 173.595 172.824 173.628C173.46 173.644 174.181 173.614 174.579 173.528C174.579 173.528 174.556 174.452 174.556 174.464C174.134 174.537 173.483 174.629 172.799 174.612C170.28 174.548 169.767 173.467 169.82 171.38C169.887 168.693 170.944 168.203 172.683 168.247C174.219 168.286 175.189 168.85 175.139 170.854C175.132 171.117 175.112 171.417 175.068 171.74ZM177.95 174.633L178.08 169.475L175.933 169.421L175.958 168.437L181.404 168.575L181.379 169.558L179.232 169.504L179.102 174.663L177.95 174.633ZM126.08 189.332L123.2 189.26L123.355 183.118L126.102 183.187C127.062 183.211 127.922 183.365 127.885 184.852L127.881 185.008C127.868 185.536 127.606 185.914 127.313 186.122C127.74 186.325 128.089 186.766 128.072 187.438L128.065 187.702C127.978 189.248 126.967 189.355 126.08 189.332ZM124.377 188.305L126.104 188.348C126.464 188.358 126.862 188.296 126.914 187.649L126.92 187.409C126.938 186.713 126.472 186.617 126.112 186.608L124.421 186.566L124.377 188.305ZM124.482 184.13L124.444 185.63L126.04 185.67C126.376 185.678 126.715 185.567 126.729 184.979L126.733 184.823C126.748 184.247 126.437 184.18 126.078 184.17L124.482 184.13ZM130.656 187.539L133.414 183.371L134.577 183.4L134.423 189.542L133.271 189.513L133.379 185.231L130.548 189.445L129.456 189.417L129.611 183.275L130.763 183.304L130.656 187.539ZM137.67 189.624L137.8 184.466L135.652 184.412L135.677 183.428L141.123 183.565L141.099 184.549L138.951 184.495L138.821 189.653L137.67 189.624ZM145.621 186.235L145.627 185.971C145.659 184.724 144.847 184.547 143.911 184.524C143.275 184.508 142.649 184.588 142.275 184.662C142.275 184.65 142.3 183.691 142.3 183.691C142.734 183.618 143.432 183.527 144.152 183.545C146.791 183.612 146.788 185.172 146.779 186L146.682 189.851L145.782 189.828L145.705 189.562C144.977 189.88 144.28 189.899 143.884 189.889C142.193 189.846 141.612 189.075 141.637 188.091L141.643 187.84C141.671 186.736 142.479 186.096 143.775 186.129C144.339 186.143 144.986 186.183 145.621 186.235ZM145.56 188.646L145.597 187.159C144.986 187.107 144.459 187.082 143.991 187.07C143.127 187.049 142.806 187.401 142.792 187.989C142.779 188.468 143.045 188.871 144.053 188.897C144.353 188.904 144.989 188.896 145.56 188.646ZM151.323 189.212L149.731 185.679L149.289 189.917L148.149 189.888L148.784 183.758L150.031 183.789L151.817 187.7L153.798 183.884L155.046 183.916L155.371 190.07L154.231 190.041L154.002 185.786L152.247 189.235L151.323 189.212ZM158.081 188.23L160.839 184.062L162.002 184.091L161.848 190.233L160.696 190.204L160.804 185.921L157.973 190.135L156.881 190.108L157.036 183.966L158.188 183.995L158.081 188.23ZM167.458 190.374L167.524 187.759L164.765 187.69L164.699 190.305L163.547 190.276L163.702 184.134L164.853 184.163L164.79 186.694L167.549 186.763L167.612 184.232L168.764 184.261L168.609 190.403L167.458 190.374ZM176.112 190.592L176.267 184.45L177.419 184.479L177.264 190.621L176.112 190.592ZM171.58 186.109L173.043 186.146C175.335 186.203 175.372 187.573 175.353 188.352L175.351 188.412C175.331 189.204 175.225 190.57 172.934 190.512L170.318 190.446L170.473 184.304L171.625 184.333L171.58 186.109ZM171.495 189.492L172.958 189.529C174.134 189.558 174.189 188.815 174.2 188.383L174.201 188.323C174.212 187.904 174.194 187.159 173.019 187.129L171.555 187.092L171.495 189.492ZM188.734 190.91L187.498 190.879L186.641 188.205L183.306 188.121L182.328 190.749L181.092 190.718L184.366 182.265L185.889 182.304L188.734 190.91ZM185.07 183.376L183.692 187.098L186.307 187.164L185.118 183.377L185.07 183.376ZM193.765 189.128L196.523 184.96L197.686 184.99L197.532 191.132L196.38 191.103L196.488 186.82L193.657 191.034L192.565 191.007L192.72 184.865L193.872 184.894L193.765 189.128ZM202.003 188.063L202.058 185.88C202.087 184.728 202.212 182.607 205.811 182.698C206.795 182.722 207.475 182.871 208.061 182.994L208.035 184.002C207.545 183.906 206.841 183.744 205.894 183.72C203.326 183.655 203.259 184.902 203.234 185.91L203.179 188.093C203.155 189.041 203.158 190.361 205.617 190.423C206.624 190.448 207.36 190.323 207.878 190.252L207.853 191.248C207.262 191.341 206.575 191.468 205.591 191.443C201.992 191.352 201.974 189.215 202.003 188.063Z" fill="#041C32"/>
<path d="M88.952 276.998V269.486H85.172V276.998H83.996V268.466H90.128V276.998H88.952ZM94.6851 271.73C94.3011 271.73 93.4971 271.826 93.1251 271.946V275.954C93.4731 276.062 94.0491 276.122 94.6851 276.122C95.7771 276.122 96.2331 275.846 96.2331 274.634V273.218C96.2331 272.126 95.9211 271.73 94.6851 271.73ZM94.6491 270.746C96.2691 270.746 97.3851 271.226 97.3851 273.218V274.634C97.3851 276.506 96.4971 277.106 94.6851 277.106C93.9051 277.106 93.4491 276.998 93.1251 276.914V279.386H91.9731V270.854H92.8731L92.9571 271.118C93.4851 270.854 94.4211 270.746 94.6491 270.746ZM104.335 273.218V274.634C104.335 275.522 104.263 277.106 101.503 277.106C98.7432 277.106 98.6712 275.522 98.6712 274.634V273.218C98.6712 272.33 98.7432 270.746 101.503 270.746C104.263 270.746 104.335 272.342 104.335 273.218ZM103.183 274.634V273.218C103.147 271.946 102.535 271.73 101.503 271.73C100.339 271.73 99.8232 272.054 99.8232 273.218V274.634C99.8232 275.882 100.495 276.122 101.503 276.122C102.655 276.122 103.183 275.81 103.183 274.634ZM105.166 278.222V276.014H105.862C106.558 275.39 106.846 274.166 106.882 273.17V270.854H111.058V276.014H111.814V278.222H110.794V276.998H106.186V278.222H105.166ZM109.906 271.838H108.034V273.182C108.01 274.082 107.782 275.174 107.278 276.014H109.906V271.838ZM112.338 279.506V278.522C112.746 278.51 113.19 278.45 113.598 278.366C114.27 278.186 114.558 277.85 114.834 277.154L112.326 270.854H113.646L115.386 275.882H115.41L117.138 270.854H118.458L116.154 276.77C115.638 278.27 115.398 278.918 113.886 279.314C113.37 279.434 112.83 279.494 112.338 279.506ZM121.552 274.478L120.652 275.462V276.998H119.5V270.854H120.652V274.154L121.672 272.822L123.124 270.854H124.528L122.308 273.77L124.72 276.998H123.268L121.552 274.478ZM127.283 276.998V271.838H125.135V270.854H130.583V271.838H128.435V276.998H127.283ZM137.437 276.998V270.854H138.589V276.998H137.437ZM132.793 272.63H134.257C136.549 272.63 136.621 273.998 136.621 274.778V274.838C136.621 275.63 136.549 276.998 134.257 276.998H131.641V270.854H132.793V272.63ZM132.793 276.014H134.257C135.433 276.014 135.469 275.27 135.469 274.838V274.778C135.469 274.358 135.433 273.614 134.257 273.614H132.793V276.014ZM142.478 278.222V276.014H143.174C143.87 275.39 144.158 274.166 144.194 273.17V270.854H148.37V276.014H149.126V278.222H148.106V276.998H143.498V278.222H142.478ZM147.218 271.838H145.346V273.182C145.322 274.082 145.094 275.174 144.59 276.014H147.218V271.838ZM155.816 273.218V274.634C155.816 275.522 155.744 277.106 152.984 277.106C150.224 277.106 150.152 275.522 150.152 274.634V273.218C150.152 272.33 150.224 270.746 152.984 270.746C155.744 270.746 155.816 272.342 155.816 273.218ZM154.664 274.634V273.218C154.628 271.946 154.016 271.73 152.984 271.73C151.82 271.73 151.304 272.054 151.304 273.218V274.634C151.304 275.882 151.976 276.122 152.984 276.122C154.136 276.122 154.664 275.81 154.664 274.634ZM162.299 276.998H161.147V271.838H159.047L158.639 274.598C158.495 275.594 158.027 276.458 157.319 277.106L156.587 276.254C157.103 275.786 157.391 275.15 157.499 274.43L158.027 270.854H162.299V276.998ZM165.16 272.63H166.624C168.916 272.63 168.988 273.998 168.988 274.778V274.838C168.988 275.63 168.916 276.998 166.624 276.998H164.008V270.854H165.16V272.63ZM165.16 276.014H166.624C167.8 276.014 167.836 275.27 167.836 274.838V274.778C167.836 274.358 167.8 273.614 166.624 273.614H165.16V276.014ZM174.406 270.854V276.014H176.362V270.854H177.514V276.998H170.278V270.854H171.43V276.014H173.254V270.854H174.406ZM180.143 273.326H183.131C183.143 273.206 183.143 273.098 183.143 272.99C183.143 272.03 182.735 271.706 181.751 271.706C180.659 271.706 180.203 272.09 180.143 273.326ZM184.223 274.178H180.119C180.119 275.786 180.719 276.122 182.027 276.122C182.663 276.122 183.383 276.074 183.779 275.978C183.779 275.978 183.779 276.902 183.779 276.914C183.359 276.998 182.711 277.106 182.027 277.106C179.507 277.106 178.967 276.038 178.967 273.95C178.967 271.262 180.011 270.746 181.751 270.746C183.287 270.746 184.271 271.286 184.271 273.29C184.271 273.554 184.259 273.854 184.223 274.178ZM193.878 273.218V274.634C193.878 275.522 193.806 277.106 191.046 277.106C188.286 277.106 188.214 275.522 188.214 274.634V273.218C188.214 272.33 188.286 270.746 191.046 270.746C193.806 270.746 193.878 272.342 193.878 273.218ZM192.726 274.634V273.218C192.69 271.946 192.078 271.73 191.046 271.73C189.882 271.73 189.366 272.054 189.366 273.218V274.634C189.366 275.882 190.038 276.122 191.046 276.122C192.198 276.122 192.726 275.81 192.726 274.634ZM199.82 271.922C199.448 271.838 198.716 271.742 198.08 271.742C197.144 271.742 196.328 271.898 196.328 273.146V274.706C196.364 276.038 197.144 276.11 198.092 276.11C198.728 276.11 199.424 276.026 199.82 275.93C199.82 275.93 199.82 276.89 199.82 276.902C199.388 276.986 198.644 277.094 197.888 277.094C195.224 277.094 195.176 275.546 195.176 274.706V273.146C195.176 272.306 195.224 270.758 197.888 270.758C198.644 270.758 199.388 270.866 199.82 270.95C199.82 270.95 199.82 271.91 199.82 271.922ZM202.775 276.998V271.838H200.627V270.854H206.075V271.838H203.927V276.998H202.775ZM210.638 273.41V273.146C210.638 271.898 209.822 271.742 208.886 271.742C208.25 271.742 207.626 271.838 207.254 271.922C207.254 271.91 207.254 270.95 207.254 270.95C207.686 270.866 208.382 270.758 209.102 270.758C211.742 270.758 211.778 272.318 211.79 273.146V276.998H210.89L210.806 276.734C210.086 277.07 209.39 277.106 208.994 277.106C207.302 277.106 206.702 276.35 206.702 275.366V275.114C206.702 274.01 207.494 273.35 208.79 273.35C209.354 273.35 210.002 273.374 210.638 273.41ZM210.638 275.822V274.334C210.026 274.298 209.498 274.286 209.03 274.286C208.166 274.286 207.854 274.646 207.854 275.234C207.854 275.714 208.13 276.11 209.138 276.11C209.438 276.11 210.074 276.086 210.638 275.822ZM216.198 274.394V274.382H214.602V276.998H213.45V270.854H214.602V273.386H216.198V273.206C216.198 272.33 216.27 270.746 218.814 270.746C221.37 270.746 221.442 272.33 221.442 273.206V274.646C221.442 275.522 221.37 277.106 218.814 277.106C216.27 277.106 216.198 275.522 216.198 274.646V274.394ZM217.35 273.206V274.646C217.35 275.174 217.386 276.122 218.814 276.122C220.254 276.122 220.29 275.174 220.29 274.646V273.206C220.29 272.678 220.254 271.73 218.814 271.73C217.386 271.73 217.35 272.678 217.35 273.206ZM224.431 276.998V271.838H222.283V270.854H227.731V271.838H225.583V276.998H224.431ZM233.242 271.922C232.87 271.838 232.138 271.742 231.502 271.742C230.566 271.742 229.75 271.898 229.75 273.146V274.706C229.786 276.038 230.566 276.11 231.514 276.11C232.15 276.11 232.846 276.026 233.242 275.93C233.242 275.93 233.242 276.89 233.242 276.902C232.81 276.986 232.066 277.094 231.31 277.094C228.646 277.094 228.598 275.546 228.598 274.706V273.146C228.598 272.306 228.646 270.758 231.31 270.758C232.066 270.758 232.81 270.866 233.242 270.95C233.242 270.95 233.242 271.91 233.242 271.922ZM236.449 273.89H237.997V271.838H236.449C235.909 271.838 235.585 271.994 235.585 272.822C235.585 273.638 235.909 273.89 236.449 273.89ZM234.277 276.998L235.873 274.754C234.961 274.67 234.421 274.286 234.421 272.822C234.421 271.082 235.225 270.854 236.449 270.854H239.149V276.998H237.997V274.778H237.073L235.657 276.998H234.277ZM88.304 287.922C87.932 287.838 87.2 287.742 86.564 287.742C85.628 287.742 84.812 287.898 84.812 289.146V290.706C84.848 292.038 85.628 292.11 86.576 292.11C87.212 292.11 87.908 292.026 88.304 291.93C88.304 291.93 88.304 292.89 88.304 292.902C87.872 292.986 87.128 293.094 86.372 293.094C83.708 293.094 83.66 291.546 83.66 290.706V289.146C83.66 288.306 83.708 286.758 86.372 286.758C87.128 286.758 87.872 286.866 88.304 286.95C88.304 286.95 88.304 287.91 88.304 287.922ZM92.5914 292.998H89.7114V286.854H92.4594C93.4194 286.854 94.2834 286.986 94.2834 288.474V288.63C94.2834 289.158 94.0314 289.542 93.7434 289.758C94.1754 289.95 94.5354 290.382 94.5354 291.054V291.318C94.4874 292.866 93.4794 292.998 92.5914 292.998ZM90.8634 292.014H92.5914C92.9514 292.014 93.3474 291.942 93.3834 291.294V291.054C93.3834 290.358 92.9154 290.274 92.5554 290.274H90.8634V292.014ZM90.8634 287.838V289.338H92.4594C92.7954 289.338 93.1314 289.218 93.1314 288.63V288.474C93.1314 287.898 92.8194 287.838 92.4594 287.838H90.8634ZM96.8932 289.326H99.8812C99.8932 289.206 99.8932 289.098 99.8932 288.99C99.8932 288.03 99.4852 287.706 98.5012 287.706C97.4092 287.706 96.9532 288.09 96.8932 289.326ZM100.973 290.178H96.8692C96.8692 291.786 97.4692 292.122 98.7772 292.122C99.4132 292.122 100.133 292.074 100.529 291.978C100.529 291.978 100.529 292.902 100.529 292.914C100.109 292.998 99.4612 293.106 98.7772 293.106C96.2572 293.106 95.7172 292.038 95.7172 289.95C95.7172 287.262 96.7612 286.746 98.5012 286.746C100.037 286.746 101.021 287.286 101.021 289.29C101.021 289.554 101.009 289.854 100.973 290.178ZM106.699 290.322V292.998H105.595V290.322C105.211 290.334 104.503 290.334 104.143 290.418C103.687 290.55 103.543 290.91 103.435 291.282L103.051 292.998H101.899L102.199 291.618C102.415 290.73 102.451 289.914 104.035 289.518L102.043 286.854H103.423L105.187 289.398H105.595V286.854H106.699V289.398H107.107L108.871 286.854H110.251L108.259 289.518C109.843 289.914 109.879 290.73 110.095 291.618L110.395 292.998H109.243L108.859 291.282C108.751 290.91 108.607 290.55 108.151 290.418C107.791 290.334 107.083 290.334 106.699 290.322ZM112.766 291.09L115.418 286.854H116.582V292.998H115.43V288.714L112.706 292.998H111.614V286.854H112.766V291.09ZM121.246 292.242L119.566 288.75L119.23 292.998H118.09L118.57 286.854H119.818L121.702 290.718L123.586 286.854H124.834L125.314 292.998H124.174L123.838 288.75L122.17 292.242H121.246ZM127.977 291.09L130.629 286.854H131.793V292.998H130.641V288.714L127.917 292.998H126.825V286.854H127.977V291.09ZM137.445 291.09L140.097 286.854H141.261V292.998H140.109V288.714L137.385 292.998H136.293V286.854H137.445V291.09ZM149.638 292.998V287.838H146.914V292.998H145.762V286.854H150.79V292.998H149.638ZM157.937 289.218V290.634C157.937 291.522 157.865 293.106 155.105 293.106C152.345 293.106 152.273 291.522 152.273 290.634V289.218C152.273 288.33 152.345 286.746 155.105 286.746C157.865 286.746 157.937 288.342 157.937 289.218ZM156.785 290.634V289.218C156.749 287.946 156.137 287.73 155.105 287.73C153.941 287.73 153.425 288.054 153.425 289.218V290.634C153.425 291.882 154.097 292.122 155.105 292.122C156.257 292.122 156.785 291.81 156.785 290.634ZM164.42 292.998H163.268V287.838H161.168L160.76 290.598C160.616 291.594 160.148 292.458 159.44 293.106L158.708 292.254C159.224 291.786 159.512 291.15 159.62 290.43L160.148 286.854H164.42V292.998ZM167.053 289.326H170.041C170.053 289.206 170.053 289.098 170.053 288.99C170.053 288.03 169.645 287.706 168.661 287.706C167.569 287.706 167.113 288.09 167.053 289.326ZM171.133 290.178H167.029C167.029 291.786 167.629 292.122 168.937 292.122C169.573 292.122 170.293 292.074 170.689 291.978C170.689 291.978 170.689 292.902 170.689 292.914C170.269 292.998 169.621 293.106 168.937 293.106C166.417 293.106 165.877 292.038 165.877 289.95C165.877 287.262 166.921 286.746 168.661 286.746C170.197 286.746 171.181 287.286 171.181 289.29C171.181 289.554 171.169 289.854 171.133 290.178ZM174.508 290.25H173.128V289.338H174.544C175.132 289.338 175.432 288.978 175.432 288.618C175.432 287.778 174.784 287.706 173.908 287.706C173.752 287.706 173.032 287.742 172.348 287.886V286.95C172.876 286.818 173.716 286.758 173.908 286.758C175.516 286.758 176.584 286.89 176.584 288.618C176.584 289.086 176.344 289.518 175.876 289.818C176.512 290.13 176.74 290.622 176.74 291.198C176.74 292.914 175.636 293.106 174.052 293.106C173.704 293.106 172.9 293.034 172.12 292.866V291.894C172.972 292.098 173.74 292.134 174.052 292.134C174.916 292.134 175.588 292.05 175.588 291.198C175.588 290.694 175.288 290.25 174.508 290.25ZM182.077 292.998V290.382H179.317V292.998H178.165V286.854H179.317V289.386H182.077V286.854H183.229V292.998H182.077ZM190.734 292.998V286.854H191.886V292.998H190.734ZM186.09 288.63H187.554C189.846 288.63 189.918 289.998 189.918 290.778V290.838C189.918 291.63 189.846 292.998 187.554 292.998H184.938V286.854H186.09V288.63ZM186.09 292.014H187.554C188.73 292.014 188.766 291.27 188.766 290.838V290.778C188.766 290.358 188.73 289.614 187.554 289.614H186.09V292.014ZM196.55 292.242L194.87 288.75L194.534 292.998H193.394L193.874 286.854H195.122L197.006 290.718L198.89 286.854H200.138L200.618 292.998H199.478L199.142 288.75L197.474 292.242H196.55ZM203.281 291.09L205.933 286.854H207.097V292.998H205.945V288.714L203.221 292.998H202.129V286.854H203.281V291.09Z" fill="#041C32"/>
<path d="M87.96 311.998V305.738H84.81V311.998H83.83V304.888H88.94V311.998H87.96ZM92.7376 307.608C92.4176 307.608 91.7476 307.688 91.4376 307.788V311.128C91.7276 311.218 92.2076 311.268 92.7376 311.268C93.6476 311.268 94.0276 311.038 94.0276 310.028V308.848C94.0276 307.938 93.7676 307.608 92.7376 307.608ZM92.7076 306.788C94.0576 306.788 94.9876 307.188 94.9876 308.848V310.028C94.9876 311.588 94.2476 312.088 92.7376 312.088C92.0876 312.088 91.7076 311.998 91.4376 311.928V313.988H90.4776V306.878H91.2276L91.2976 307.098C91.7376 306.878 92.5176 306.788 92.7076 306.788ZM100.779 308.848V310.028C100.779 310.768 100.719 312.088 98.4193 312.088C96.1193 312.088 96.0593 310.768 96.0593 310.028V308.848C96.0593 308.108 96.1193 306.788 98.4193 306.788C100.719 306.788 100.779 308.118 100.779 308.848ZM99.8193 310.028V308.848C99.7893 307.788 99.2793 307.608 98.4193 307.608C97.4493 307.608 97.0193 307.878 97.0193 308.848V310.028C97.0193 311.068 97.5793 311.268 98.4193 311.268C99.3793 311.268 99.8193 311.008 99.8193 310.028ZM103.271 311.998V307.698H101.481V306.878H106.021V307.698H104.231V311.998H103.271ZM107.712 308.938H110.202C110.212 308.838 110.212 308.748 110.212 308.658C110.212 307.858 109.872 307.588 109.052 307.588C108.142 307.588 107.762 307.908 107.712 308.938ZM111.112 309.648H107.692C107.692 310.988 108.192 311.268 109.282 311.268C109.812 311.268 110.412 311.228 110.742 311.148C110.742 311.148 110.742 311.918 110.742 311.928C110.392 311.998 109.852 312.088 109.282 312.088C107.182 312.088 106.732 311.198 106.732 309.458C106.732 307.218 107.602 306.788 109.052 306.788C110.332 306.788 111.152 307.238 111.152 308.908C111.152 309.128 111.142 309.378 111.112 309.648ZM115.994 307.768C115.684 307.698 115.074 307.618 114.544 307.618C113.764 307.618 113.084 307.748 113.084 308.788V310.088C113.114 311.198 113.764 311.258 114.554 311.258C115.084 311.258 115.664 311.188 115.994 311.108C115.994 311.108 115.994 311.908 115.994 311.918C115.634 311.988 115.014 312.078 114.384 312.078C112.164 312.078 112.124 310.788 112.124 310.088V308.788C112.124 308.088 112.164 306.798 114.384 306.798C115.014 306.798 115.634 306.888 115.994 306.958C115.994 306.958 115.994 307.758 115.994 307.768ZM118.457 311.998V307.698H116.667V306.878H121.207V307.698H119.417V311.998H118.457ZM123.088 310.408L125.298 306.878H126.268V311.998H125.308V308.428L123.038 311.998H122.128V306.878H123.088V310.408ZM129.945 307.608C129.625 307.608 128.955 307.688 128.645 307.788V311.128C128.935 311.218 129.415 311.268 129.945 311.268C130.855 311.268 131.235 311.038 131.235 310.028V308.848C131.235 307.938 130.975 307.608 129.945 307.608ZM129.915 306.788C131.265 306.788 132.195 307.188 132.195 308.848V310.028C132.195 311.588 131.455 312.088 129.945 312.088C129.295 312.088 128.915 311.998 128.645 311.928V313.988H127.685V306.878H128.435L128.505 307.098C128.945 306.878 129.725 306.788 129.915 306.788ZM137.986 308.848V310.028C137.986 310.768 137.926 312.088 135.626 312.088C133.326 312.088 133.266 310.768 133.266 310.028V308.848C133.266 308.108 133.326 306.788 135.626 306.788C137.926 306.788 137.986 308.118 137.986 308.848ZM137.026 310.028V308.848C136.996 307.788 136.486 307.608 135.626 307.608C134.656 307.608 134.226 307.878 134.226 308.848V310.028C134.226 311.068 134.786 311.268 135.626 311.268C136.586 311.268 137.026 311.008 137.026 310.028ZM141.628 311.998H139.228V306.878H141.518C142.318 306.878 143.038 306.988 143.038 308.228V308.358C143.038 308.798 142.828 309.118 142.588 309.298C142.948 309.458 143.248 309.818 143.248 310.378V310.598C143.208 311.888 142.368 311.998 141.628 311.998ZM140.188 311.178H141.628C141.928 311.178 142.258 311.118 142.288 310.578V310.378C142.288 309.798 141.898 309.728 141.598 309.728H140.188V311.178ZM140.188 307.698V308.948H141.518C141.798 308.948 142.078 308.848 142.078 308.358V308.228C142.078 307.748 141.818 307.698 141.518 307.698H140.188ZM147.392 309.008V308.788C147.392 307.748 146.712 307.618 145.932 307.618C145.402 307.618 144.882 307.698 144.572 307.768C144.572 307.758 144.572 306.958 144.572 306.958C144.932 306.888 145.512 306.798 146.112 306.798C148.312 306.798 148.342 308.098 148.352 308.788V311.998H147.602L147.532 311.778C146.932 312.058 146.352 312.088 146.022 312.088C144.612 312.088 144.112 311.458 144.112 310.638V310.428C144.112 309.508 144.772 308.958 145.852 308.958C146.322 308.958 146.862 308.978 147.392 309.008ZM147.392 311.018V309.778C146.882 309.748 146.442 309.738 146.052 309.738C145.332 309.738 145.072 310.038 145.072 310.528C145.072 310.928 145.302 311.258 146.142 311.258C146.392 311.258 146.922 311.238 147.392 311.018ZM152.995 311.998V309.818H150.695V311.998H149.735V306.878H150.695V308.988H152.995V306.878H153.955V311.998H152.995ZM159.92 308.848V310.028C159.92 310.768 159.86 312.088 157.56 312.088C155.26 312.088 155.2 310.768 155.2 310.028V308.848C155.2 308.108 155.26 306.788 157.56 306.788C159.86 306.788 159.92 308.118 159.92 308.848ZM158.96 310.028V308.848C158.93 307.788 158.42 307.608 157.56 307.608C156.59 307.608 156.16 307.878 156.16 308.848V310.028C156.16 311.068 156.72 311.268 157.56 311.268C158.52 311.268 158.96 311.008 158.96 310.028ZM166.755 311.998V309.818H164.455V311.998H163.495V306.878H164.455V308.988H166.755V306.878H167.715V311.998H166.755ZM169.91 308.938H172.4C172.41 308.838 172.41 308.748 172.41 308.658C172.41 307.858 172.07 307.588 171.25 307.588C170.34 307.588 169.96 307.908 169.91 308.938ZM173.31 309.648H169.89C169.89 310.988 170.39 311.268 171.48 311.268C172.01 311.268 172.61 311.228 172.94 311.148C172.94 311.148 172.94 311.918 172.94 311.928C172.59 311.998 172.05 312.088 171.48 312.088C169.38 312.088 168.93 311.198 168.93 309.458C168.93 307.218 169.8 306.788 171.25 306.788C172.53 306.788 173.35 307.238 173.35 308.908C173.35 309.128 173.34 309.378 173.31 309.648ZM176.121 309.708H174.971V308.948H176.151C176.641 308.948 176.891 308.648 176.891 308.348C176.891 307.648 176.351 307.588 175.621 307.588C175.491 307.588 174.891 307.618 174.321 307.738V306.958C174.761 306.848 175.461 306.798 175.621 306.798C176.961 306.798 177.851 306.908 177.851 308.348C177.851 308.738 177.651 309.098 177.261 309.348C177.791 309.608 177.981 310.018 177.981 310.498C177.981 311.928 177.061 312.088 175.741 312.088C175.451 312.088 174.781 312.028 174.131 311.888V311.078C174.841 311.248 175.481 311.278 175.741 311.278C176.461 311.278 177.021 311.208 177.021 310.498C177.021 310.078 176.771 309.708 176.121 309.708ZM182.119 309.008V308.788C182.119 307.748 181.439 307.618 180.659 307.618C180.129 307.618 179.609 307.698 179.299 307.768C179.299 307.758 179.299 306.958 179.299 306.958C179.659 306.888 180.239 306.798 180.839 306.798C183.039 306.798 183.069 308.098 183.079 308.788V311.998H182.329L182.259 311.778C181.659 312.058 181.079 312.088 180.749 312.088C179.339 312.088 178.839 311.458 178.839 310.638V310.428C178.839 309.508 179.499 308.958 180.579 308.958C181.049 308.958 181.589 308.978 182.119 309.008ZM182.119 311.018V309.778C181.609 309.748 181.169 309.738 180.779 309.738C180.059 309.738 179.799 310.038 179.799 310.528C179.799 310.928 180.029 311.258 180.869 311.258C181.119 311.258 181.649 311.238 182.119 311.018ZM186.862 311.998H184.462V306.878H186.752C187.552 306.878 188.272 306.988 188.272 308.228V308.358C188.272 308.798 188.062 309.118 187.822 309.298C188.182 309.458 188.482 309.818 188.482 310.378V310.598C188.442 311.888 187.602 311.998 186.862 311.998ZM185.422 311.178H186.862C187.162 311.178 187.492 311.118 187.522 310.578V310.378C187.522 309.798 187.132 309.728 186.832 309.728H185.422V311.178ZM185.422 307.698V308.948H186.752C187.032 308.948 187.312 308.848 187.312 308.358V308.228C187.312 307.748 187.052 307.698 186.752 307.698H185.422ZM190.637 310.408L192.847 306.878H193.817V311.998H192.857V308.428L190.587 311.998H189.677V306.878H190.637V310.408ZM198.943 307.768C198.633 307.698 198.023 307.618 197.493 307.618C196.713 307.618 196.033 307.748 196.033 308.788V310.088C196.063 311.198 196.713 311.258 197.503 311.258C198.033 311.258 198.613 311.188 198.943 311.108C198.943 311.108 198.943 311.908 198.943 311.918C198.583 311.988 197.963 312.078 197.333 312.078C195.113 312.078 195.073 310.788 195.073 310.088V308.788C195.073 308.088 195.113 306.798 197.333 306.798C197.963 306.798 198.583 306.888 198.943 306.958C198.943 306.958 198.943 307.758 198.943 307.768ZM201.076 310.408L203.286 306.878H204.256V311.998H203.296V308.428L201.026 311.998H200.116V306.878H201.076V310.408ZM208.143 311.368L206.743 308.458L206.463 311.998H205.513L205.913 306.878H206.953L208.523 310.098L210.093 306.878H211.133L211.533 311.998H210.583L210.303 308.458L208.913 311.368H208.143ZM217.332 308.848V310.028C217.332 310.768 217.272 312.088 214.972 312.088C212.672 312.088 212.612 310.768 212.612 310.028V308.848C212.612 308.108 212.672 306.788 214.972 306.788C217.272 306.788 217.332 308.118 217.332 308.848ZM216.372 310.028V308.848C216.342 307.788 215.832 307.608 214.972 307.608C214.002 307.608 213.572 307.878 213.572 308.848V310.028C213.572 311.068 214.132 311.268 214.972 311.268C215.932 311.268 216.372 311.008 216.372 310.028ZM219.533 310.408L221.743 306.878H222.713V311.998H221.753V308.428L219.483 311.998H218.573V306.878H219.533V310.408ZM222.043 304.898C221.993 305.688 221.523 306.138 220.643 306.138C219.773 306.138 219.303 305.688 219.253 304.898L219.953 304.858C219.973 305.238 220.233 305.438 220.643 305.438C221.063 305.438 221.323 305.238 221.343 304.858L222.043 304.898ZM84.67 323.408L86.88 319.878H87.85V324.998H86.89V321.428L84.62 324.998H83.71V319.878H84.67V323.408ZM92.9766 320.768C92.6666 320.698 92.0566 320.618 91.5266 320.618C90.7466 320.618 90.0666 320.748 90.0666 321.788V323.088C90.0966 324.198 90.7466 324.258 91.5366 324.258C92.0666 324.258 92.6466 324.188 92.9766 324.108C92.9766 324.108 92.9766 324.908 92.9766 324.918C92.6166 324.988 91.9966 325.078 91.3666 325.078C89.1466 325.078 89.1066 323.788 89.1066 323.088V321.788C89.1066 321.088 89.1466 319.798 91.3666 319.798C91.9966 319.798 92.6166 319.888 92.9766 319.958C92.9766 319.958 92.9766 320.758 92.9766 320.768ZM97.8595 320.768C97.5495 320.698 96.9395 320.618 96.4095 320.618C95.6295 320.618 94.9495 320.748 94.9495 321.788V323.088C94.9795 324.198 95.6295 324.258 96.4195 324.258C96.9495 324.258 97.5295 324.188 97.8595 324.108C97.8595 324.108 97.8595 324.908 97.8595 324.918C97.4995 324.988 96.8795 325.078 96.2495 325.078C94.0295 325.078 93.9895 323.788 93.9895 323.088V321.788C93.9895 321.088 94.0295 319.798 96.2495 319.798C96.8795 319.798 97.4995 319.888 97.8595 319.958C97.8595 319.958 97.8595 320.758 97.8595 320.768ZM103.242 324.998H102.282V320.698H100.532L100.192 322.998C100.072 323.828 99.6823 324.548 99.0923 325.088L98.4823 324.378C98.9123 323.988 99.1523 323.458 99.2423 322.858L99.6823 319.878H103.242V324.998ZM105.437 321.938H107.927C107.937 321.838 107.937 321.748 107.937 321.658C107.937 320.858 107.597 320.588 106.777 320.588C105.867 320.588 105.487 320.908 105.437 321.938ZM108.837 322.648H105.417C105.417 323.988 105.917 324.268 107.007 324.268C107.537 324.268 108.137 324.228 108.467 324.148C108.467 324.148 108.467 324.918 108.467 324.928C108.117 324.998 107.577 325.088 107.007 325.088C104.907 325.088 104.457 324.198 104.457 322.458C104.457 320.218 105.327 319.788 106.777 319.788C108.057 319.788 108.877 320.238 108.877 321.908C108.877 322.128 108.867 322.378 108.837 322.648ZM109.44 326.018V324.178H110.02C110.6 323.658 110.84 322.638 110.87 321.808V319.878H114.35V324.178H114.98V326.018H114.13V324.998H110.29V326.018H109.44ZM113.39 320.698H111.83V321.818C111.81 322.568 111.62 323.478 111.2 324.178H113.39V320.698ZM120.555 321.848V323.028C120.555 323.768 120.495 325.088 118.195 325.088C115.895 325.088 115.835 323.768 115.835 323.028V321.848C115.835 321.108 115.895 319.788 118.195 319.788C120.495 319.788 120.555 321.118 120.555 321.848ZM119.595 323.028V321.848C119.565 320.788 119.055 320.608 118.195 320.608C117.225 320.608 116.795 320.878 116.795 321.848V323.028C116.795 324.068 117.355 324.268 118.195 324.268C119.155 324.268 119.595 324.008 119.595 323.028ZM124.196 324.998H121.796V319.878H124.086C124.886 319.878 125.606 319.988 125.606 321.228V321.358C125.606 321.798 125.396 322.118 125.156 322.298C125.516 322.458 125.816 322.818 125.816 323.378V323.598C125.776 324.888 124.936 324.998 124.196 324.998ZM122.756 324.178H124.196C124.496 324.178 124.826 324.118 124.856 323.578V323.378C124.856 322.798 124.466 322.728 124.166 322.728H122.756V324.178ZM122.756 320.698V321.948H124.086C124.366 321.948 124.646 321.848 124.646 321.358V321.228C124.646 320.748 124.386 320.698 124.086 320.698H122.756ZM129.961 322.008V321.788C129.961 320.748 129.281 320.618 128.501 320.618C127.971 320.618 127.451 320.698 127.141 320.768C127.141 320.758 127.141 319.958 127.141 319.958C127.501 319.888 128.081 319.798 128.681 319.798C130.881 319.798 130.911 321.098 130.921 321.788V324.998H130.171L130.101 324.778C129.501 325.058 128.921 325.088 128.591 325.088C127.181 325.088 126.681 324.458 126.681 323.638V323.428C126.681 322.508 127.341 321.958 128.421 321.958C128.891 321.958 129.431 321.978 129.961 322.008ZM129.961 324.018V322.778C129.451 322.748 129.011 322.738 128.621 322.738C127.901 322.738 127.641 323.038 127.641 323.528C127.641 323.928 127.871 324.258 128.711 324.258C128.961 324.258 129.491 324.238 129.961 324.018ZM133.535 324.998V320.698H131.745V319.878H136.285V320.698H134.495V324.998H133.535ZM137.976 321.938H140.466C140.476 321.838 140.476 321.748 140.476 321.658C140.476 320.858 140.136 320.588 139.316 320.588C138.406 320.588 138.026 320.908 137.976 321.938ZM141.376 322.648H137.956C137.956 323.988 138.456 324.268 139.546 324.268C140.076 324.268 140.676 324.228 141.006 324.148C141.006 324.148 141.006 324.918 141.006 324.928C140.656 324.998 140.116 325.088 139.546 325.088C137.446 325.088 136.996 324.198 136.996 322.458C136.996 320.218 137.866 319.788 139.316 319.788C140.596 319.788 141.416 320.238 141.416 321.908C141.416 322.128 141.406 322.378 141.376 322.648ZM146.699 324.998H145.739V320.698H143.989L143.649 322.998C143.529 323.828 143.139 324.548 142.549 325.088L141.939 324.378C142.369 323.988 142.609 323.458 142.699 322.858L143.139 319.878H146.699V324.998ZM149.084 321.358H150.304C152.214 321.358 152.274 322.498 152.274 323.148V323.198C152.274 323.858 152.214 324.998 150.304 324.998H148.124V319.878H149.084V321.358ZM149.084 324.178H150.304C151.284 324.178 151.314 323.558 151.314 323.198V323.148C151.314 322.798 151.284 322.178 150.304 322.178H149.084V324.178ZM157.059 320.768C156.749 320.698 156.139 320.618 155.609 320.618C154.829 320.618 154.149 320.748 154.149 321.788V323.088C154.179 324.198 154.829 324.258 155.619 324.258C156.149 324.258 156.729 324.188 157.059 324.108C157.059 324.108 157.059 324.908 157.059 324.918C156.699 324.988 156.079 325.078 155.449 325.078C153.229 325.078 153.189 323.788 153.189 323.088V321.788C153.189 321.088 153.229 319.798 155.449 319.798C156.079 319.798 156.699 319.888 157.059 319.958C157.059 319.958 157.059 320.758 157.059 320.768ZM159.941 322.898L159.191 323.718V324.998H158.231V319.878H159.191V322.628L160.041 321.518L161.251 319.878H162.421L160.571 322.308L162.581 324.998H161.371L159.941 322.898ZM167.801 321.848V323.028C167.801 323.768 167.741 325.088 165.441 325.088C163.141 325.088 163.081 323.768 163.081 323.028V321.848C163.081 321.108 163.141 319.788 165.441 319.788C167.741 319.788 167.801 321.118 167.801 321.848ZM166.841 323.028V321.848C166.811 320.788 166.301 320.608 165.441 320.608C164.471 320.608 164.041 320.878 164.041 321.848V323.028C164.041 324.068 164.601 324.268 165.441 324.268C166.401 324.268 166.841 324.008 166.841 323.028ZM170.002 323.408L172.212 319.878H173.182V324.998H172.222V321.428L169.952 324.998H169.042V319.878H170.002V323.408ZM172.512 317.898C172.462 318.688 171.992 319.138 171.112 319.138C170.242 319.138 169.772 318.688 169.722 317.898L170.422 317.858C170.442 318.238 170.702 318.438 171.112 318.438C171.532 318.438 171.792 318.238 171.812 317.858L172.512 317.898ZM178.643 322.898L177.893 323.718V324.998H176.933V319.878H177.893V322.628L178.743 321.518L179.953 319.878H181.123L179.273 322.308L181.283 324.998H180.073L178.643 322.898ZM186.502 321.848V323.028C186.502 323.768 186.442 325.088 184.142 325.088C181.842 325.088 181.782 323.768 181.782 323.028V321.848C181.782 321.108 181.842 319.788 184.142 319.788C186.442 319.788 186.502 321.118 186.502 321.848ZM185.542 323.028V321.848C185.512 320.788 185.002 320.608 184.142 320.608C183.172 320.608 182.742 320.878 182.742 321.848V323.028C182.742 324.068 183.302 324.268 184.142 324.268C185.102 324.268 185.542 324.008 185.542 323.028ZM190.213 324.368L188.813 321.458L188.533 324.998H187.583L187.983 319.878H189.023L190.593 323.098L192.163 319.878H193.203L193.603 324.998H192.653L192.373 321.458L190.983 324.368H190.213ZM198.092 324.998V320.698H195.822V324.998H194.862V319.878H199.052V324.998H198.092ZM203.418 322.008V321.788C203.418 320.748 202.738 320.618 201.958 320.618C201.428 320.618 200.908 320.698 200.598 320.768C200.598 320.758 200.598 319.958 200.598 319.958C200.958 319.888 201.538 319.798 202.138 319.798C204.338 319.798 204.368 321.098 204.378 321.788V324.998H203.628L203.558 324.778C202.958 325.058 202.378 325.088 202.048 325.088C200.638 325.088 200.138 324.458 200.138 323.638V323.428C200.138 322.508 200.798 321.958 201.878 321.958C202.348 321.958 202.888 321.978 203.418 322.008ZM203.418 324.018V322.778C202.908 322.748 202.468 322.738 202.078 322.738C201.358 322.738 201.098 323.038 201.098 323.528C201.098 323.928 201.328 324.258 202.168 324.258C202.418 324.258 202.948 324.238 203.418 324.018ZM209.021 324.998V322.818H206.721V324.998H205.761V319.878H206.721V321.988H209.021V319.878H209.981V324.998H209.021ZM212.365 323.408L214.575 319.878H215.545V324.998H214.585V321.428L212.315 324.998H211.405V319.878H212.365V323.408ZM217.732 321.938H220.222C220.232 321.838 220.232 321.748 220.232 321.658C220.232 320.858 219.892 320.588 219.072 320.588C218.162 320.588 217.782 320.908 217.732 321.938ZM221.132 322.648H217.712C217.712 323.988 218.212 324.268 219.302 324.268C219.832 324.268 220.432 324.228 220.762 324.148C220.762 324.148 220.762 324.918 220.762 324.928C220.412 324.998 219.872 325.088 219.302 325.088C217.202 325.088 216.752 324.198 216.752 322.458C216.752 320.218 217.622 319.788 219.072 319.788C220.352 319.788 221.172 320.238 221.172 321.908C221.172 322.128 221.162 322.378 221.132 322.648ZM223.264 323.408L225.474 319.878H226.444V324.998H225.484V321.428L223.214 324.998H222.304V319.878H223.264V323.408ZM225.774 317.898C225.724 318.688 225.254 319.138 224.374 319.138C223.504 319.138 223.034 318.688 222.984 317.898L223.684 317.858C223.704 318.238 223.964 318.438 224.374 318.438C224.794 318.438 225.054 318.238 225.074 317.858L225.774 317.898ZM83.83 337.998V330.888H84.81V337.998H83.83ZM89.7267 337.998V334.848C89.7267 333.938 89.5467 333.608 88.5167 333.608C88.1967 333.608 87.6167 333.688 87.3067 333.788V337.998H86.3467V332.878H87.0967L87.1667 333.098C87.6067 332.878 88.2367 332.788 88.5667 332.788C90.1567 332.788 90.6867 333.238 90.6867 334.798V337.998H89.7267ZM94.8494 337.298V338.028C94.5894 338.068 94.2894 338.088 94.0294 338.088C92.5494 338.088 92.3994 337.068 92.3994 336.578V333.638H91.6094V332.878H92.4194L92.6194 331.488H93.3594V332.878H94.8394V333.638H93.3594V336.578C93.3594 336.928 93.4694 337.328 94.2294 337.328C94.4094 337.328 94.6394 337.318 94.8494 337.298ZM96.5894 334.938H99.0794C99.1594 333.918 98.8394 333.548 97.9294 333.548C97.0194 333.548 96.6394 333.908 96.5894 334.938ZM99.9694 335.648H96.5694C96.5694 336.688 96.8594 337.058 97.4794 337.208C97.6694 337.248 97.9094 337.268 98.1594 337.268C98.6894 337.268 99.2894 337.228 99.6194 337.148C99.6194 337.148 99.6194 337.918 99.6194 337.928C99.2694 337.998 98.7294 338.088 98.1594 338.088C97.8594 338.088 97.5594 338.068 97.2594 338.008C95.9194 337.688 95.6094 337.008 95.6094 335.458C95.6094 333.218 96.4794 332.788 97.9294 332.788C99.3794 332.788 100.229 333.358 99.9694 335.648ZM101.901 332.878L102.061 333.348C102.671 333.108 103.351 332.828 104.051 332.788V333.728C103.661 333.748 102.701 333.838 102.111 334.068V337.998H101.151V332.878H101.901ZM107.75 337.298V338.028C107.49 338.068 107.19 338.088 106.93 338.088C105.45 338.088 105.3 337.068 105.3 336.578V333.638H104.51V332.878H105.32L105.52 331.488H106.26V332.878H107.74V333.638H106.26V336.578C106.26 336.928 106.37 337.328 107.13 337.328C107.31 337.328 107.54 337.318 107.75 337.298ZM109.49 334.938H111.98C112.06 333.918 111.74 333.548 110.83 333.548C109.92 333.548 109.54 333.908 109.49 334.938ZM112.87 335.648H109.47C109.47 336.688 109.76 337.058 110.38 337.208C110.57 337.248 110.81 337.268 111.06 337.268C111.59 337.268 112.19 337.228 112.52 337.148C112.52 337.148 112.52 337.918 112.52 337.928C112.17 337.998 111.63 338.088 111.06 338.088C110.76 338.088 110.46 338.068 110.16 338.008C108.82 337.688 108.51 337.008 108.51 335.458C108.51 333.218 109.38 332.788 110.83 332.788C112.28 332.788 113.13 333.358 112.87 335.648ZM116.052 333.958L117.062 332.878H118.332L116.272 334.988L118.392 337.998H117.242L115.662 335.508L115.012 336.158V337.998H114.052V330.888H115.012V335.098H115.062L116.052 333.958Z" fill="#041C32"/>
</svg>
