<svg width="574" height="469" viewBox="0 0 574 469" fill="none" xmlns="http://www.w3.org/2000/svg">
<path d="M22.4437 44.9541L22.316 41.3164C22.2487 39.3975 22.2445 35.8555 28.2408 35.6451C29.8798 35.5876 31.0268 35.7675 32.0125 35.913L32.0714 37.592C31.247 37.4808 30.0593 37.2824 28.4803 37.3378C24.2029 37.4878 24.2159 39.5687 24.2748 41.2476L24.4024 44.8854C24.4578 46.4644 24.595 48.661 28.6924 48.5172C30.3714 48.4583 31.5822 48.1757 32.4368 48.0056L32.495 49.6646C31.5219 49.8788 30.391 50.1587 28.752 50.2162C22.7557 50.4265 22.511 46.8729 22.4437 44.9541ZM43.5891 43.2116L43.6719 45.5701C43.7238 47.0492 43.6964 49.6918 39.0993 49.8531C34.5021 50.0144 34.2896 47.3802 34.2377 45.9012L34.155 43.5426C34.1031 42.0635 34.1304 39.4209 38.7276 39.2596C43.3248 39.0983 43.538 41.7525 43.5891 43.2116ZM41.7531 45.6375L41.6703 43.2789C41.536 41.1623 40.504 40.8383 38.7851 40.8986C36.8463 40.9666 36.0057 41.5365 36.0738 43.4753L36.1565 45.8338C36.2295 47.9125 37.3628 48.273 39.0418 48.2141C40.9606 48.1468 41.8218 47.5963 41.7531 45.6375ZM49.6761 45.2994L49.5762 45.3029L47.078 49.3931L44.8394 49.4716L48.4698 44.0009L44.8002 39.2267L47.0388 39.1481L49.505 42.7038L49.5649 42.7017L51.7759 38.9819L54.0145 38.9034L50.6885 43.9231L54.6934 49.1259L52.4547 49.2044L49.6761 45.2994ZM60.6113 40.1328C59.9717 40.1553 58.6382 40.3622 58.0256 40.5838L58.2598 47.2597C58.8458 47.4192 59.8087 47.4855 60.868 47.4483C62.6869 47.3845 63.4303 46.8981 63.3595 44.8794L63.2767 42.5208C63.2129 40.702 62.6701 40.0606 60.6113 40.1328ZM60.4939 38.4959C63.1922 38.4013 65.0791 39.1355 65.1955 42.4535L65.2783 44.8121C65.3877 47.9301 63.9437 48.9814 60.9255 49.0873C59.6263 49.1329 58.8605 48.9797 58.3159 48.8587L58.4604 52.9761L56.5415 53.0435L56.0429 38.8322L57.542 38.7796L57.6974 39.2144C58.5614 38.7439 60.1141 38.5093 60.4939 38.4959ZM73.605 42.4786L73.5896 42.0389C73.5167 39.9602 72.1484 39.748 70.5893 39.8027C69.53 39.8399 68.4962 40.0363 67.8815 40.1979C67.8808 40.178 67.8247 38.5789 67.8247 38.5789C68.5394 38.4138 69.6924 38.1932 70.8916 38.1511C75.2889 37.9968 75.44 40.5931 75.5084 41.9716L75.7335 48.3876L74.2345 48.4402L74.0791 48.0054C72.8995 48.6072 71.7423 48.7078 71.0827 48.7309C68.2644 48.8298 67.2209 47.6057 67.1634 45.9667L67.1486 45.5469C67.0841 43.7081 68.3647 42.5624 70.5234 42.4867C71.4628 42.4537 72.5436 42.4559 73.605 42.4786ZM73.746 46.4962L73.659 44.0177C72.6376 43.9935 71.7574 44.0044 70.9779 44.0317C69.5388 44.0822 69.0401 44.7001 69.0745 45.6795C69.1025 46.479 69.5854 47.1225 71.2644 47.0635C71.7641 47.046 72.822 46.9689 73.746 46.4962ZM85.0138 48.062L84.8609 43.7047L80.2637 43.866L80.4166 48.2233L78.4978 48.2907L78.1387 38.057L80.0575 37.9896L80.2055 42.207L84.8027 42.0457L84.6547 37.8283L86.5735 37.761L86.9326 47.9947L85.0138 48.062ZM92.5964 42.6128L95.1748 42.5223L95.0549 39.1044L92.4765 39.1949C91.577 39.2265 91.0465 39.5052 91.0949 40.8844C91.1426 42.2436 91.697 42.6444 92.5964 42.6128ZM89.1603 47.9166L91.6875 44.0856C90.1635 43.999 89.2416 43.3909 89.1561 40.9524C89.0544 38.0542 90.3802 37.6275 92.419 37.5559L96.9162 37.3981L97.2753 47.6318L95.3565 47.6992L95.2267 44.0014L93.6877 44.0554L91.4589 47.8359L89.1603 47.9166ZM101.43 41.3623L106.407 41.1877C106.42 40.9871 106.414 40.8072 106.407 40.6273C106.351 39.0283 105.653 38.5125 104.014 38.57C102.195 38.6338 101.458 39.3001 101.43 41.3623ZM108.276 42.543L101.44 42.7828C101.534 45.4612 102.553 45.9858 104.731 45.9093C105.791 45.8722 106.987 45.7501 107.641 45.5671C107.641 45.5671 107.695 47.1061 107.696 47.1261C107.001 47.2906 105.928 47.5083 104.789 47.5483C100.592 47.6956 99.6297 45.9482 99.5077 42.4704C99.3506 37.9931 101.059 37.0727 103.958 36.971C106.516 36.8812 108.187 37.7231 108.304 41.0611C108.319 41.5008 108.317 42.0012 108.276 42.543ZM113.361 47.0674L113.059 38.4727L109.482 38.5983L109.424 36.9593L118.499 36.6409L118.556 38.2799L114.978 38.4054L115.28 47.0001L113.361 47.0674ZM131.05 40.4631L131.035 40.0234C130.962 37.9447 129.594 37.7325 128.034 37.7872C126.975 37.8244 125.941 38.0208 125.327 38.1824C125.326 38.1624 125.27 36.5634 125.27 36.5634C125.985 36.3982 127.137 36.1777 128.337 36.1356C132.734 35.9813 132.885 38.5776 132.954 39.9561L133.179 46.3721L131.68 46.4247L131.524 45.9899C130.345 46.5916 129.187 46.6923 128.528 46.7154C125.71 46.8143 124.666 45.5901 124.608 43.9511L124.594 43.5314C124.529 41.6925 125.81 40.5469 127.969 40.4712C128.908 40.4382 129.989 40.4403 131.05 40.4631ZM131.191 44.4807L131.104 42.0022C130.083 41.978 129.203 41.9888 128.423 42.0162C126.984 42.0667 126.485 42.6846 126.52 43.664C126.548 44.4635 127.031 45.1069 128.709 45.048C129.209 45.0305 130.267 44.9533 131.191 44.4807ZM142.459 46.0465L142.306 41.6892L137.709 41.8505L137.862 46.2078L135.943 46.2751L135.584 36.0414L137.503 35.9741L137.651 40.1915L142.248 40.0302L142.1 35.8128L144.019 35.7455L144.378 45.9792L142.459 46.0465ZM149.803 45.7888L149.502 37.1941L145.924 37.3196L145.867 35.6807L154.941 35.3623L154.998 37.0013L151.421 37.1268L151.722 45.7215L149.803 45.7888ZM158.948 42.286L163.118 35.0754L165.057 35.0073L165.416 45.2411L163.497 45.3084L163.247 38.1728L158.96 45.4676L157.141 45.5314L156.782 35.2977L158.701 35.2304L158.948 42.286ZM177.101 38.5272L177.183 40.8857C177.235 42.3648 177.208 45.0074 172.611 45.1687C168.014 45.33 167.801 42.6958 167.749 41.2168L167.667 38.8582C167.615 37.3791 167.642 34.7365 172.239 34.5752C176.836 34.4139 177.05 37.0681 177.101 38.5272ZM175.265 40.9531L175.182 38.5945C175.048 36.4779 174.016 36.1539 172.297 36.2142C170.358 36.2822 169.517 36.8521 169.585 38.7909L169.668 41.1494C169.741 43.2281 170.874 43.5886 172.553 43.5297C174.472 43.4624 175.333 42.9119 175.265 40.9531ZM183.073 40.4189L181.632 42.1105L181.721 44.6689L179.803 44.7363L179.444 34.5026L181.362 34.4352L181.555 39.9319L183.176 37.6536L185.48 34.2908L187.818 34.2087L184.291 39.1955L188.497 44.4312L186.079 44.5161L183.073 40.4189ZM196.974 35.6686C196.349 35.5504 195.124 35.4333 194.065 35.4705C192.506 35.5252 191.156 35.8327 191.229 37.9114L191.32 40.5098C191.458 42.7263 192.761 42.8007 194.34 42.7453C195.4 42.7081 196.554 42.5275 197.208 42.3445C197.208 42.3445 197.264 43.9435 197.265 43.9635C196.55 44.1287 195.317 44.352 194.058 44.3962C189.621 44.5519 189.45 41.9763 189.401 40.5771L189.31 37.9787C189.261 36.5796 189.251 33.9984 193.688 33.8427C194.947 33.7985 196.193 33.9349 196.917 34.0496C196.917 34.0496 196.973 35.6486 196.974 35.6686ZM201.422 40.7958L205.592 33.5851L207.531 33.5171L207.89 43.7508L205.971 43.8181L205.72 36.6825L201.434 43.9773L199.615 44.0411L199.256 33.8074L201.174 33.7401L201.422 40.7958ZM209.773 45.726L209.644 42.0482L210.804 42.0076C211.926 40.9275 212.335 38.8719 212.336 37.2109L212.201 33.3532L219.157 33.1092L219.458 41.7039L220.717 41.6597L220.846 45.3375L219.147 45.3971L219.076 43.3583L211.401 43.6276L211.472 45.6664L209.773 45.726ZM217.295 34.8155L214.177 34.9249L214.256 37.1635C214.268 38.664 213.952 40.4962 213.162 41.9248L217.539 41.7712L217.295 34.8155ZM228.529 37.043L228.514 36.6032C228.441 34.5245 227.073 34.3124 225.514 34.3671C224.454 34.4042 223.42 34.6006 222.806 34.7623C222.805 34.7423 222.749 33.1433 222.749 33.1433C223.464 32.9781 224.617 32.7575 225.816 32.7154C230.213 32.5612 230.364 35.1575 230.433 36.5359L230.658 42.952L229.159 43.0046L229.003 42.5697C227.824 43.1715 226.667 43.2721 226.007 43.2953C223.189 43.3941 222.145 42.17 222.088 40.531L222.073 40.1112C222.008 38.2724 223.289 37.1268 225.448 37.051C226.387 37.0181 227.468 37.0202 228.529 37.043ZM228.67 41.0605L228.583 38.582C227.562 38.5578 226.682 38.5687 225.902 38.596C224.463 38.6465 223.964 39.2644 223.999 40.2438C224.027 41.0433 224.51 41.6868 226.189 41.6279C226.688 41.6103 227.746 41.5332 228.67 41.0605ZM239.938 42.6264L239.785 38.269L235.188 38.4303L235.341 42.7877L233.422 42.855L233.063 32.6213L234.982 32.554L235.13 36.7714L239.727 36.6101L239.579 32.3927L241.498 32.3253L241.857 42.559L239.938 42.6264ZM247.283 42.3687L246.981 33.774L243.403 33.8995L243.346 32.2605L252.42 31.9421L252.478 33.5811L248.9 33.7066L249.201 42.3013L247.283 42.3687ZM264.196 41.7752L263.837 31.5415L265.756 31.4742L266.115 41.7079L264.196 41.7752ZM256.205 34.7711L258.644 34.6856C262.461 34.5516 262.661 36.826 262.707 38.1252L262.71 38.2251C262.757 39.5443 262.717 41.8271 258.899 41.9611L254.542 42.114L254.183 31.8803L256.102 31.8129L256.205 34.7711ZM256.403 40.4077L258.842 40.3221C260.8 40.2534 260.817 39.012 260.792 38.2925L260.788 38.1925C260.764 37.493 260.66 36.2558 258.701 36.3246L256.263 36.4101L256.403 40.4077ZM269.391 43.4341L267.732 43.4923L269.363 39.1925L271.561 39.1153L269.391 43.4341ZM26.9917 71.9112L25.5501 73.6028L25.6399 76.1612L23.7211 76.2286L23.362 65.9949L25.2808 65.9275L25.4737 71.4242L27.0948 69.1459L29.3983 65.7831L31.7368 65.701L28.2095 70.6878L32.4157 75.9235L29.9972 76.0084L26.9917 71.9112ZM42.627 69.2613L42.7097 71.6199C42.7616 73.099 42.7343 75.7416 38.1371 75.9029C33.5399 76.0642 33.3274 73.43 33.2755 71.9509L33.1928 69.5924C33.1409 68.1133 33.1682 65.4707 37.7654 65.3094C42.3626 65.1481 42.5758 67.8022 42.627 69.2613ZM40.7909 71.6872L40.7082 69.3287C40.5739 67.2121 39.5419 66.8881 37.8229 66.9484C35.8841 67.0164 35.0436 67.5862 35.1116 69.525L35.1944 71.8836C35.2673 73.9623 36.4006 74.3228 38.0796 74.2639C39.9984 74.1966 40.8596 73.646 40.7909 71.6872ZM47.8292 75.3827L47.5276 66.788L43.9498 66.9135L43.8923 65.2745L52.9668 64.9561L53.0243 66.5951L49.4465 66.7207L49.748 75.3154L47.8292 75.3827ZM63.942 68.5135L64.0247 70.872C64.0766 72.3511 64.0493 74.9937 59.4521 75.155C54.8549 75.3163 54.6424 72.6821 54.5905 71.203L54.5078 68.8445C54.4559 67.3654 54.4833 64.7228 59.0804 64.5615C63.6776 64.4002 63.8908 67.0544 63.942 68.5135ZM62.1059 70.9394L62.0232 68.5808C61.8889 66.4642 60.8569 66.1402 59.1379 66.2005C57.1991 66.2685 56.3586 66.8384 56.4266 68.7772L56.5094 71.1357C56.5823 73.2144 57.7156 73.5749 59.3946 73.516C61.3134 73.4487 62.1746 72.8982 62.1059 70.9394ZM70.8532 65.7895C70.2136 65.8119 68.88 66.0188 68.2674 66.2404L68.5017 72.9163C69.0876 73.0759 70.0505 73.1421 71.1099 73.105C72.9288 73.0412 73.6722 72.5548 73.6013 70.536L73.5186 68.1775C73.4548 66.3586 72.912 65.7172 70.8532 65.7895ZM70.7358 64.1526C73.4341 64.0579 75.321 64.7922 75.4374 68.1102L75.5202 70.4687C75.6296 73.5868 74.1855 74.6381 71.1674 74.744C69.8682 74.7895 69.1024 74.6363 68.5578 74.5153L68.7022 78.6328L66.7834 78.7001L66.2848 64.4889L67.7839 64.4363L67.9392 64.8711C68.8033 64.4005 70.356 64.1659 70.7358 64.1526ZM87.8143 73.9798L87.4552 63.7461L89.374 63.6788L89.7331 73.9125L87.8143 73.9798ZM79.8238 66.9757L82.2623 66.8901C86.0799 66.7562 86.2798 69.0305 86.3254 70.3297L86.3289 70.4297C86.3752 71.7489 86.3352 74.0317 82.5175 74.1656L78.1602 74.3185L77.8012 64.0848L79.72 64.0175L79.8238 66.9757ZM80.0215 72.6122L82.46 72.5266C84.4188 72.4579 84.4353 71.2166 84.4101 70.497L84.4066 70.3971C84.382 69.6975 84.2786 68.4604 82.3198 68.5291L79.8813 68.6146L80.0215 72.6122ZM93.8899 67.6428L98.8668 67.4682C98.8798 67.2676 98.8735 67.0878 98.8672 66.9079C98.8111 65.3089 98.1125 64.793 96.4736 64.8505C94.6547 64.9144 93.9176 65.5806 93.8899 67.6428ZM100.735 68.8235L93.8997 69.0634C93.9937 71.7417 95.0127 72.2663 97.1913 72.1899C98.2507 72.1527 99.4471 72.0307 100.101 71.8476C100.101 71.8476 100.155 73.3867 100.156 73.4067C99.4612 73.5711 98.3881 73.7889 97.2489 73.8289C93.0514 73.9761 92.0896 72.2288 91.9675 68.7509C91.8105 64.2737 93.5192 63.3532 96.4174 63.2515C98.9759 63.1618 100.646 64.0037 100.764 67.3416C100.779 67.7814 100.777 68.2818 100.735 68.8235ZM107.055 77.4873L106.997 75.8483C107.676 75.8045 108.412 75.6786 109.087 75.5148C110.196 75.1757 110.656 74.5992 111.075 73.4238L106.529 63.0768L108.728 62.9997L111.92 71.2729L111.96 71.2715L114.544 62.7956L116.743 62.7185L113.251 72.7071C112.479 75.2357 112.117 76.3291 109.622 77.077C108.769 77.307 107.874 77.4385 107.055 77.4873ZM124.922 72.8979L124.787 69.0403C124.786 69.0003 124.779 68.8005 124.757 68.7612C124.449 69.1122 123.099 69.4197 122.36 69.4457C119.182 69.5572 118.091 68.6949 117.981 65.5768L117.88 62.6786L119.798 62.6113L119.897 65.4096C119.96 67.2284 120.343 67.8754 122.402 67.8032C123.042 67.7807 124.115 67.583 124.728 67.3613L124.556 62.4444L126.474 62.377L126.841 72.8306L124.922 72.8979ZM135.358 66.328L135.343 65.8882C135.27 63.8095 133.902 63.5974 132.342 63.6521C131.283 63.6892 130.249 63.8856 129.635 64.0473C129.634 64.0273 129.578 62.4283 129.578 62.4283C130.293 62.2631 131.446 62.0425 132.645 62.0005C137.042 61.8462 137.193 64.4425 137.262 65.8209L137.487 72.237L135.988 72.2896L135.832 71.8547C134.653 72.4565 133.495 72.5571 132.836 72.5803C130.018 72.6791 128.974 71.455 128.917 69.816L128.902 69.3962C128.837 67.5574 130.118 66.4118 132.277 66.336C133.216 66.3031 134.297 66.3052 135.358 66.328ZM135.499 70.3455L135.412 67.867C134.391 67.8428 133.511 67.8537 132.731 67.881C131.292 67.9315 130.793 68.5494 130.828 69.5288C130.856 70.3283 131.339 70.9718 133.018 70.9129C133.517 70.8953 134.575 70.8182 135.499 70.3455ZM147.37 63.425C146.745 63.3068 145.52 63.1897 144.461 63.2269C142.902 63.2816 141.552 63.5891 141.625 65.6678L141.716 68.2662C141.854 70.4828 143.157 70.5571 144.736 70.5017C145.796 70.4645 146.95 70.2839 147.604 70.1009C147.604 70.1009 147.66 71.6999 147.661 71.7199C146.946 71.8851 145.713 72.1084 144.454 72.1526C140.017 72.3083 139.846 69.7327 139.797 68.3336L139.706 65.7352C139.657 64.336 139.646 61.7548 144.084 61.5991C145.343 61.5549 146.588 61.6913 147.313 61.806C147.313 61.806 147.369 63.405 147.37 63.425ZM152.589 71.7071L152.287 63.1124L148.71 63.2379L148.652 61.5989L157.727 61.2805L157.784 62.9195L154.206 63.0451L154.508 71.6398L152.589 71.7071ZM164.723 71.2813L159.926 71.4497L159.567 61.2159L164.144 61.0554C165.743 60.9992 167.19 61.1686 167.277 63.6471L167.286 63.9069C167.317 64.7864 166.92 65.4407 166.453 65.8173C167.184 66.1119 167.808 66.8104 167.848 67.9297L167.863 68.3695C167.874 70.9507 166.202 71.2294 164.723 71.2813ZM161.788 69.7433L164.666 69.6424C165.265 69.6213 165.921 69.4782 165.943 68.3968L165.929 67.997C165.888 66.8378 165.104 66.7252 164.504 66.7462L161.686 66.8451L161.788 69.7433ZM161.544 62.7876L161.631 65.2861L164.29 65.1928C164.849 65.1732 165.402 64.9537 165.368 63.9743L165.358 63.7144C165.325 62.755 164.802 62.6733 164.202 62.6943L161.544 62.7876ZM169.282 75.304L169.225 73.665C169.903 73.6211 170.639 73.4953 171.314 73.3315C172.423 72.9924 172.883 72.4159 173.302 71.2405L168.756 60.8935L170.955 60.8164L174.147 69.0896L174.187 69.0882L176.772 60.6123L178.97 60.5352L175.478 70.5238C174.706 73.0524 174.345 74.1457 171.849 74.8937C170.997 75.1237 170.101 75.2552 169.282 75.304ZM185.491 66.21L185.49 66.19L182.832 66.2833L182.984 70.6406L181.066 70.708L180.707 60.4743L182.625 60.4069L182.773 64.6243L185.432 64.5311L185.421 64.2312C185.37 62.7721 185.397 60.1296 189.635 59.9809C193.892 59.8315 194.105 62.4657 194.156 63.9248L194.24 66.3233C194.291 67.7824 194.264 70.425 190.006 70.5744C185.769 70.723 185.557 68.0889 185.505 66.6298L185.491 66.21ZM187.34 64.1639L187.424 66.5624C187.455 67.4419 187.57 69.0188 189.949 68.9354C192.347 68.8512 192.352 67.2701 192.321 66.3906L192.237 63.9921C192.206 63.1126 192.091 61.5357 189.692 61.6199C187.314 61.7033 187.309 63.2845 187.34 64.1639ZM199.357 70.0662L199.055 61.4715L195.478 61.597L195.42 59.958L204.495 59.6396L204.552 61.2786L200.974 61.4041L201.276 69.9989L199.357 70.0662ZM29.4298 102.044L24.6327 102.213L24.2737 91.9789L28.8509 91.8183C30.4499 91.7622 31.8967 91.9315 31.9837 94.41L31.9928 94.6699C32.0236 95.5493 31.6263 96.2037 31.1593 96.5803C31.89 96.8748 32.5149 97.5733 32.5542 98.6926L32.5696 99.1324C32.5801 101.714 30.9089 101.992 29.4298 102.044ZM26.4941 100.506L29.3723 100.405C29.9719 100.384 30.6273 100.241 30.6494 99.1597L30.6354 98.76C30.5947 97.6007 29.8103 97.4881 29.2106 97.5092L26.3924 97.608L26.4941 100.506ZM26.25 93.5505L26.3377 96.049L28.996 95.9557C29.5557 95.9361 30.1083 95.7166 30.074 94.7372L30.0648 94.4773C30.0312 93.5179 29.508 93.4362 28.9084 93.4573L26.25 93.5505ZM46.7603 96.9735L46.9167 101.431L45.0778 101.495L44.9214 97.038C44.2825 97.0804 43.1032 97.1218 42.5085 97.2827C41.7567 97.5292 41.5379 98.1373 41.3797 98.7632L40.8404 101.644L38.9216 101.711L39.3406 99.3951C39.6485 97.9034 39.6608 96.5421 42.276 95.79L38.8024 91.4691L41.101 91.3885L44.1878 95.5228L44.8674 95.4989L44.7188 91.2615L46.5576 91.197L46.7063 95.4344L47.3859 95.4106L50.1754 91.0701L52.474 90.9894L49.3117 95.5431C51.9732 96.1101 52.0809 97.4672 52.4926 98.9337L53.0729 101.215L51.1541 101.282L50.4142 98.4462C50.2126 97.8329 49.9517 97.2417 49.1844 97.0485C48.5799 96.9296 47.4006 96.971 46.7603 96.9735ZM56.9096 97.8981L61.0793 90.6875L63.0181 90.6195L63.3772 100.853L61.4584 100.921L61.208 93.7849L56.9212 101.08L55.1023 101.144L54.7432 90.9098L56.662 90.8425L56.9096 97.8981ZM69.3261 96.0616L67.0275 96.1423L66.9742 94.6232L69.3328 94.5405C70.3122 94.5061 70.7908 93.8889 70.7698 93.2893C70.7207 91.8902 69.6371 91.8081 68.178 91.8593C67.9182 91.8684 66.721 91.9705 65.5902 92.2503L65.5355 90.6913C66.4072 90.4405 67.8028 90.2915 68.1226 90.2803C70.801 90.1863 72.5876 90.3438 72.6886 93.222C72.716 94.0015 72.3414 94.7351 71.5795 95.2621C72.657 95.7446 73.0656 96.5508 73.0992 97.5102C73.1995 100.368 71.3719 100.753 68.7335 100.845C68.1538 100.866 66.8105 100.793 65.5014 100.559L65.4446 98.9395C66.8757 99.2295 68.157 99.2446 68.6767 99.2264C70.1158 99.1759 71.2302 98.9967 71.1804 97.5776C71.1509 96.7381 70.6253 96.0161 69.3261 96.0616ZM82.0939 100.196L81.9411 95.8392L77.3439 96.0005L77.4968 100.358L75.578 100.425L75.2189 90.1914L77.1377 90.1241L77.2857 94.3415L81.8829 94.1802L81.7349 89.9628L83.6537 89.8955L84.0128 100.129L82.0939 100.196ZM88.1845 93.859L93.1615 93.6844C93.1744 93.4838 93.1681 93.3039 93.1618 93.124C93.1057 91.525 92.4072 91.0092 90.7682 91.0667C88.9493 91.1305 88.2122 91.7968 88.1845 93.859ZM95.0301 95.0397L88.1943 95.2796C88.2883 97.9579 89.3073 98.4825 91.486 98.4061C92.5453 98.3689 93.7418 98.2469 94.3958 98.0638C94.3958 98.0638 94.4498 99.6029 94.4505 99.6229C93.7558 99.7873 92.6828 100.005 91.5435 100.045C87.3461 100.192 86.3842 98.445 86.2622 94.9671C86.1051 90.4899 87.8139 89.5694 90.7121 89.4677C93.2705 89.3779 94.9411 90.2199 95.0582 93.5578C95.0736 93.9975 95.0712 94.4979 95.0301 95.0397ZM96.4721 101.733L96.3431 98.0555L97.5024 98.0149C98.6252 96.9348 99.0334 94.8792 99.0351 93.2182L98.8998 89.3605L105.856 89.1165L106.157 97.7112L107.416 97.667L107.545 101.345L105.846 101.404L105.775 99.3656L98.0996 99.6349L98.1711 101.674L96.4721 101.733ZM103.994 90.8228L100.876 90.9322L100.955 93.1708C100.967 94.6713 100.651 96.5035 99.8609 97.9321L104.238 97.7785L103.994 90.8228ZM110.866 93.0632L115.843 92.8886C115.856 92.688 115.849 92.5081 115.843 92.3282C115.787 90.7292 115.089 90.2134 113.45 90.2709C111.631 90.3347 110.894 91.001 110.866 93.0632ZM117.711 94.2439L110.876 94.4838C110.97 97.1621 111.989 97.6867 114.167 97.6103C115.227 97.5731 116.423 97.4511 117.077 97.268C117.077 97.268 117.131 98.8071 117.132 98.8271C116.437 98.9915 115.364 99.2093 114.225 99.2492C110.027 99.3965 109.066 97.6492 108.944 94.1713C108.786 89.6941 110.495 88.7736 113.393 88.6719C115.952 88.5821 117.622 89.4241 117.74 92.762C117.755 93.2017 117.753 93.7021 117.711 94.2439ZM123.035 93.5768L125.613 93.4864L125.493 90.0685L122.915 90.1589C122.016 90.1905 121.485 90.4693 121.533 91.8484C121.581 93.2076 122.136 93.6084 123.035 93.5768ZM119.599 98.8806L122.126 95.0496C120.602 94.963 119.68 94.3549 119.595 91.9164C119.493 89.0182 120.819 88.5915 122.858 88.5199L127.355 88.3622L127.714 98.5959L125.795 98.6632L125.665 94.9655L124.126 95.0195L121.897 98.7999L119.599 98.8806ZM133.123 98.4061L132.821 89.8114L129.243 89.9369L129.186 88.2979L138.26 87.9795L138.318 89.6185L134.74 89.7441L135.041 98.3388L133.123 98.4061ZM141.784 91.9784L146.761 91.8038C146.774 91.6032 146.768 91.4233 146.762 91.2434C146.706 89.6444 146.007 89.1286 144.368 89.1861C142.549 89.2499 141.812 89.9162 141.784 91.9784ZM148.63 93.1591L141.794 93.3989C141.888 96.0773 142.907 96.6019 145.086 96.5254C146.145 96.4883 147.342 96.3662 147.996 96.1832C147.996 96.1832 148.05 97.7223 148.05 97.7422C147.356 97.9067 146.283 98.1245 145.143 98.1644C140.946 98.3117 139.984 96.5644 139.862 93.0865C139.705 88.6093 141.414 87.6888 144.312 87.5871C146.87 87.4973 148.541 88.3393 148.658 91.6772C148.673 92.1169 148.671 92.6173 148.63 93.1591ZM159.435 97.4829L157.516 97.5502L157.214 88.9555L153.716 89.0782L153.198 93.6993C153.016 95.3666 152.287 96.8331 151.146 97.9538L149.877 96.5775C150.709 95.7678 151.152 94.6916 151.289 93.486L151.96 87.4989L159.076 87.2492L159.435 97.4829ZM163.946 90.0401L166.384 89.9546C170.202 89.8206 170.402 92.095 170.448 93.3942L170.451 93.4942C170.497 94.8134 170.457 97.0962 166.64 97.2301L162.282 97.383L161.923 87.1493L163.842 87.082L163.946 90.0401ZM164.144 95.6767L166.582 95.5911C168.541 95.5224 168.558 94.281 168.532 93.5615L168.529 93.4615C168.504 92.762 168.401 91.5248 166.442 91.5936L164.003 91.6791L164.144 95.6767ZM179.241 96.788L179.088 92.4306L174.491 92.5919L174.644 96.9493L172.725 97.0166L172.366 86.7829L174.285 86.7156L174.433 90.933L179.03 90.7717L178.882 86.5543L180.801 86.4869L181.16 96.7206L179.241 96.788ZM192.861 90.0062L192.944 92.3648C192.995 93.8439 192.968 96.4865 188.371 96.6477C183.774 96.809 183.561 94.1749 183.509 92.6958L183.427 90.3372C183.375 88.8581 183.402 86.2156 187.999 86.0543C192.596 85.893 192.81 88.5471 192.861 90.0062ZM191.025 92.4321L190.942 90.0736C190.808 87.957 189.776 87.6329 188.057 87.6933C186.118 87.7613 185.277 88.3311 185.345 90.2699L185.428 92.6285C185.501 94.7072 186.634 95.0677 188.313 95.0088C190.232 94.9414 191.093 94.3909 191.025 92.4321ZM202.682 87.5003C202.057 87.3822 200.832 87.265 199.773 87.3022C198.214 87.3569 196.864 87.6644 196.937 89.7432L197.028 92.3416C197.166 94.5581 198.469 94.6324 200.048 94.577C201.107 94.5399 202.262 94.3593 202.916 94.1762C202.916 94.1762 202.972 95.7752 202.973 95.7952C202.258 95.9604 201.025 96.1838 199.766 96.2279C195.328 96.3836 195.158 93.808 195.109 92.4089L195.018 89.8105C194.969 88.4113 194.958 85.8301 199.395 85.6744C200.655 85.6303 201.9 85.7667 202.625 85.8813C202.625 85.8813 202.681 87.4803 202.682 87.5003ZM207.901 95.7824L207.599 87.1877L204.021 87.3132L203.964 85.6742L213.038 85.3559L213.096 86.9948L209.518 87.1204L209.82 95.7151L207.901 95.7824ZM217.045 92.2796L221.215 85.069L223.154 85.0009L223.513 95.2346L221.594 95.302L221.344 88.1664L217.057 95.4612L215.238 95.525L214.879 85.2913L216.798 85.2239L217.045 92.2796ZM28.815 123.879L27.3735 125.571L27.4632 128.129L25.5444 128.197L25.1854 117.963L27.1042 117.896L27.297 123.392L28.9181 121.114L31.2216 117.751L33.5602 117.669L30.0329 122.656L34.2391 127.892L31.8206 127.976L28.815 123.879ZM44.3435 127.537L42.4247 127.604L42.1231 119.01L38.6253 119.132L38.107 123.753C37.9253 125.421 37.1963 126.887 36.0549 128.008L34.7858 126.632C35.618 125.822 36.0605 124.746 36.1983 123.54L36.8688 117.553L43.9844 117.303L44.3435 127.537ZM48.5157 121.267L53.4926 121.092C53.5056 120.892 53.4993 120.712 53.493 120.532C53.4369 118.933 52.7384 118.417 51.0994 118.475C49.2805 118.538 48.5434 119.205 48.5157 121.267ZM55.3613 122.448L48.5255 122.687C48.6195 125.366 49.6385 125.89 51.8172 125.814C52.8765 125.777 54.073 125.655 54.727 125.472C54.727 125.472 54.781 127.011 54.7817 127.031C54.087 127.195 53.014 127.413 51.8747 127.453C47.6773 127.6 46.7154 125.853 46.5934 122.375C46.4363 117.898 48.1451 116.977 51.0433 116.876C53.6017 116.786 55.2723 117.628 55.3894 120.966C55.4048 121.405 55.4023 121.906 55.3613 122.448ZM60.4467 126.972L60.1451 118.377L56.5673 118.503L56.5098 116.864L65.5842 116.545L65.6418 118.184L62.064 118.31L62.3655 126.905L60.4467 126.972ZM76.5595 120.103L76.6422 122.461C76.6941 123.94 76.6668 126.583 72.0696 126.744C67.4724 126.906 67.2599 124.271 67.208 122.792L67.1253 120.434C67.0734 118.955 67.1007 116.312 71.6979 116.151C76.2951 115.99 76.5083 118.644 76.5595 120.103ZM74.7234 122.529L74.6407 120.17C74.5064 118.054 73.4744 117.73 71.7554 117.79C69.8166 117.858 68.9761 118.428 69.0441 120.366L69.1269 122.725C69.1998 124.804 70.3331 125.164 72.0121 125.105C73.9309 125.038 74.7921 124.487 74.7234 122.529ZM82.532 121.995L81.0904 123.686L81.1802 126.245L79.2614 126.312L78.9023 116.078L80.8211 116.011L81.014 121.507L82.6351 119.229L84.9386 115.866L87.2771 115.784L83.7498 120.771L87.956 126.007L85.5375 126.092L82.532 121.995ZM103.164 119.169L103.247 121.528C103.299 123.007 103.271 125.65 98.6743 125.811C94.0772 125.972 93.8647 123.338 93.8128 121.859L93.73 119.5C93.6781 118.021 93.7055 115.379 98.3026 115.217C102.9 115.056 103.113 117.71 103.164 119.169ZM101.328 121.595L101.245 119.237C101.111 117.12 100.079 116.796 98.3601 116.856C96.4213 116.924 95.5808 117.494 95.6488 119.433L95.7316 121.792C95.8045 123.87 96.9379 124.231 98.6168 124.172C100.536 124.105 101.397 123.554 101.328 121.595ZM110.075 116.445C109.436 116.468 108.102 116.675 107.49 116.896L107.724 123.572C108.31 123.732 109.273 123.798 110.332 123.761C112.151 123.697 112.894 123.211 112.824 121.192L112.741 118.833C112.677 117.014 112.134 116.373 110.075 116.445ZM109.958 114.808C112.656 114.714 114.543 115.448 114.66 118.766L114.742 121.125C114.852 124.243 113.408 125.294 110.39 125.4C109.09 125.445 108.325 125.292 107.78 125.171L107.924 129.289L106.006 129.356L105.507 115.145L107.006 115.092L107.161 115.527C108.025 115.056 109.578 114.822 109.958 114.808ZM123.777 116.145L119 116.312L119.301 124.907L117.382 124.974L117.023 114.741L123.719 114.506L123.777 116.145ZM131.443 118.497L131.427 118.058C131.355 115.979 129.986 115.767 128.427 115.821C127.368 115.859 126.334 116.055 125.719 116.217C125.719 116.197 125.663 114.598 125.663 114.598C126.377 114.432 127.53 114.212 128.729 114.17C133.127 114.016 133.278 116.612 133.346 117.99L133.571 124.406L132.072 124.459L131.917 124.024C130.737 124.626 129.58 124.726 128.921 124.75C126.102 124.849 125.059 123.624 125.001 121.985L124.986 121.566C124.922 119.727 126.203 118.581 128.361 118.505C129.301 118.472 130.381 118.475 131.443 118.497ZM131.584 122.515L131.497 120.036C130.475 120.012 129.595 120.023 128.816 120.05C127.377 120.101 126.878 120.719 126.912 121.698C126.94 122.498 127.423 123.141 129.102 123.082C129.602 123.065 130.66 122.988 131.584 122.515ZM142.852 124.081L142.699 119.723L138.102 119.885L138.254 124.242L136.336 124.309L135.977 114.076L137.895 114.008L138.043 118.226L142.641 118.064L142.493 113.847L144.411 113.78L144.77 124.013L142.852 124.081ZM149.425 120.668L153.595 113.457L155.534 113.389L155.893 123.623L153.974 123.69L153.723 116.555L149.437 123.85L147.618 123.914L147.259 113.68L149.177 113.612L149.425 120.668ZM161.842 118.832L159.543 118.912L159.49 117.393L161.848 117.31C162.828 117.276 163.306 116.659 163.285 116.059C163.236 114.66 162.153 114.578 160.694 114.629C160.434 114.638 159.237 114.74 158.106 115.02L158.051 113.461C158.923 113.211 160.318 113.061 160.638 113.05C163.316 112.956 165.103 113.114 165.204 115.992C165.231 116.772 164.857 117.505 164.095 118.032C165.173 118.515 165.581 119.321 165.615 120.28C165.715 123.138 163.887 123.523 161.249 123.615C160.669 123.636 159.326 123.563 158.017 123.329L157.96 121.71C159.391 122 160.672 122.015 161.192 121.996C162.631 121.946 163.746 121.767 163.696 120.348C163.666 119.508 163.141 118.786 161.842 118.832ZM172.986 121.763L169.984 116.044L169.672 123.14L167.774 123.206L168.214 112.945L170.293 112.872L173.657 119.198L176.569 112.651L178.648 112.578L179.806 122.784L177.907 122.851L177.099 115.795L174.525 121.709L172.986 121.763ZM188.01 116.513L187.994 116.073C187.921 113.994 186.553 113.782 184.994 113.837C183.935 113.874 182.901 114.07 182.286 114.232C182.285 114.212 182.229 112.613 182.229 112.613C182.944 112.448 184.097 112.227 185.296 112.185C189.694 112.031 189.845 114.627 189.913 116.006L190.138 122.422L188.639 122.474L188.484 122.039C187.304 122.641 186.147 122.742 185.487 122.765C182.669 122.864 181.625 121.64 181.568 120.001L181.553 119.581C181.489 117.742 182.769 116.596 184.928 116.521C185.867 116.488 186.948 116.49 188.01 116.513ZM188.151 120.53L188.064 118.052C187.042 118.027 186.162 118.038 185.382 118.066C183.943 118.116 183.445 118.734 183.479 119.713C183.507 120.513 183.99 121.156 185.669 121.098C186.169 121.08 187.227 121.003 188.151 120.53Z" fill="#041C32"/>
<path d="M226.676 197.83L226.767 194.191C226.816 192.272 227.025 188.736 233.023 188.887C234.662 188.928 235.796 189.177 236.772 189.382L236.729 191.061C235.913 190.9 234.739 190.631 233.16 190.591C228.881 190.483 228.769 192.561 228.727 194.241L228.635 197.879C228.595 199.459 228.6 201.66 232.699 201.763C234.378 201.805 235.604 201.596 236.467 201.478L236.425 203.137C235.441 203.292 234.295 203.504 232.656 203.462C226.658 203.311 226.627 199.749 226.676 197.83ZM247.888 197.364L247.828 199.723C247.791 201.203 247.605 203.839 243.006 203.723C238.407 203.607 238.354 200.965 238.391 199.486L238.451 197.126C238.488 195.647 238.674 193.011 243.273 193.126C247.871 193.242 247.924 195.904 247.888 197.364ZM245.909 199.675L245.968 197.316C245.962 195.195 244.951 194.809 243.232 194.766C241.292 194.717 240.419 195.235 240.37 197.175L240.311 199.534C240.258 201.613 241.368 202.041 243.047 202.084C244.967 202.132 245.86 201.634 245.909 199.675ZM253.838 199.815L253.738 199.812L250.998 203.744L248.759 203.688L252.712 198.446L249.336 193.459L251.576 193.516L253.823 197.213L253.883 197.215L256.314 193.635L258.554 193.691L254.931 198.502L258.616 203.936L256.376 203.88L253.838 199.815ZM265.064 195.316C264.425 195.3 263.081 195.426 262.456 195.61L262.288 202.288C262.863 202.483 263.82 202.607 264.88 202.634C266.7 202.679 267.471 202.239 267.522 200.219L267.581 197.86C267.627 196.041 267.124 195.368 265.064 195.316ZM265.046 193.675C267.745 193.743 269.584 194.589 269.501 197.908L269.441 200.268C269.363 203.387 267.858 204.349 264.839 204.273C263.539 204.24 262.784 204.041 262.248 203.888L262.144 208.006L260.225 207.958L260.583 193.742L262.082 193.78L262.211 194.224C263.102 193.806 264.666 193.665 265.046 193.675ZM277.893 198.44L277.904 198C277.957 195.921 276.604 195.626 275.044 195.587C273.985 195.56 272.941 195.694 272.317 195.819C272.318 195.799 272.358 194.199 272.358 194.199C273.082 194.077 274.246 193.927 275.445 193.957C279.844 194.068 279.838 196.668 279.824 198.048L279.662 204.466L278.163 204.428L278.034 203.985C276.82 204.515 275.659 204.545 274.999 204.529C272.18 204.458 271.212 203.173 271.253 201.534L271.264 201.114C271.31 199.274 272.657 198.208 274.817 198.262C275.756 198.286 276.835 198.353 277.893 198.44ZM277.792 202.459L277.854 199.979C276.836 199.894 275.957 199.852 275.177 199.832C273.738 199.796 273.203 200.382 273.178 201.362C273.158 202.162 273.601 202.833 275.281 202.875C275.781 202.888 276.841 202.875 277.792 202.459ZM288.945 204.7L289.055 200.341L284.456 200.226L284.347 204.584L282.427 204.536L282.685 194.299L284.604 194.347L284.498 198.566L289.097 198.682L289.203 194.463L291.122 194.512L290.864 204.748L288.945 204.7ZM296.842 199.717L299.421 199.782L299.507 196.363L296.928 196.298C296.028 196.276 295.482 196.522 295.447 197.902C295.413 199.261 295.942 199.695 296.842 199.717ZM293.093 204.805L295.846 201.133C294.33 200.954 293.447 200.292 293.508 197.853C293.581 194.954 294.93 194.608 296.969 194.659L301.468 194.772L301.21 205.009L299.291 204.961L299.384 201.262L297.844 201.223L295.392 204.862L293.093 204.805ZM305.735 199.001L310.713 199.126C310.738 198.927 310.743 198.747 310.747 198.567C310.788 196.968 310.122 196.411 308.482 196.369C306.663 196.323 305.887 196.944 305.735 199.001ZM312.497 200.592L305.659 200.42C305.592 203.099 306.577 203.684 308.757 203.739C309.816 203.765 311.018 203.715 311.682 203.572C311.682 203.572 311.643 205.112 311.642 205.132C310.939 205.254 309.855 205.407 308.715 205.378C304.517 205.272 303.662 203.47 303.749 199.991C303.862 195.513 305.623 194.697 308.522 194.77C311.082 194.834 312.698 195.775 312.614 199.114C312.603 199.554 312.571 200.053 312.497 200.592ZM317.301 205.414L317.517 196.817L313.938 196.727L313.98 195.087L323.057 195.316L323.016 196.955L319.437 196.865L319.22 205.463L317.301 205.414ZM230.866 229.246L226.068 229.125L226.325 218.888L230.904 219.003C232.503 219.044 233.937 219.3 233.875 221.779L233.868 222.039C233.846 222.919 233.41 223.548 232.921 223.896C233.633 224.234 234.215 224.968 234.187 226.088L234.175 226.528C234.031 229.105 232.346 229.283 230.866 229.246ZM228.028 227.534L230.907 227.606C231.507 227.621 232.17 227.518 232.257 226.44L232.267 226.04C232.296 224.88 231.52 224.721 230.92 224.705L228.101 224.634L228.028 227.534ZM228.203 220.576L228.14 223.075L230.8 223.142C231.359 223.156 231.924 222.97 231.949 221.991L231.956 221.731C231.98 220.771 231.462 220.658 230.863 220.643L228.203 220.576ZM238.493 226.257L243.09 219.31L245.029 219.359L244.771 229.596L242.852 229.547L243.032 222.41L238.313 229.433L236.494 229.387L236.752 219.151L238.671 219.199L238.493 226.257ZM250.183 229.732L250.399 221.135L246.821 221.045L246.862 219.405L255.939 219.634L255.898 221.273L252.319 221.183L252.102 229.78L250.183 229.732ZM263.434 224.084L263.445 223.644C263.498 221.565 262.145 221.271 260.585 221.231C259.526 221.205 258.482 221.338 257.859 221.463C257.859 221.443 257.899 219.843 257.899 219.843C258.623 219.721 259.787 219.571 260.987 219.601C265.385 219.712 265.38 222.312 265.365 223.692L265.203 230.11L263.704 230.073L263.575 229.629C262.361 230.159 261.2 230.19 260.54 230.173C257.721 230.102 256.753 228.817 256.794 227.178L256.805 226.758C256.851 224.918 258.199 223.852 260.358 223.906C261.298 223.93 262.376 223.997 263.434 224.084ZM263.333 228.103L263.396 225.623C262.377 225.538 261.498 225.496 260.718 225.476C259.279 225.44 258.744 226.026 258.719 227.006C258.699 227.806 259.142 228.477 260.822 228.52C261.322 228.532 262.382 228.519 263.333 228.103ZM272.938 229.045L270.286 223.156L269.548 230.22L267.648 230.172L268.706 219.955L270.785 220.008L273.762 226.525L277.063 220.166L279.143 220.218L279.685 230.475L277.785 230.427L277.404 223.335L274.478 229.084L272.938 229.045ZM284.202 227.408L288.798 220.461L290.737 220.51L290.479 230.747L288.56 230.699L288.74 223.561L284.021 230.584L282.202 230.538L282.46 220.302L284.379 220.35L284.202 227.408ZM299.83 230.982L299.94 226.624L295.341 226.508L295.231 230.867L293.312 230.818L293.57 220.582L295.489 220.63L295.383 224.849L299.981 224.964L300.088 220.746L302.007 220.794L301.749 231.031L299.83 230.982ZM314.254 231.346L314.512 221.109L316.431 221.157L316.174 231.394L314.254 231.346ZM306.7 223.873L309.139 223.935C312.958 224.031 313.021 226.313 312.988 227.613L312.985 227.713C312.952 229.032 312.775 231.308 308.956 231.212L304.597 231.103L304.855 220.866L306.775 220.914L306.7 223.873ZM306.558 229.511L308.997 229.573C310.957 229.622 311.048 228.384 311.066 227.664L311.068 227.564C311.086 226.865 311.057 225.623 309.098 225.574L306.659 225.513L306.558 229.511ZM335.29 231.876L333.23 231.824L331.802 227.366L326.244 227.226L324.613 231.607L322.554 231.555L328.01 217.468L330.549 217.532L335.29 231.876ZM329.184 219.318L326.887 225.522L331.246 225.632L329.264 219.32L329.184 219.318ZM343.675 228.906L348.271 221.959L350.211 222.008L349.953 232.245L348.033 232.196L348.213 225.059L343.495 232.082L341.675 232.036L341.933 221.8L343.853 221.848L343.675 228.906ZM357.405 227.131L357.497 223.492C357.545 221.573 357.754 218.037 363.752 218.188C365.392 218.229 366.526 218.478 367.501 218.682L367.459 220.362C366.643 220.201 365.469 219.932 363.889 219.892C359.611 219.784 359.498 221.862 359.456 223.541L359.365 227.18C359.325 228.76 359.329 230.961 363.428 231.064C365.107 231.106 366.333 230.897 367.196 230.779L367.155 232.438C366.17 232.593 365.025 232.804 363.385 232.763C357.387 232.612 357.357 229.05 357.405 227.131Z" fill="#041C32"/>
<path d="M296.92 370.606V358.086H290.62V370.606H288.66V356.386H298.88V370.606H296.92ZM306.475 361.826C305.835 361.826 304.495 361.986 303.875 362.186V368.866C304.455 369.046 305.415 369.146 306.475 369.146C308.295 369.146 309.055 368.686 309.055 366.666V364.306C309.055 362.486 308.535 361.826 306.475 361.826ZM306.415 360.186C309.115 360.186 310.975 360.986 310.975 364.306V366.666C310.975 369.786 309.495 370.786 306.475 370.786C305.175 370.786 304.415 370.606 303.875 370.466V374.586H301.955V360.366H303.455L303.595 360.806C304.475 360.366 306.035 360.186 306.415 360.186ZM322.559 364.306V366.666C322.559 368.146 322.439 370.786 317.839 370.786C313.239 370.786 313.119 368.146 313.119 366.666V364.306C313.119 362.826 313.239 360.186 317.839 360.186C322.439 360.186 322.559 362.846 322.559 364.306ZM320.639 366.666V364.306C320.579 362.186 319.559 361.826 317.839 361.826C315.899 361.826 315.039 362.366 315.039 364.306V366.666C315.039 368.746 316.159 369.146 317.839 369.146C319.759 369.146 320.639 368.626 320.639 366.666ZM323.943 372.646V368.966H325.103C326.263 367.926 326.743 365.886 326.803 364.226V360.366H333.763V368.966H335.023V372.646H333.323V370.606H325.643V372.646H323.943ZM331.843 362.006H328.723V364.246C328.683 365.746 328.303 367.566 327.463 368.966H331.843V362.006ZM335.897 374.786V373.146C336.577 373.126 337.317 373.026 337.997 372.886C339.117 372.586 339.597 372.026 340.057 370.866L335.877 360.366H338.077L340.977 368.746H341.017L343.897 360.366H346.097L342.257 370.226C341.397 372.726 340.997 373.806 338.477 374.466C337.617 374.666 336.717 374.766 335.897 374.786ZM351.254 366.406L349.754 368.046V370.606H347.834V360.366H349.754V365.866L351.454 363.646L353.874 360.366H356.214L352.514 365.226L356.534 370.606H354.114L351.254 366.406ZM360.805 370.606V362.006H357.225V360.366H366.305V362.006H362.725V370.606H360.805ZM377.728 370.606V360.366H379.648V370.606H377.728ZM369.988 363.326H372.428C376.248 363.326 376.368 365.606 376.368 366.906V367.006C376.368 368.326 376.248 370.606 372.428 370.606H368.068V360.366H369.988V363.326ZM369.988 368.966H372.428C374.388 368.966 374.448 367.726 374.448 367.006V366.906C374.448 366.206 374.388 364.966 372.428 364.966H369.988V368.966ZM386.13 372.646V368.966H387.29C388.45 367.926 388.93 365.886 388.99 364.226V360.366H395.95V368.966H397.21V372.646H395.51V370.606H387.83V372.646H386.13ZM394.03 362.006H390.91V364.246C390.87 365.746 390.49 367.566 389.65 368.966H394.03V362.006ZM408.359 364.306V366.666C408.359 368.146 408.239 370.786 403.639 370.786C399.039 370.786 398.919 368.146 398.919 366.666V364.306C398.919 362.826 399.039 360.186 403.639 360.186C408.239 360.186 408.359 362.846 408.359 364.306ZM406.439 366.666V364.306C406.379 362.186 405.359 361.826 403.639 361.826C401.699 361.826 400.839 362.366 400.839 364.306V366.666C400.839 368.746 401.959 369.146 403.639 369.146C405.559 369.146 406.439 368.626 406.439 366.666ZM419.164 370.606H417.244V362.006H413.744L413.064 366.606C412.824 368.266 412.044 369.706 410.864 370.786L409.644 369.366C410.504 368.586 410.984 367.526 411.164 366.326L412.044 360.366H419.164V370.606ZM423.934 363.326H426.374C430.194 363.326 430.314 365.606 430.314 366.906V367.006C430.314 368.326 430.194 370.606 426.374 370.606H422.014V360.366H423.934V363.326ZM423.934 368.966H426.374C428.334 368.966 428.394 367.726 428.394 367.006V366.906C428.394 366.206 428.334 364.966 426.374 364.966H423.934V368.966ZM439.343 360.366V368.966H442.603V360.366H444.523V370.606H432.463V360.366H434.383V368.966H437.423V360.366H439.343ZM448.905 364.486H453.885C453.905 364.286 453.905 364.106 453.905 363.926C453.905 362.326 453.225 361.786 451.585 361.786C449.765 361.786 449.005 362.426 448.905 364.486ZM455.705 365.906H448.865C448.865 368.586 449.865 369.146 452.045 369.146C453.105 369.146 454.305 369.066 454.965 368.906C454.965 368.906 454.965 370.446 454.965 370.466C454.265 370.606 453.185 370.786 452.045 370.786C447.845 370.786 446.945 369.006 446.945 365.526C446.945 361.046 448.685 360.186 451.585 360.186C454.145 360.186 455.785 361.086 455.785 364.426C455.785 364.866 455.765 365.366 455.705 365.906ZM471.797 364.306V366.666C471.797 368.146 471.677 370.786 467.077 370.786C462.477 370.786 462.357 368.146 462.357 366.666V364.306C462.357 362.826 462.477 360.186 467.077 360.186C471.677 360.186 471.797 362.846 471.797 364.306ZM469.877 366.666V364.306C469.817 362.186 468.797 361.826 467.077 361.826C465.137 361.826 464.277 362.366 464.277 364.306V366.666C464.277 368.746 465.397 369.146 467.077 369.146C468.997 369.146 469.877 368.626 469.877 366.666ZM481.699 362.146C481.079 362.006 479.859 361.846 478.799 361.846C477.239 361.846 475.879 362.106 475.879 364.186V366.786C475.939 369.006 477.239 369.126 478.819 369.126C479.879 369.126 481.039 368.986 481.699 368.826C481.699 368.826 481.699 370.426 481.699 370.446C480.979 370.586 479.739 370.766 478.479 370.766C474.039 370.766 473.959 368.186 473.959 366.786V364.186C473.959 362.786 474.039 360.206 478.479 360.206C479.739 360.206 480.979 360.386 481.699 360.526C481.699 360.526 481.699 362.126 481.699 362.146ZM486.625 370.606V362.006H483.045V360.366H492.125V362.006H488.545V370.606H486.625ZM499.73 364.626V364.186C499.73 362.106 498.37 361.846 496.81 361.846C495.75 361.846 494.71 362.006 494.09 362.146C494.09 362.126 494.09 360.526 494.09 360.526C494.81 360.386 495.97 360.206 497.17 360.206C501.57 360.206 501.63 362.806 501.65 364.186V370.606H500.15L500.01 370.166C498.81 370.726 497.65 370.786 496.99 370.786C494.17 370.786 493.17 369.526 493.17 367.886V367.466C493.17 365.626 494.49 364.526 496.65 364.526C497.59 364.526 498.67 364.566 499.73 364.626ZM499.73 368.646V366.166C498.71 366.106 497.83 366.086 497.05 366.086C495.61 366.086 495.09 366.686 495.09 367.666C495.09 368.466 495.55 369.126 497.23 369.126C497.73 369.126 498.79 369.086 499.73 368.646ZM508.996 366.266V366.246H506.336V370.606H504.416V360.366H506.336V364.586H508.996V364.286C508.996 362.826 509.116 360.186 513.356 360.186C517.616 360.186 517.736 362.826 517.736 364.286V366.686C517.736 368.146 517.616 370.786 513.356 370.786C509.116 370.786 508.996 368.146 508.996 366.686V366.266ZM510.916 364.286V366.686C510.916 367.566 510.976 369.146 513.356 369.146C515.756 369.146 515.816 367.566 515.816 366.686V364.286C515.816 363.406 515.756 361.826 513.356 361.826C510.976 361.826 510.916 363.406 510.916 364.286ZM522.719 370.606V362.006H519.139V360.366H528.219V362.006H524.639V370.606H522.719ZM537.403 362.146C536.783 362.006 535.563 361.846 534.503 361.846C532.943 361.846 531.583 362.106 531.583 364.186V366.786C531.643 369.006 532.943 369.126 534.523 369.126C535.583 369.126 536.743 368.986 537.403 368.826C537.403 368.826 537.403 370.426 537.403 370.446C536.683 370.586 535.443 370.766 534.183 370.766C529.743 370.766 529.663 368.186 529.663 366.786V364.186C529.663 362.786 529.743 360.206 534.183 360.206C535.443 360.206 536.683 360.386 537.403 360.526C537.403 360.526 537.403 362.126 537.403 362.146ZM542.748 365.426H545.328V362.006H542.748C541.848 362.006 541.308 362.266 541.308 363.646C541.308 365.006 541.848 365.426 542.748 365.426ZM539.128 370.606L541.788 366.866C540.268 366.726 539.368 366.086 539.368 363.646C539.368 360.746 540.708 360.366 542.748 360.366H547.248V370.606H545.328V366.906H543.788L541.428 370.606H539.128ZM295.84 388.146C295.22 388.006 294 387.846 292.94 387.846C291.38 387.846 290.02 388.106 290.02 390.186V392.786C290.08 395.006 291.38 395.126 292.96 395.126C294.02 395.126 295.18 394.986 295.84 394.826C295.84 394.826 295.84 396.426 295.84 396.446C295.12 396.586 293.88 396.766 292.62 396.766C288.18 396.766 288.1 394.186 288.1 392.786V390.186C288.1 388.786 288.18 386.206 292.62 386.206C293.88 386.206 295.12 386.386 295.84 386.526C295.84 386.526 295.84 388.126 295.84 388.146ZM302.986 396.606H298.186V386.366H302.766C304.366 386.366 305.806 386.586 305.806 389.066V389.326C305.806 390.206 305.386 390.846 304.906 391.206C305.626 391.526 306.226 392.246 306.226 393.366V393.806C306.146 396.386 304.466 396.606 302.986 396.606ZM300.106 394.966H302.986C303.586 394.966 304.246 394.846 304.306 393.766V393.366C304.306 392.206 303.526 392.066 302.926 392.066H300.106V394.966ZM300.106 388.006V390.506H302.766C303.326 390.506 303.886 390.306 303.886 389.326V389.066C303.886 388.106 303.366 388.006 302.766 388.006H300.106ZM310.155 390.486H315.135C315.155 390.286 315.155 390.106 315.155 389.926C315.155 388.326 314.475 387.786 312.835 387.786C311.015 387.786 310.255 388.426 310.155 390.486ZM316.955 391.906H310.115C310.115 394.586 311.115 395.146 313.295 395.146C314.355 395.146 315.555 395.066 316.215 394.906C316.215 394.906 316.215 396.446 316.215 396.466C315.515 396.606 314.435 396.786 313.295 396.786C309.095 396.786 308.195 395.006 308.195 391.526C308.195 387.046 309.935 386.186 312.835 386.186C315.395 386.186 317.035 387.086 317.035 390.426C317.035 390.866 317.015 391.366 316.955 391.906ZM326.499 392.146V396.606H324.659V392.146C324.019 392.166 322.839 392.166 322.239 392.306C321.479 392.526 321.239 393.126 321.059 393.746L320.419 396.606H318.499L318.999 394.306C319.359 392.826 319.419 391.466 322.059 390.806L318.739 386.366H321.039L323.979 390.606H324.659V386.366H326.499V390.606H327.179L330.119 386.366H332.419L329.099 390.806C331.739 391.466 331.799 392.826 332.159 394.306L332.659 396.606H330.739L330.099 393.746C329.919 393.126 329.679 392.526 328.919 392.306C328.319 392.166 327.139 392.166 326.499 392.146ZM336.61 393.426L341.03 386.366H342.97V396.606H341.05V389.466L336.51 396.606H334.69V386.366H336.61V393.426ZM350.743 395.346L347.943 389.526L347.383 396.606H345.483L346.283 386.366H348.363L351.503 392.806L354.643 386.366H356.723L357.523 396.606H355.623L355.063 389.526L352.283 395.346H350.743ZM361.961 393.426L366.381 386.366H368.321V396.606H366.401V389.466L361.861 396.606H360.041V386.366H361.961V393.426ZM377.742 393.426L382.162 386.366H384.102V396.606H382.182V389.466L377.642 396.606H375.822V386.366H377.742V393.426ZM398.064 396.606V388.006H393.524V396.606H391.604V386.366H399.984V396.606H398.064ZM411.895 390.306V392.666C411.895 394.146 411.775 396.786 407.175 396.786C402.575 396.786 402.455 394.146 402.455 392.666V390.306C402.455 388.826 402.575 386.186 407.175 386.186C411.775 386.186 411.895 388.846 411.895 390.306ZM409.975 392.666V390.306C409.915 388.186 408.895 387.826 407.175 387.826C405.235 387.826 404.375 388.366 404.375 390.306V392.666C404.375 394.746 405.495 395.146 407.175 395.146C409.095 395.146 409.975 394.626 409.975 392.666ZM422.699 396.606H420.779V388.006H417.279L416.599 392.606C416.359 394.266 415.579 395.706 414.399 396.786L413.179 395.366C414.039 394.586 414.519 393.526 414.699 392.326L415.579 386.366H422.699V396.606ZM427.089 390.486H432.069C432.089 390.286 432.089 390.106 432.089 389.926C432.089 388.326 431.409 387.786 429.769 387.786C427.949 387.786 427.189 388.426 427.089 390.486ZM433.889 391.906H427.049C427.049 394.586 428.049 395.146 430.229 395.146C431.289 395.146 432.489 395.066 433.149 394.906C433.149 394.906 433.149 396.446 433.149 396.466C432.449 396.606 431.369 396.786 430.229 396.786C426.029 396.786 425.129 395.006 425.129 391.526C425.129 387.046 426.869 386.186 429.769 386.186C432.329 386.186 433.969 387.086 433.969 390.426C433.969 390.866 433.949 391.366 433.889 391.906ZM439.513 392.026H437.213V390.506H439.573C440.553 390.506 441.053 389.906 441.053 389.306C441.053 387.906 439.973 387.786 438.513 387.786C438.253 387.786 437.053 387.846 435.913 388.086V386.526C436.793 386.306 438.193 386.206 438.513 386.206C441.193 386.206 442.973 386.426 442.973 389.306C442.973 390.086 442.573 390.806 441.793 391.306C442.853 391.826 443.233 392.646 443.233 393.606C443.233 396.466 441.393 396.786 438.753 396.786C438.173 396.786 436.833 396.666 435.533 396.386V394.766C436.953 395.106 438.233 395.166 438.753 395.166C440.193 395.166 441.313 395.026 441.313 393.606C441.313 392.766 440.813 392.026 439.513 392.026ZM452.128 396.606V392.246H447.528V396.606H445.608V386.366H447.528V390.586H452.128V386.366H454.048V396.606H452.128ZM466.557 396.606V386.366H468.477V396.606H466.557ZM458.817 389.326H461.257C465.077 389.326 465.197 391.606 465.197 392.906V393.006C465.197 394.326 465.077 396.606 461.257 396.606H456.897V386.366H458.817V389.326ZM458.817 394.966H461.257C463.217 394.966 463.277 393.726 463.277 393.006V392.906C463.277 392.206 463.217 390.966 461.257 390.966H458.817V394.966ZM476.251 395.346L473.451 389.526L472.891 396.606H470.991L471.791 386.366H473.871L477.011 392.806L480.151 386.366H482.231L483.031 396.606H481.131L480.571 389.526L477.791 395.346H476.251ZM487.469 393.426L491.889 386.366H493.829V396.606H491.909V389.466L487.369 396.606H485.549V386.366H487.469V393.426Z" fill="#041C32"/>
<path d="M293.944 426.606V417.842H289.534V426.606H288.162V416.652H295.316V426.606H293.944ZM300.633 420.46C300.185 420.46 299.247 420.572 298.813 420.712V425.388C299.219 425.514 299.891 425.584 300.633 425.584C301.907 425.584 302.439 425.262 302.439 423.848V422.196C302.439 420.922 302.075 420.46 300.633 420.46ZM300.591 419.312C302.481 419.312 303.783 419.872 303.783 422.196V423.848C303.783 426.032 302.747 426.732 300.633 426.732C299.723 426.732 299.191 426.606 298.813 426.508V429.392H297.469V419.438H298.519L298.617 419.746C299.233 419.438 300.325 419.312 300.591 419.312ZM311.891 422.196V423.848C311.891 424.884 311.807 426.732 308.587 426.732C305.367 426.732 305.283 424.884 305.283 423.848V422.196C305.283 421.16 305.367 419.312 308.587 419.312C311.807 419.312 311.891 421.174 311.891 422.196ZM310.547 423.848V422.196C310.505 420.712 309.791 420.46 308.587 420.46C307.229 420.46 306.627 420.838 306.627 422.196V423.848C306.627 425.304 307.411 425.584 308.587 425.584C309.931 425.584 310.547 425.22 310.547 423.848ZM315.38 426.606V420.586H312.874V419.438H319.23V420.586H316.724V426.606H315.38ZM321.597 422.322H325.083C325.097 422.182 325.097 422.056 325.097 421.93C325.097 420.81 324.621 420.432 323.473 420.432C322.199 420.432 321.667 420.88 321.597 422.322ZM326.357 423.316H321.569C321.569 425.192 322.269 425.584 323.795 425.584C324.537 425.584 325.377 425.528 325.839 425.416C325.839 425.416 325.839 426.494 325.839 426.508C325.349 426.606 324.593 426.732 323.795 426.732C320.855 426.732 320.225 425.486 320.225 423.05C320.225 419.914 321.443 419.312 323.473 419.312C325.265 419.312 326.413 419.942 326.413 422.28C326.413 422.588 326.399 422.938 326.357 423.316ZM333.192 420.684C332.758 420.586 331.904 420.474 331.162 420.474C330.07 420.474 329.118 420.656 329.118 422.112V423.932C329.16 425.486 330.07 425.57 331.176 425.57C331.918 425.57 332.73 425.472 333.192 425.36C333.192 425.36 333.192 426.48 333.192 426.494C332.688 426.592 331.82 426.718 330.938 426.718C327.83 426.718 327.774 424.912 327.774 423.932V422.112C327.774 421.132 327.83 419.326 330.938 419.326C331.82 419.326 332.688 419.452 333.192 419.55C333.192 419.55 333.192 420.67 333.192 420.684ZM336.64 426.606V420.586H334.134V419.438H340.49V420.586H337.984V426.606H336.64ZM343.123 424.38L346.217 419.438H347.575V426.606H346.231V421.608L343.053 426.606H341.779V419.438H343.123V424.38ZM352.722 420.46C352.274 420.46 351.336 420.572 350.902 420.712V425.388C351.308 425.514 351.98 425.584 352.722 425.584C353.996 425.584 354.528 425.262 354.528 423.848V422.196C354.528 420.922 354.164 420.46 352.722 420.46ZM352.68 419.312C354.57 419.312 355.872 419.872 355.872 422.196V423.848C355.872 426.032 354.836 426.732 352.722 426.732C351.812 426.732 351.28 426.606 350.902 426.508V429.392H349.558V419.438H350.608L350.706 419.746C351.322 419.438 352.414 419.312 352.68 419.312ZM363.981 422.196V423.848C363.981 424.884 363.897 426.732 360.677 426.732C357.457 426.732 357.373 424.884 357.373 423.848V422.196C357.373 421.16 357.457 419.312 360.677 419.312C363.897 419.312 363.981 421.174 363.981 422.196ZM362.637 423.848V422.196C362.595 420.712 361.881 420.46 360.677 420.46C359.319 420.46 358.717 420.838 358.717 422.196V423.848C358.717 425.304 359.501 425.584 360.677 425.584C362.021 425.584 362.637 425.22 362.637 423.848ZM369.079 426.606H365.719V419.438H368.925C370.045 419.438 371.053 419.592 371.053 421.328V421.51C371.053 422.126 370.759 422.574 370.423 422.826C370.927 423.05 371.347 423.554 371.347 424.338V424.646C371.291 426.452 370.115 426.606 369.079 426.606ZM367.063 425.458H369.079C369.499 425.458 369.961 425.374 370.003 424.618V424.338C370.003 423.526 369.457 423.428 369.037 423.428H367.063V425.458ZM367.063 420.586V422.336H368.925C369.317 422.336 369.709 422.196 369.709 421.51V421.328C369.709 420.656 369.345 420.586 368.925 420.586H367.063ZM377.149 422.42V422.112C377.149 420.656 376.197 420.474 375.105 420.474C374.363 420.474 373.635 420.586 373.201 420.684C373.201 420.67 373.201 419.55 373.201 419.55C373.705 419.452 374.517 419.326 375.357 419.326C378.437 419.326 378.479 421.146 378.493 422.112V426.606H377.443L377.345 426.298C376.505 426.69 375.693 426.732 375.231 426.732C373.257 426.732 372.557 425.85 372.557 424.702V424.408C372.557 423.12 373.481 422.35 374.993 422.35C375.651 422.35 376.407 422.378 377.149 422.42ZM377.149 425.234V423.498C376.435 423.456 375.819 423.442 375.273 423.442C374.265 423.442 373.901 423.862 373.901 424.548C373.901 425.108 374.223 425.57 375.399 425.57C375.749 425.57 376.491 425.542 377.149 425.234ZM384.994 426.606V423.554H381.774V426.606H380.43V419.438H381.774V422.392H384.994V419.438H386.338V426.606H384.994ZM394.688 422.196V423.848C394.688 424.884 394.604 426.732 391.384 426.732C388.164 426.732 388.08 424.884 388.08 423.848V422.196C388.08 421.16 388.164 419.312 391.384 419.312C394.604 419.312 394.688 421.174 394.688 422.196ZM393.344 423.848V422.196C393.302 420.712 392.588 420.46 391.384 420.46C390.026 420.46 389.424 420.838 389.424 422.196V423.848C389.424 425.304 390.208 425.584 391.384 425.584C392.728 425.584 393.344 425.22 393.344 423.848ZM404.257 426.606V423.554H401.037V426.606H399.693V419.438H401.037V422.392H404.257V419.438H405.601V426.606H404.257ZM408.674 422.322H412.16C412.174 422.182 412.174 422.056 412.174 421.93C412.174 420.81 411.698 420.432 410.55 420.432C409.276 420.432 408.744 420.88 408.674 422.322ZM413.434 423.316H408.646C408.646 425.192 409.346 425.584 410.872 425.584C411.614 425.584 412.454 425.528 412.916 425.416C412.916 425.416 412.916 426.494 412.916 426.508C412.426 426.606 411.67 426.732 410.872 426.732C407.932 426.732 407.302 425.486 407.302 423.05C407.302 419.914 408.52 419.312 410.55 419.312C412.342 419.312 413.49 419.942 413.49 422.28C413.49 422.588 413.476 422.938 413.434 423.316ZM417.37 423.4H415.76V422.336H417.412C418.098 422.336 418.448 421.916 418.448 421.496C418.448 420.516 417.692 420.432 416.67 420.432C416.488 420.432 415.648 420.474 414.85 420.642V419.55C415.466 419.396 416.446 419.326 416.67 419.326C418.546 419.326 419.792 419.48 419.792 421.496C419.792 422.042 419.512 422.546 418.966 422.896C419.708 423.26 419.974 423.834 419.974 424.506C419.974 426.508 418.686 426.732 416.838 426.732C416.432 426.732 415.494 426.648 414.584 426.452V425.318C415.578 425.556 416.474 425.598 416.838 425.598C417.846 425.598 418.63 425.5 418.63 424.506C418.63 423.918 418.28 423.4 417.37 423.4ZM425.767 422.42V422.112C425.767 420.656 424.815 420.474 423.723 420.474C422.981 420.474 422.253 420.586 421.819 420.684C421.819 420.67 421.819 419.55 421.819 419.55C422.323 419.452 423.135 419.326 423.975 419.326C427.055 419.326 427.097 421.146 427.111 422.112V426.606H426.061L425.963 426.298C425.123 426.69 424.311 426.732 423.849 426.732C421.875 426.732 421.175 425.85 421.175 424.702V424.408C421.175 423.12 422.099 422.35 423.611 422.35C424.269 422.35 425.025 422.378 425.767 422.42ZM425.767 425.234V423.498C425.053 423.456 424.437 423.442 423.891 423.442C422.883 423.442 422.519 423.862 422.519 424.548C422.519 425.108 422.841 425.57 424.017 425.57C424.367 425.57 425.109 425.542 425.767 425.234ZM432.407 426.606H429.047V419.438H432.253C433.373 419.438 434.381 419.592 434.381 421.328V421.51C434.381 422.126 434.087 422.574 433.751 422.826C434.255 423.05 434.675 423.554 434.675 424.338V424.646C434.619 426.452 433.443 426.606 432.407 426.606ZM430.391 425.458H432.407C432.827 425.458 433.289 425.374 433.331 424.618V424.338C433.331 423.526 432.785 423.428 432.365 423.428H430.391V425.458ZM430.391 420.586V422.336H432.253C432.645 422.336 433.037 422.196 433.037 421.51V421.328C433.037 420.656 432.673 420.586 432.253 420.586H430.391ZM437.692 424.38L440.786 419.438H442.144V426.606H440.8V421.608L437.622 426.606H436.348V419.438H437.692V424.38ZM449.321 420.684C448.887 420.586 448.033 420.474 447.291 420.474C446.199 420.474 445.247 420.656 445.247 422.112V423.932C445.289 425.486 446.199 425.57 447.305 425.57C448.047 425.57 448.859 425.472 449.321 425.36C449.321 425.36 449.321 426.48 449.321 426.494C448.817 426.592 447.949 426.718 447.067 426.718C443.959 426.718 443.903 424.912 443.903 423.932V422.112C443.903 421.132 443.959 419.326 447.067 419.326C447.949 419.326 448.817 419.452 449.321 419.55C449.321 419.55 449.321 420.67 449.321 420.684ZM452.307 424.38L455.401 419.438H456.759V426.606H455.415V421.608L452.237 426.606H450.963V419.438H452.307V424.38ZM462.2 425.724L460.24 421.65L459.848 426.606H458.518L459.078 419.438H460.534L462.732 423.946L464.93 419.438H466.386L466.946 426.606H465.616L465.224 421.65L463.278 425.724H462.2ZM475.065 422.196V423.848C475.065 424.884 474.981 426.732 471.761 426.732C468.541 426.732 468.457 424.884 468.457 423.848V422.196C468.457 421.16 468.541 419.312 471.761 419.312C474.981 419.312 475.065 421.174 475.065 422.196ZM473.721 423.848V422.196C473.679 420.712 472.965 420.46 471.761 420.46C470.403 420.46 469.801 420.838 469.801 422.196V423.848C469.801 425.304 470.585 425.584 471.761 425.584C473.105 425.584 473.721 425.22 473.721 423.848ZM478.147 424.38L481.241 419.438H482.599V426.606H481.255V421.608L478.077 426.606H476.803V419.438H478.147V424.38ZM481.661 416.666C481.591 417.772 480.933 418.402 479.701 418.402C478.483 418.402 477.825 417.772 477.755 416.666L478.735 416.61C478.763 417.142 479.127 417.422 479.701 417.422C480.289 417.422 480.653 417.142 480.681 416.61L481.661 416.666ZM289.338 442.38L292.432 437.438H293.79V444.606H292.446V439.608L289.268 444.606H287.994V437.438H289.338V442.38ZM300.967 438.684C300.533 438.586 299.679 438.474 298.937 438.474C297.845 438.474 296.893 438.656 296.893 440.112V441.932C296.935 443.486 297.845 443.57 298.951 443.57C299.693 443.57 300.505 443.472 300.967 443.36C300.967 443.36 300.967 444.48 300.967 444.494C300.463 444.592 299.595 444.718 298.713 444.718C295.605 444.718 295.549 442.912 295.549 441.932V440.112C295.549 439.132 295.605 437.326 298.713 437.326C299.595 437.326 300.463 437.452 300.967 437.55C300.967 437.55 300.967 438.67 300.967 438.684ZM307.803 438.684C307.369 438.586 306.515 438.474 305.773 438.474C304.681 438.474 303.729 438.656 303.729 440.112V441.932C303.771 443.486 304.681 443.57 305.787 443.57C306.529 443.57 307.341 443.472 307.803 443.36C307.803 443.36 307.803 444.48 307.803 444.494C307.299 444.592 306.431 444.718 305.549 444.718C302.441 444.718 302.385 442.912 302.385 441.932V440.112C302.385 439.132 302.441 437.326 305.549 437.326C306.431 437.326 307.299 437.452 307.803 437.55C307.803 437.55 307.803 438.67 307.803 438.684ZM315.339 444.606H313.995V438.586H311.545L311.069 441.806C310.901 442.968 310.355 443.976 309.529 444.732L308.675 443.738C309.277 443.192 309.613 442.45 309.739 441.61L310.355 437.438H315.339V444.606ZM318.412 440.322H321.898C321.912 440.182 321.912 440.056 321.912 439.93C321.912 438.81 321.436 438.432 320.288 438.432C319.014 438.432 318.482 438.88 318.412 440.322ZM323.172 441.316H318.384C318.384 443.192 319.084 443.584 320.61 443.584C321.352 443.584 322.192 443.528 322.654 443.416C322.654 443.416 322.654 444.494 322.654 444.508C322.164 444.606 321.408 444.732 320.61 444.732C317.67 444.732 317.04 443.486 317.04 441.05C317.04 437.914 318.258 437.312 320.288 437.312C322.08 437.312 323.228 437.942 323.228 440.28C323.228 440.588 323.214 440.938 323.172 441.316ZM324.016 446.034V443.458H324.828C325.64 442.73 325.976 441.302 326.018 440.14V437.438H330.89V443.458H331.772V446.034H330.582V444.606H325.206V446.034H324.016ZM329.546 438.586H327.362V440.154C327.334 441.204 327.068 442.478 326.48 443.458H329.546V438.586ZM339.577 440.196V441.848C339.577 442.884 339.493 444.732 336.273 444.732C333.053 444.732 332.969 442.884 332.969 441.848V440.196C332.969 439.16 333.053 437.312 336.273 437.312C339.493 437.312 339.577 439.174 339.577 440.196ZM338.233 441.848V440.196C338.191 438.712 337.477 438.46 336.273 438.46C334.915 438.46 334.313 438.838 334.313 440.196V441.848C334.313 443.304 335.097 443.584 336.273 443.584C337.617 443.584 338.233 443.22 338.233 441.848ZM344.674 444.606H341.314V437.438H344.52C345.64 437.438 346.648 437.592 346.648 439.328V439.51C346.648 440.126 346.354 440.574 346.018 440.826C346.522 441.05 346.942 441.554 346.942 442.338V442.646C346.886 444.452 345.71 444.606 344.674 444.606ZM342.658 443.458H344.674C345.094 443.458 345.556 443.374 345.598 442.618V442.338C345.598 441.526 345.052 441.428 344.632 441.428H342.658V443.458ZM342.658 438.586V440.336H344.52C344.912 440.336 345.304 440.196 345.304 439.51V439.328C345.304 438.656 344.94 438.586 344.52 438.586H342.658ZM352.745 440.42V440.112C352.745 438.656 351.793 438.474 350.701 438.474C349.959 438.474 349.231 438.586 348.797 438.684C348.797 438.67 348.797 437.55 348.797 437.55C349.301 437.452 350.113 437.326 350.953 437.326C354.033 437.326 354.075 439.146 354.089 440.112V444.606H353.039L352.941 444.298C352.101 444.69 351.289 444.732 350.827 444.732C348.853 444.732 348.153 443.85 348.153 442.702V442.408C348.153 441.12 349.077 440.35 350.589 440.35C351.247 440.35 352.003 440.378 352.745 440.42ZM352.745 443.234V441.498C352.031 441.456 351.415 441.442 350.869 441.442C349.861 441.442 349.497 441.862 349.497 442.548C349.497 443.108 349.819 443.57 350.995 443.57C351.345 443.57 352.087 443.542 352.745 443.234ZM357.749 444.606V438.586H355.243V437.438H361.599V438.586H359.093V444.606H357.749ZM363.967 440.322H367.453C367.467 440.182 367.467 440.056 367.467 439.93C367.467 438.81 366.991 438.432 365.843 438.432C364.569 438.432 364.037 438.88 363.967 440.322ZM368.727 441.316H363.939C363.939 443.192 364.639 443.584 366.165 443.584C366.907 443.584 367.747 443.528 368.209 443.416C368.209 443.416 368.209 444.494 368.209 444.508C367.719 444.606 366.963 444.732 366.165 444.732C363.225 444.732 362.595 443.486 362.595 441.05C362.595 437.914 363.813 437.312 365.843 437.312C367.635 437.312 368.783 437.942 368.783 440.28C368.783 440.588 368.769 440.938 368.727 441.316ZM376.179 444.606H374.835V438.586H372.385L371.909 441.806C371.741 442.968 371.195 443.976 370.369 444.732L369.515 443.738C370.117 443.192 370.453 442.45 370.579 441.61L371.195 437.438H376.179V444.606ZM379.518 439.51H381.226C383.9 439.51 383.984 441.106 383.984 442.016V442.086C383.984 443.01 383.9 444.606 381.226 444.606H378.174V437.438H379.518V439.51ZM379.518 443.458H381.226C382.598 443.458 382.64 442.59 382.64 442.086V442.016C382.64 441.526 382.598 440.658 381.226 440.658H379.518V443.458ZM390.682 438.684C390.248 438.586 389.394 438.474 388.652 438.474C387.56 438.474 386.608 438.656 386.608 440.112V441.932C386.65 443.486 387.56 443.57 388.666 443.57C389.408 443.57 390.22 443.472 390.682 443.36C390.682 443.36 390.682 444.48 390.682 444.494C390.178 444.592 389.31 444.718 388.428 444.718C385.32 444.718 385.264 442.912 385.264 441.932V440.112C385.264 439.132 385.32 437.326 388.428 437.326C389.31 437.326 390.178 437.452 390.682 437.55C390.682 437.55 390.682 438.67 390.682 438.684ZM394.718 441.666L393.668 442.814V444.606H392.324V437.438H393.668V441.288L394.858 439.734L396.552 437.438H398.19L395.6 440.84L398.414 444.606H396.72L394.718 441.666ZM405.721 440.196V441.848C405.721 442.884 405.637 444.732 402.417 444.732C399.197 444.732 399.113 442.884 399.113 441.848V440.196C399.113 439.16 399.197 437.312 402.417 437.312C405.637 437.312 405.721 439.174 405.721 440.196ZM404.377 441.848V440.196C404.335 438.712 403.621 438.46 402.417 438.46C401.059 438.46 400.457 438.838 400.457 440.196V441.848C400.457 443.304 401.241 443.584 402.417 443.584C403.761 443.584 404.377 443.22 404.377 441.848ZM408.803 442.38L411.897 437.438H413.255V444.606H411.911V439.608L408.733 444.606H407.459V437.438H408.803V442.38ZM412.317 434.666C412.247 435.772 411.589 436.402 410.357 436.402C409.139 436.402 408.481 435.772 408.411 434.666L409.391 434.61C409.419 435.142 409.783 435.422 410.357 435.422C410.945 435.422 411.309 435.142 411.337 434.61L412.317 434.666ZM420.9 441.666L419.85 442.814V444.606H418.506V437.438H419.85V441.288L421.04 439.734L422.734 437.438H424.372L421.782 440.84L424.596 444.606H422.902L420.9 441.666ZM431.903 440.196V441.848C431.903 442.884 431.819 444.732 428.599 444.732C425.379 444.732 425.295 442.884 425.295 441.848V440.196C425.295 439.16 425.379 437.312 428.599 437.312C431.819 437.312 431.903 439.174 431.903 440.196ZM430.559 441.848V440.196C430.517 438.712 429.803 438.46 428.599 438.46C427.241 438.46 426.639 438.838 426.639 440.196V441.848C426.639 443.304 427.423 443.584 428.599 443.584C429.943 443.584 430.559 443.22 430.559 441.848ZM437.098 443.724L435.138 439.65L434.746 444.606H433.416L433.976 437.438H435.432L437.63 441.946L439.828 437.438H441.284L441.844 444.606H440.514L440.122 439.65L438.176 443.724H437.098ZM448.129 444.606V438.586H444.951V444.606H443.607V437.438H449.473V444.606H448.129ZM455.585 440.42V440.112C455.585 438.656 454.633 438.474 453.541 438.474C452.799 438.474 452.071 438.586 451.637 438.684C451.637 438.67 451.637 437.55 451.637 437.55C452.141 437.452 452.953 437.326 453.793 437.326C456.873 437.326 456.915 439.146 456.929 440.112V444.606H455.879L455.781 444.298C454.941 444.69 454.129 444.732 453.667 444.732C451.693 444.732 450.993 443.85 450.993 442.702V442.408C450.993 441.12 451.917 440.35 453.429 440.35C454.087 440.35 454.843 440.378 455.585 440.42ZM455.585 443.234V441.498C454.871 441.456 454.255 441.442 453.709 441.442C452.701 441.442 452.337 441.862 452.337 442.548C452.337 443.108 452.659 443.57 453.835 443.57C454.185 443.57 454.927 443.542 455.585 443.234ZM463.429 444.606V441.554H460.209V444.606H458.865V437.438H460.209V440.392H463.429V437.438H464.773V444.606H463.429ZM468.111 442.38L471.205 437.438H472.563V444.606H471.219V439.608L468.041 444.606H466.767V437.438H468.111V442.38ZM475.625 440.322H479.111C479.125 440.182 479.125 440.056 479.125 439.93C479.125 438.81 478.649 438.432 477.501 438.432C476.227 438.432 475.695 438.88 475.625 440.322ZM480.385 441.316H475.597C475.597 443.192 476.297 443.584 477.823 443.584C478.565 443.584 479.405 443.528 479.867 443.416C479.867 443.416 479.867 444.494 479.867 444.508C479.377 444.606 478.621 444.732 477.823 444.732C474.883 444.732 474.253 443.486 474.253 441.05C474.253 437.914 475.471 437.312 477.501 437.312C479.293 437.312 480.441 437.942 480.441 440.28C480.441 440.588 480.427 440.938 480.385 441.316ZM483.369 442.38L486.463 437.438H487.821V444.606H486.477V439.608L483.299 444.606H482.025V437.438H483.369V442.38ZM486.883 434.666C486.813 435.772 486.155 436.402 484.923 436.402C483.705 436.402 483.047 435.772 482.977 434.666L483.957 434.61C483.985 435.142 484.349 435.422 484.923 435.422C485.511 435.422 485.875 435.142 485.903 434.61L486.883 434.666ZM493.24 444.606V434.652H494.612V444.606H493.24ZM501.496 444.606V440.196C501.496 438.922 501.244 438.46 499.802 438.46C499.354 438.46 498.542 438.572 498.108 438.712V444.606H496.764V437.438H497.814L497.912 437.746C498.528 437.438 499.41 437.312 499.872 437.312C502.098 437.312 502.84 437.942 502.84 440.126V444.606H501.496ZM508.667 443.626V444.648C508.303 444.704 507.883 444.732 507.519 444.732C505.447 444.732 505.237 443.304 505.237 442.618V438.502H504.131V437.438H505.265L505.545 435.492H506.581V437.438H508.653V438.502H506.581V442.618C506.581 443.108 506.735 443.668 507.799 443.668C508.051 443.668 508.373 443.654 508.667 443.626ZM511.103 440.322H514.589C514.701 438.894 514.253 438.376 512.979 438.376C511.705 438.376 511.173 438.88 511.103 440.322ZM515.835 441.316H511.075C511.075 442.772 511.481 443.29 512.349 443.5C512.615 443.556 512.951 443.584 513.301 443.584C514.043 443.584 514.883 443.528 515.345 443.416C515.345 443.416 515.345 444.494 515.345 444.508C514.855 444.606 514.099 444.732 513.301 444.732C512.881 444.732 512.461 444.704 512.041 444.62C510.165 444.172 509.731 443.22 509.731 441.05C509.731 437.914 510.949 437.312 512.979 437.312C515.009 437.312 516.199 438.11 515.835 441.316ZM518.54 437.438L518.764 438.096C519.618 437.76 520.57 437.368 521.55 437.312V438.628C521.004 438.656 519.66 438.782 518.834 439.104V444.606H517.49V437.438H518.54ZM526.728 443.626V444.648C526.364 444.704 525.944 444.732 525.58 444.732C523.508 444.732 523.298 443.304 523.298 442.618V438.502H522.192V437.438H523.326L523.606 435.492H524.642V437.438H526.714V438.502H524.642V442.618C524.642 443.108 524.796 443.668 525.86 443.668C526.112 443.668 526.434 443.654 526.728 443.626ZM529.164 440.322H532.65C532.762 438.894 532.314 438.376 531.04 438.376C529.766 438.376 529.234 438.88 529.164 440.322ZM533.896 441.316H529.136C529.136 442.772 529.542 443.29 530.41 443.5C530.676 443.556 531.012 443.584 531.362 443.584C532.104 443.584 532.944 443.528 533.406 443.416C533.406 443.416 533.406 444.494 533.406 444.508C532.916 444.606 532.16 444.732 531.362 444.732C530.942 444.732 530.522 444.704 530.102 444.62C528.226 444.172 527.792 443.22 527.792 441.05C527.792 437.914 529.01 437.312 531.04 437.312C533.07 437.312 534.26 438.11 533.896 441.316ZM538.351 438.95L539.765 437.438H541.543L538.659 440.392L541.627 444.606H540.017L537.805 441.12L536.895 442.03V444.606H535.551V434.652H536.895V440.546H536.965L538.351 438.95Z" fill="#041C32"/>
</svg>
