<svg width="60" height="60" viewBox="0 0 60 60" fill="none" xmlns="http://www.w3.org/2000/svg">
<mask id="mask0_4231_52" style="mask-type:alpha" maskUnits="userSpaceOnUse" x="0" y="0" width="60" height="60">
<rect width="60" height="60" fill="#D9D9D9"/>
</mask>
<g mask="url(#mask0_4231_52)">
<path d="M37.1394 19.495L30.5287 12.8844L37.1394 6.27441L43.75 12.8844L37.1394 19.495ZM49.6394 26.995L45.5288 22.8844L49.6394 18.7744L53.75 22.8844L49.6394 26.995ZM30.1875 53.75C26.8638 53.75 23.7469 53.1194 20.8369 51.8582C17.9265 50.5969 15.3879 48.883 13.2212 46.7163C11.0546 44.5496 9.34063 42.0111 8.07938 39.1007C6.81813 36.1907 6.1875 33.0738 6.1875 29.75C6.1875 24.2759 7.85667 19.4 11.195 15.1225C14.5329 10.8455 18.8494 8.04025 24.1444 6.70691C23.6827 10.7198 24.096 14.6109 25.3844 18.38C26.6731 22.1492 28.7485 25.4648 31.6106 28.3269C34.4727 31.189 37.7883 33.2644 41.5575 34.5532C45.3267 35.8415 49.2177 36.2548 53.2306 35.7932C51.9231 41.0882 49.1242 45.4046 44.8338 48.7425C40.5438 52.0809 35.6617 53.75 30.1875 53.75ZM30.1875 50C33.8542 50 37.25 49.0834 40.375 47.25C43.5 45.4167 45.9583 42.8959 47.75 39.6875C44.1667 39.3542 40.7708 38.444 37.5625 36.9569C34.3542 35.4698 31.4792 33.4555 28.9375 30.9138C26.3958 28.3721 24.375 25.5011 22.875 22.3007C21.375 19.1002 20.4792 15.7084 20.1875 12.125C16.9792 13.9167 14.4688 16.3855 12.6563 19.5313C10.8438 22.6771 9.9375 26.0834 9.9375 29.75C9.9375 35.375 11.9062 40.1563 15.8437 44.0938C19.7812 48.0313 24.5625 50 30.1875 50Z" fill="white"/>
</g>
</svg>
