<svg width="1187" height="345" viewBox="0 0 1187 345" fill="none" xmlns="http://www.w3.org/2000/svg">
<g clip-path="url(#clip0_4231_19)">
<path d="M523.583 114.756C523.084 114.315 522.439 114.072 521.773 114.074C521.082 114.108 520.43 114.4 519.945 114.892C519.659 115.23 519.449 115.625 519.331 116.051C519.211 116.481 519.211 116.934 519.331 117.364L519.45 118.045C519.573 118.465 519.809 118.842 520.133 119.136C520.44 119.425 520.817 119.631 521.226 119.733C521.636 119.827 522.062 119.827 522.473 119.733C522.901 119.609 523.286 119.366 523.583 119.034C523.874 118.731 524.075 118.353 524.163 117.943C524.163 117.722 524.163 117.483 524.3 117.261C524.409 116.818 524.4 116.353 524.275 115.914C524.149 115.474 523.91 115.075 523.583 114.756Z" fill="white" fill-opacity="0.1"/>
<path d="M4.26892 277.609C3.77429 277.16 3.1271 276.917 2.45888 276.927C1.76641 276.952 1.111 277.246 0.631738 277.745C0.329355 278.072 0.117499 278.471 0.0170296 278.904C-0.0935672 279.335 -0.0935672 279.786 0.0170296 280.217L0.136574 280.881C0.265453 281.303 0.500582 281.684 0.819549 281.989C1.13409 282.273 1.51617 282.473 1.92953 282.569C2.3387 282.671 2.76686 282.671 3.17604 282.569C3.60142 282.447 3.9853 282.211 4.28602 281.887C4.57085 281.573 4.77062 281.192 4.86654 280.779C4.86654 280.557 4.95193 280.336 4.98608 280.114C5.10257 279.671 5.09746 279.204 4.97128 278.764C4.84511 278.323 4.60254 277.924 4.26892 277.609Z" fill="white" fill-opacity="0.1"/>
<path d="M30.6002 63.4707C24.6919 63.4707 24.9481 72.5891 30.8393 72.5891C36.7305 72.5891 36.4743 63.4707 30.6002 63.4707Z" fill="white" fill-opacity="0.1"/>
<path d="M451.197 197.759C447.919 197.759 448.073 202.872 451.334 202.872C454.596 202.872 454.476 197.759 451.197 197.759Z" fill="white" fill-opacity="0.1"/>
<path d="M376.969 15.7995L376.525 15.3905C376.157 15.0706 375.718 14.8427 375.244 14.7258C374.892 14.6318 374.521 14.6318 374.168 14.7258C373.921 14.7334 373.68 14.8037 373.468 14.9303C373.226 15.0025 373.008 15.1378 372.836 15.3223C372.62 15.4556 372.443 15.6438 372.324 15.8677C372.166 16.0486 372.055 16.265 372 16.4983C371.837 16.8257 371.766 17.1908 371.795 17.5551C371.795 17.7937 371.795 18.0323 371.914 18.2709L372.222 18.9526L372.7 19.5321L373.297 19.9582L373.963 20.2139C374.316 20.3079 374.687 20.3079 375.039 20.2139C375.285 20.2008 375.525 20.1308 375.739 20.0094C376.106 19.8834 376.431 19.6593 376.678 19.3617L377.02 19.0379C377.235 18.8109 377.402 18.5429 377.51 18.25C377.619 17.9571 377.667 17.6454 377.652 17.3335C377.612 16.7579 377.37 16.2148 376.969 15.7995Z" fill="white" fill-opacity="0.1"/>
<path d="M1184.1 165.614C1180.32 165.614 1180.49 171.46 1184.25 171.46C1188.01 171.46 1187.85 165.614 1184.1 165.614Z" fill="white" fill-opacity="0.1"/>
<path d="M771.952 92.3941L771.15 91.8146C770.561 91.5063 769.902 91.3537 769.237 91.3715C768.731 91.3683 768.232 91.4914 767.786 91.7294C767.294 91.9015 766.858 92.2017 766.522 92.5987C766.164 92.9516 765.904 93.3924 765.771 93.8769C765.568 94.3259 765.474 94.8166 765.498 95.3086C765.513 95.819 765.63 96.3212 765.841 96.7863C766.052 97.2514 766.353 97.6702 766.727 98.0186L767.547 98.5981C768.13 98.9043 768.783 99.0568 769.442 99.0412C769.948 99.0458 770.448 98.9227 770.894 98.6833C771.387 98.5054 771.827 98.2065 772.174 97.8141C772.524 97.4573 772.777 97.0173 772.909 96.5358C773.128 96.0921 773.223 95.5972 773.182 95.1041C773.17 94.5931 773.055 94.0897 772.844 93.6241C772.633 93.1584 772.329 92.7401 771.952 92.3941Z" fill="white" fill-opacity="0.1"/>
<path d="M1138.32 44.3645L1137.5 43.7851C1136.91 43.4788 1136.26 43.3263 1135.6 43.3419C1135.1 43.3373 1134.6 43.4604 1134.15 43.6998C1133.66 43.8673 1133.22 44.1682 1132.89 44.5691C1132.52 44.9172 1132.26 45.3598 1132.14 45.8473C1131.92 46.291 1131.82 46.7859 1131.86 47.279C1131.87 47.7901 1131.99 48.2934 1132.2 48.7591C1132.41 49.2247 1132.71 49.643 1133.09 49.989L1133.91 50.5685C1134.49 50.8784 1135.15 51.0311 1135.81 51.0116C1136.31 51.0148 1136.81 50.8918 1137.26 50.6537C1137.75 50.4862 1138.19 50.1853 1138.52 49.7845C1138.88 49.4316 1139.14 48.9907 1139.27 48.5062C1139.48 48.0597 1139.58 47.5671 1139.55 47.0745C1139.53 46.5642 1139.41 46.062 1139.2 45.5969C1138.99 45.1318 1138.69 44.7129 1138.32 44.3645Z" fill="white" fill-opacity="0.1"/>
<path d="M909.943 205.139C908.099 205.139 908.235 208.002 909.943 208.002C911.65 208.002 911.787 205.139 909.943 205.139Z" fill="white" fill-opacity="0.1"/>
<path d="M1030.67 222.473C1030.29 222.473 1029.92 222.623 1029.66 222.892C1029.39 223.16 1029.24 223.525 1029.24 223.904C1029.24 224.284 1029.39 224.648 1029.66 224.917C1029.92 225.185 1030.29 225.336 1030.67 225.336C1031.05 225.336 1031.41 225.185 1031.68 224.917C1031.95 224.648 1032.1 224.284 1032.1 223.904C1032.1 223.525 1031.95 223.16 1031.68 222.892C1031.41 222.623 1031.05 222.473 1030.67 222.473Z" fill="white" fill-opacity="0.1"/>
<path d="M812.251 179.01C812.002 179.017 811.757 179.073 811.53 179.174C811.302 179.275 811.097 179.42 810.926 179.601C810.58 179.965 810.393 180.452 810.407 180.953C810.421 181.455 810.633 181.931 810.998 182.276C811.363 182.621 811.851 182.808 812.354 182.794C812.856 182.781 813.333 182.568 813.679 182.204C814.025 181.84 814.212 181.353 814.198 180.851C814.184 180.349 813.971 179.874 813.606 179.528C813.241 179.183 812.754 178.997 812.251 179.01Z" fill="white" fill-opacity="0.1"/>
<path d="M717.873 217.087C717.359 217.145 716.886 217.393 716.547 217.781C716.207 218.17 716.026 218.672 716.039 219.188C716.052 219.703 716.257 220.195 716.616 220.567C716.974 220.938 717.459 221.162 717.975 221.194C718.488 221.137 718.962 220.889 719.301 220.5C719.641 220.111 719.822 219.609 719.809 219.094C719.796 218.578 719.59 218.086 719.232 217.715C718.873 217.343 718.388 217.119 717.873 217.087Z" fill="white" fill-opacity="0.1"/>
<path d="M880.777 94.2858C880.261 94.2994 879.771 94.5171 879.416 94.8911C879.06 95.2651 878.868 95.7647 878.882 96.28C878.895 96.7953 879.113 97.2841 879.488 97.6389C879.863 97.9937 880.363 98.1854 880.879 98.1718C881.135 98.1651 881.387 98.1082 881.621 98.0043C881.854 97.9005 882.065 97.7517 882.241 97.5666C882.417 97.3814 882.555 97.1635 882.646 96.9251C882.738 96.6868 882.782 96.4328 882.775 96.1777C882.768 95.9225 882.711 95.6712 882.607 95.438C882.503 95.2049 882.354 94.9945 882.169 94.8188C881.983 94.6431 881.765 94.5056 881.526 94.4142C881.287 94.3227 881.033 94.2791 880.777 94.2858Z" fill="white" fill-opacity="0.1"/>
<path d="M1006.44 122.562C1005.92 122.576 1005.43 122.793 1005.08 123.167C1004.72 123.541 1004.53 124.041 1004.54 124.556C1004.56 125.072 1004.78 125.56 1005.15 125.915C1005.52 126.27 1006.03 126.462 1006.54 126.448C1007.06 126.435 1007.55 126.217 1007.9 125.843C1008.26 125.469 1008.45 124.969 1008.44 124.454C1008.42 123.939 1008.21 123.45 1007.83 123.095C1007.46 122.74 1006.96 122.549 1006.44 122.562Z" fill="white" fill-opacity="0.1"/>
<path d="M786.552 17.7085C786.529 17.0619 786.253 16.4499 785.784 16.0041C785.556 15.7904 785.287 15.6245 784.994 15.5162C784.701 15.4078 784.389 15.3594 784.076 15.3735C783.754 15.3791 783.437 15.4499 783.143 15.5818C782.85 15.7136 782.586 15.9037 782.368 16.1405C782.156 16.3691 781.991 16.6373 781.882 16.9298C781.774 17.2222 781.724 17.5332 781.737 17.8448C781.737 18.0494 781.737 18.2539 781.737 18.4584C781.794 18.6521 781.88 18.836 781.993 19.0038V19.2935L782.232 19.8049C782.37 20.0403 782.564 20.239 782.795 20.3843C783.153 20.6427 783.584 20.7801 784.025 20.7764C784.476 20.7515 784.907 20.5847 785.257 20.2999C785.606 20.0151 785.857 19.627 785.971 19.1913V19.0549C786.292 18.6718 786.493 18.204 786.552 17.7085Z" fill="white" fill-opacity="0.1"/>
<path d="M97.7595 201.662C97.5876 201.068 97.257 200.532 96.8033 200.111C96.1385 199.515 95.2721 199.192 94.3785 199.208C93.9249 199.2 93.4772 199.311 93.0807 199.531C92.6396 199.685 92.2456 199.949 91.9367 200.298C91.5304 200.734 91.2456 201.269 91.1108 201.849C90.976 202.429 90.9958 203.035 91.1682 203.605L91.3048 204.031C91.3048 204.031 91.3048 204.167 91.3048 204.253L91.6463 205.037C91.8312 205.281 92.0309 205.515 92.244 205.735C92.5355 206.022 92.8932 206.233 93.2856 206.349C93.6547 206.517 94.059 206.593 94.4639 206.57C95.3086 206.523 96.1057 206.165 96.7008 205.565C96.811 205.449 96.903 205.316 96.974 205.173C97.247 204.858 97.4298 204.475 97.5033 204.065C97.5107 203.997 97.5107 203.928 97.5033 203.861L97.6571 203.417C97.8444 202.851 97.8798 202.246 97.7595 201.662Z" fill="white" fill-opacity="0.1"/>
<path d="M164.783 92.667C161.504 92.667 161.641 97.7801 164.919 97.7801C168.198 97.7801 168.198 92.667 164.783 92.667Z" fill="white" fill-opacity="0.1"/>
<path d="M233.377 216.763C227.639 216.763 227.896 225.625 233.599 225.625C239.302 225.625 239.08 216.763 233.377 216.763Z" fill="white" fill-opacity="0.1"/>
<path d="M314.146 278.205C310.56 278.205 310.731 283.778 314.3 283.778C317.869 283.778 317.732 278.205 314.146 278.205Z" fill="white" fill-opacity="0.1"/>
<path d="M578.55 328.177C578.034 328.191 577.544 328.409 577.188 328.783C576.833 329.157 576.641 329.656 576.654 330.172C576.668 330.687 576.886 331.176 577.261 331.53C577.636 331.885 578.136 332.077 578.652 332.063C578.908 332.057 579.16 332 579.393 331.896C579.627 331.792 579.838 331.643 580.014 331.458C580.19 331.273 580.328 331.055 580.419 330.817C580.511 330.578 580.554 330.324 580.548 330.069C580.541 329.814 580.484 329.563 580.38 329.33C580.276 329.096 580.127 328.886 579.941 328.71C579.756 328.535 579.537 328.397 579.299 328.306C579.06 328.214 578.806 328.171 578.55 328.177Z" fill="white" fill-opacity="0.1"/>
<path d="M356.392 191.794C355.876 191.807 355.386 192.025 355.031 192.399C354.675 192.773 354.483 193.272 354.497 193.788C354.51 194.303 354.729 194.792 355.103 195.147C355.478 195.501 355.978 195.693 356.495 195.68C357.011 195.666 357.501 195.448 357.856 195.074C358.212 194.7 358.404 194.201 358.39 193.686C358.377 193.17 358.158 192.681 357.784 192.327C357.409 191.972 356.909 191.78 356.392 191.794Z" fill="white" fill-opacity="0.1"/>
<path d="M753.015 340.193C749.907 340.193 750.044 345 753.152 345C756.26 345 756.123 340.193 753.015 340.193Z" fill="white" fill-opacity="0.1"/>
<path d="M630.273 70.9187C630.238 70.5038 630.097 70.1047 629.863 69.7597C629.691 69.4998 629.485 69.2647 629.249 69.0609C629.18 68.9451 629.1 68.8366 629.01 68.7371L628.429 68.3451C628.137 68.1646 627.799 68.0701 627.456 68.0724C627.232 68.0123 626.996 68.0123 626.773 68.0724C626.535 68.072 626.303 68.1433 626.107 68.2769C625.87 68.3406 625.657 68.4707 625.492 68.6519C625.288 68.7929 625.114 68.9724 624.98 69.1802C624.732 69.3831 624.533 69.6395 624.399 69.9302C624.297 70.1688 624.211 70.4244 624.109 70.6801C624.015 71.0723 624.015 71.4809 624.109 71.8731C624.141 72.294 624.282 72.6992 624.519 73.0492C624.706 73.2707 624.877 73.4923 625.065 73.6968C625.347 73.9958 625.708 74.2086 626.107 74.3104C626.471 74.4933 626.879 74.5701 627.285 74.532L628.088 74.4127C628.504 74.3191 628.884 74.1058 629.18 73.7991C629.53 73.5673 629.808 73.2427 629.983 72.8617L630.273 72.1118C630.373 71.7203 630.373 71.3101 630.273 70.9187Z" fill="white" fill-opacity="0.1"/>
<path d="M992.386 30.4058C992.353 29.985 992.212 29.5798 991.976 29.2298C991.805 28.9743 991.604 28.7398 991.378 28.531C991.378 28.4288 991.224 28.3095 991.122 28.2072L990.558 27.8152C990.257 27.6404 989.916 27.5464 989.568 27.5425C989.344 27.4832 989.109 27.4832 988.885 27.5425C988.647 27.5421 988.415 27.6134 988.219 27.747C987.982 27.8107 987.769 27.9408 987.604 28.122C987.405 28.2676 987.231 28.4463 987.092 28.6503C986.857 28.865 986.66 29.1188 986.511 29.4003L986.238 30.1502C986.128 30.546 986.128 30.9645 986.238 31.3603C986.258 31.7784 986.4 32.1815 986.648 32.5193L987.177 33.184C987.469 33.4707 987.827 33.6815 988.219 33.7976C988.588 33.964 988.993 34.04 989.397 34.0191L990.2 33.8828C990.62 33.7859 991.005 33.5733 991.31 33.2692C991.655 33.0364 991.927 32.7116 992.095 32.3318C992.198 32.0932 992.3 31.8375 992.386 31.5819C992.493 31.1972 992.493 30.7904 992.386 30.4058Z" fill="white" fill-opacity="0.1"/>
<path d="M455.296 55.0859C452.256 55.0859 452.393 59.79 455.433 59.79C458.472 59.79 458.335 55.0859 455.296 55.0859Z" fill="white" fill-opacity="0.1"/>
<path d="M280.097 69.2832C276.186 69.2832 276.357 75.3337 280.268 75.3337C284.178 75.3337 283.99 69.2832 280.097 69.2832Z" fill="white" fill-opacity="0.1"/>
<path d="M137.906 0.0507812C133.995 0.0507812 134.166 6.10132 138.059 6.10132C141.952 6.10132 141.799 0.0507812 137.906 0.0507812Z" fill="white" fill-opacity="0.1"/>
<path d="M453.537 320.934C453.463 320.42 453.216 319.945 452.837 319.588C452.469 319.253 452.001 319.05 451.505 319.009C451.314 318.966 451.116 318.966 450.924 319.009C450.721 319.023 450.523 319.081 450.344 319.179C449.879 319.386 449.495 319.739 449.251 320.185C449.075 320.54 448.981 320.93 448.978 321.326C448.973 321.631 449.049 321.931 449.2 322.196C449.299 322.487 449.476 322.746 449.712 322.946L450.276 323.372C450.515 323.581 450.813 323.712 451.129 323.747C451.457 323.801 451.793 323.728 452.069 323.542L452.495 323.218L452.974 322.826C453.179 322.609 453.331 322.346 453.418 322.059C453.556 321.701 453.597 321.313 453.537 320.934Z" fill="white" fill-opacity="0.1"/>
</g>
<defs>
<clipPath id="clip0_4231_19">
<rect width="1187" height="345" fill="white"/>
</clipPath>
</defs>
</svg>
