<svg width="128" height="73" viewBox="0 0 128 73" fill="none" xmlns="http://www.w3.org/2000/svg">
<path fill-rule="evenodd" clip-rule="evenodd" d="M23.3987 25.7041C23.4527 27.913 22.9295 30.0976 21.8811 32.0414C21.5113 32.7056 21.0115 33.2881 20.4118 33.7542C19.812 34.2202 19.1245 34.5602 18.3906 34.7537C17.6733 34.9132 16.9316 34.9281 16.2086 34.7975C15.4856 34.6669 14.7957 34.3935 14.1791 33.9932C12.9284 33.0857 12.0053 31.7959 11.5486 30.3176C10.8891 28.2223 10.6652 26.0137 10.8909 23.8282C11.0074 21.8059 11.6768 19.8546 12.8259 18.188C13.2566 17.6126 13.7991 17.1307 14.4208 16.7712C15.0424 16.4118 15.7303 16.1823 16.4429 16.0967C17.684 15.9227 18.9465 16.192 20.0094 16.8572C21.1203 17.6371 21.9675 18.7381 22.4376 20.0132C23.1403 21.8383 23.4672 23.787 23.3987 25.7421V25.7041ZM33.1368 21.5468C33.6032 24.0602 33.6032 26.6382 33.1368 29.1516C32.6809 31.7197 31.5846 34.1308 29.9498 36.1606C28.0872 38.3924 25.6248 40.042 22.8549 40.9136C20.3383 41.724 17.6817 42.0045 15.0518 41.7374C11.8936 41.4764 8.87931 40.3006 6.37601 38.3533C3.94201 36.3675 2.20499 33.6541 1.41844 30.6091C1.07583 29.304 0.876508 27.9652 0.824036 26.6166C0.824036 17.7613 0.824036 8.88911 0.824036 0H10.9415C10.9415 3.37144 10.9415 6.74288 10.9415 10.1397C14.1701 9.03854 17.6231 8.76833 20.9832 9.35385C24.0499 9.85944 26.8857 11.3026 29.1025 13.4858C31.2655 15.6745 32.7086 18.4742 33.238 21.5088L33.1368 21.5468ZM66.3475 0.0633768H76.073C76.073 7.57941 76.073 15.0828 76.073 22.5988C76.2367 22.4684 76.3704 22.3041 76.4651 22.1171C79.1588 18.0106 81.8779 13.9167 84.5717 9.79745H97.2186C93.1379 14.7067 89.0403 19.6076 84.9258 24.5C84.8373 24.5887 84.7741 24.7154 84.9258 24.8042C89.4913 30.2289 94.0822 35.6283 98.6224 41.053H86.2537C86.2002 41.0598 86.1458 41.0516 86.0967 41.0292C86.0475 41.0068 86.0056 40.9712 85.9755 40.9262C82.6873 36.1352 79.4118 31.3316 76.0983 26.5533C76.0983 31.3823 76.0983 36.1986 76.0983 41.0276C74.7324 41.091 73.3539 41.0276 71.9881 41.0276H66.3855L66.3475 0.0633768ZM64.3114 28.5939H44.1523C44.2684 30.03 44.9346 31.3654 46.0114 32.3202C47.6811 33.6614 49.7407 34.4221 51.8795 34.4875C55.1789 34.6456 58.4802 34.2164 61.6303 33.2201C62.0476 35.4255 62.4902 37.6182 62.8949 39.8236C59.1729 41.197 55.2248 41.8507 51.2598 41.7501C48.8699 41.7246 46.5014 41.2961 44.2534 40.4826C42.6329 39.9138 41.1288 39.0549 39.8144 37.9477C38.3856 36.7227 37.2343 35.2059 36.4377 33.4989C35.3611 31.1111 34.8255 28.514 34.8694 25.8942C34.8452 23.3056 35.3488 20.7394 36.3491 18.3528C37.4507 15.7008 39.2792 13.4158 41.6229 11.762C43.8346 10.245 46.4107 9.34792 49.0845 9.16372C51.2819 8.95013 53.4997 9.17412 55.6103 9.8228C57.3575 10.3946 58.95 11.3617 60.2644 12.6492C61.4826 13.8608 62.4534 15.2987 63.1226 16.8825C64.6064 20.5975 65.0184 24.6556 64.3114 28.5939ZM44.0764 21.9017H55.5724C55.6305 20.1946 55.0789 18.5227 54.0168 17.1867C53.5349 16.6645 52.9469 16.2517 52.2925 15.9762C51.638 15.7008 50.9323 15.569 50.2228 15.5897C48.8343 15.5275 47.4754 16.0042 46.4287 16.9206C45.0906 18.2482 44.2812 20.0191 44.1523 21.9017H44.0764ZM127.091 23.0677C127.592 27.1346 126.734 31.2535 124.65 34.7791C122.74 37.7261 119.857 39.9065 116.505 40.9389C114.011 41.7325 111.382 42.0085 108.778 41.7501C106.081 41.5324 103.477 40.6625 101.19 39.2152C99.0033 37.7827 97.253 35.7743 96.131 33.4102C94.5704 29.8631 94.1292 25.9227 94.8663 22.1171C95.3642 18.9681 96.822 16.0505 99.0397 13.7646C101.083 11.6862 103.676 10.2352 106.514 9.58198C107.562 9.33924 108.628 9.1782 109.701 9.10034C112.336 8.89164 114.985 9.23701 117.479 10.1143C120.569 11.2351 123.187 13.3761 124.903 16.1855C126.145 18.2764 126.905 20.6191 127.128 23.0424L127.091 23.0677ZM116.973 27.4405C117.274 25.042 117.028 22.6064 116.252 20.3174C115.784 18.9375 114.901 17.7373 113.723 16.8825C112.662 16.1658 111.372 15.872 110.106 16.0587C108.98 16.1719 107.922 16.6528 107.096 17.4276C106.057 18.4786 105.322 19.7929 104.971 21.2299C104.498 23.0657 104.331 24.9672 104.478 26.8575C104.571 28.4225 104.952 29.9567 105.603 31.3823C106.156 32.5835 107.066 33.5841 108.209 34.2467C109.314 34.8176 110.576 35.0091 111.8 34.7917C113.146 34.5164 114.333 33.7308 115.114 32.599C116.127 31.0867 116.745 29.3433 116.91 27.5292L116.973 27.4405ZM29.5198 58.2144C60.7661 53.8205 92.0249 49.4182 123.296 45.0075C123.296 48.2902 123.296 51.5729 123.296 54.8556C114.368 56.1231 105.464 57.3905 96.5483 58.658C64.6529 63.1194 32.7279 67.5936 0.773438 72.0804C0.773438 68.8103 0.773438 65.5361 0.773438 62.2576C10.3851 60.9394 19.9967 59.5579 29.621 58.2144H29.5198Z" fill="white"/>
</svg>
